<svg width="500" height="500" xmlns="http://www.w3.org/2000/svg" class="illustrations_image" imageName="Checklist" data-imageid="checklist-71" xml:space="preserve" version="1.1">

 <g>
  <title>Layer 1</title>
  <g id="Character_checklist-71">
   <path id="svg_1" fill="#FFFFFF" d="m307.1,365.8c-18.2,-13.4 -25.2,-37.7 -24.9,-60.2c0.1,-11.4 2.2,-23.5 10.1,-31.7c3.8,-3.9 8.7,-6.6 13.8,-8.8c16.1,-7 37.6,-8.1 48.9,5.4c3.3,4 5.3,8.8 7.2,13.6c6.7,16.7 12.8,33.6 18.2,50.8c5.3,16.9 11,43.5 -12.9,45c-19.5,1.2 -44.4,-2.4 -60.4,-14.1z" class="st0_checklist-71"/>
   <path id="svg_2" fill="#231F20" d="m360.2,380.8c-17.5,0 -39,-3.7 -53.5,-14.4l0,0c-16.4,-12 -25.5,-34.2 -25.2,-60.9c0.2,-14.7 3.6,-25.2 10.4,-32.2c4.4,-4.5 10.1,-7.2 14,-9c16.5,-7.2 38.3,-8.2 49.7,5.6c3.2,3.9 5.2,8.6 7.4,13.8c6.7,16.6 12.8,33.7 18.2,50.8c5.9,18.7 6.2,31.4 1.1,38.8c-3,4.4 -8,6.8 -14.7,7.2c-2.4,0.3 -4.9,0.3 -7.4,0.3zm-52.7,-15.6c16.4,12 41.7,15.1 59.9,13.9c6.2,-0.4 10.8,-2.6 13.5,-6.6c4.8,-7 4.4,-19.2 -1.4,-37.5c-5.3,-17.1 -11.4,-34.1 -18.1,-50.7c-2.1,-5.1 -4,-9.6 -7.1,-13.4c-10.9,-13.2 -32,-12.2 -48,-5.2c-3.8,1.6 -9.4,4.4 -13.5,8.6c-6.5,6.7 -9.8,16.9 -9.9,31.2c-0.3,26.2 8.7,47.9 24.6,59.7l0,0z" class="st1_checklist-71"/>
   <path id="svg_3" fill="#b45309" d="m116.7,280.5l-52.6,-21.7c18.7,-39.9 39.7,-63.6 54.3,-72.9c18.6,-15.4 64.6,-16.5 106.7,-18.1c0,0 20,-1.7 40.1,3.9c49.2,13.6 95,84.9 95,84.9l-59.6,8.1c0,0 7.7,72.1 14.5,159.9c0,0 -77.2,17.4 -197.9,10.6c-0.1,0 0.6,-142.2 -0.5,-154.7z" class="st2_checklist-71 targetColor"/>
   <path id="svg_4" fill="#FFFFFF" d="m230.6,160.7l6.6,31.7c0,0 -7,21 -28.3,18.8s-31.1,-19.3 -31.1,-19.3l-7.6,-58.2c0,0 14.2,-10.2 5.2,-42.8c0,0 24.4,8.3 54.6,0.3c0,0 14.2,34.7 13.8,51s-13.2,18.5 -13.2,18.5z" class="st0_checklist-71"/>
   <path id="svg_5" fill="#231F20" d="m212,212c-1,0 -2.1,-0.1 -3.1,-0.2c-21.4,-2.2 -31.5,-19.5 -31.6,-19.7c-0.1,-0.1 -0.1,-0.2 -0.1,-0.3l-7.6,-58.2c0,-0.3 0.1,-0.5 0.3,-0.7c0.1,-0.1 13.6,-10.4 5,-42c-0.1,-0.3 0,-0.6 0.2,-0.7c0.2,-0.2 0.5,-0.3 0.8,-0.2c0.2,0.1 24.6,8.1 54.1,0.3c0.4,-0.1 0.8,0.1 0.9,0.4c0.6,1.4 14.2,35.1 13.9,51.3c-0.3,14.4 -10.3,18.3 -13.2,19.1l6.4,31c0,0.1 0,0.3 0,0.4c-0.1,0.3 -6.8,19.5 -26,19.5zm-33.4,-20.5c0.9,1.5 10.7,16.8 30.4,18.8s26.7,-15.9 27.4,-18.1l-6.5,-31.5c0,-0.2 0,-0.4 0.1,-0.6c0.1,-0.2 0.3,-0.3 0.5,-0.3c0.5,-0.1 12.4,-2.4 12.7,-17.8c0.3,-14.8 -11.7,-45.4 -13.5,-50.1c-17.4,4.5 -35.6,4.5 -53,0c7.6,29.2 -3.3,40.1 -5.5,42l7.4,57.6z" class="st1_checklist-71"/>
   <path id="svg_6" fill="#FFFFFF" d="m182.3,131c-1.1,-2.7 -3,-5 -5.5,-6.6c-2.4,-1.3 -5,-2.2 -7.7,-2.7c-1.4,-0.4 -3,-0.5 -4.4,-0.2c-1,0.3 -2,0.8 -2.8,1.5c-2.1,1.4 -3.6,3.5 -4.3,5.9c-0.3,2 -0.1,4 0.5,5.9c0.5,2.1 1.3,4.2 2.4,6.1c4.7,7.8 14.8,10.4 22.6,5.7c0.1,0 0.1,-0.1 0.2,-0.1" class="st0_checklist-71"/>
   <path id="svg_7" fill="#231F20" d="m174.6,149.6c-6.1,0 -11.7,-3.2 -14.8,-8.4c-1.1,-2 -2,-4 -2.5,-6.2c-0.7,-2 -0.9,-4.2 -0.5,-6.3c0.7,-2.6 2.3,-4.8 4.6,-6.3c0.9,-0.7 1.9,-1.3 3.1,-1.6c1.6,-0.3 3.2,-0.2 4.8,0.2c2.8,0.4 5.5,1.4 8,2.8c2.7,1.6 4.7,4.1 5.9,7c0.1,0.4 0,0.8 -0.4,1c-0.4,0.1 -0.8,0 -1,-0.4c-1,-2.6 -2.9,-4.8 -5.2,-6.2c-2.3,-1.3 -4.9,-2.1 -7.5,-2.6c-1.3,-0.4 -2.7,-0.4 -4.1,-0.2c-0.9,0.3 -1.8,0.7 -2.5,1.3c-1.9,1.3 -3.3,3.2 -4,5.4c-0.3,1.9 -0.1,3.8 0.5,5.6c0.5,2.1 1.3,4 2.4,5.9c4.4,7.5 14.1,9.9 21.6,5.5c0.1,0 0.1,-0.1 0.2,-0.1c0.3,-0.2 0.8,-0.1 1,0.2c0.2,0.3 0.1,0.8 -0.2,1c-3.1,1.6 -6.2,2.4 -9.4,2.4z" class="st1_checklist-71"/>
   <path id="svg_8" fill="#231F20" d="m233.2,176.5c0,0 -11.8,3.5 -22,-4s-10.2,-12.8 -10.2,-12.8s15.7,6.1 28.9,1.5l3.3,15.3z" class="st1_checklist-71"/>
   <path id="svg_9" fill="#231F20" d="m226.5,178.1c-5.7,0.1 -11.2,-1.7 -15.8,-5c-10.4,-7.7 -10.5,-13.1 -10.5,-13.4c0,-0.2 0.1,-0.5 0.3,-0.6c0.2,-0.1 0.5,-0.2 0.7,-0.1c0.2,0.1 15.6,5.9 28.4,1.5c0.2,-0.1 0.4,0 0.6,0.1c0.2,0.1 0.3,0.3 0.4,0.5l3.3,15.2c0.1,0.4 -0.1,0.8 -0.5,0.9c-2.3,0.6 -4.6,0.9 -6.9,0.9zm-24.5,-17.2c0.6,1.9 2.6,5.8 9.6,11c8.4,6.2 18.1,4.7 20.7,4.1l-3,-13.7c-11,3.4 -23.4,-0.1 -27.3,-1.4z" class="st1_checklist-71"/>
   <path id="svg_10" fill="#FFFFFF" d="m211.7,113.3c0,0 13.5,14.2 11.4,17.4c-2.1,3.2 -9.5,2.6 -9.5,2.6" class="st0_checklist-71"/>
   <path id="svg_11" fill="#231F20" d="m215,134.1c-0.9,0 -1.4,-0.1 -1.5,-0.1c-0.4,0 -0.7,-0.4 -0.7,-0.8s0.4,-0.7 0.8,-0.7c1.9,0.2 7.3,0.1 8.8,-2.2c1.1,-1.7 -5,-9.9 -11.3,-16.5c-0.3,-0.3 -0.3,-0.8 0,-1.1c0.3,-0.3 0.8,-0.3 1.1,0c3.3,3.4 13.7,14.9 11.5,18.3c-1.7,2.7 -6.3,3.1 -8.7,3.1z" class="st1_checklist-71"/>
   <ellipse id="svg_12" fill="#231F20" ry="3.8" rx="2.7" cy="116" cx="193.4" class="st1_checklist-71" transform="matrix(0.9277 -0.3733 0.3733 0.9277 -29.3062 80.5707)"/>
   <ellipse id="svg_13" fill="#231F20" ry="3.8" rx="2.7" cy="111.4" cx="221.3" class="st1_checklist-71" transform="matrix(0.9277 -0.3733 0.3733 0.9277 -25.5794 90.684)"/>
   <path id="svg_14" fill="#231F20" d="m213.6,152.8c-5.2,0 -10,-3.1 -14,-8.9c-2.3,-3.4 -4.1,-7 -5.4,-10.9c-0.1,-0.4 0.1,-0.8 0.5,-0.9c0.4,-0.1 0.8,0.1 0.9,0.5c1.2,3.7 3,7.2 5.1,10.4c4.5,6.5 10,9.3 15.7,7.9c13.8,-3.3 13.6,-19.7 13.6,-19.9c0,-0.4 0.3,-0.8 0.7,-0.8c0,0 0,0 0,0c0.4,0 0.7,0.3 0.8,0.7c0,0.2 0.3,17.7 -14.7,21.4c-1,0.4 -2.1,0.5 -3.2,0.5z" class="st1_checklist-71"/>
   <path id="svg_15" fill="#FFFFFF" d="m135.4,267.7l-25.4,60.4l56.6,-48.9l36.1,12.2c0,0 -8.1,53.8 -57.3,99.1s-100.1,36.7 -103,-5.8s27,-124.9 27,-124.9" class="st0_checklist-71"/>
   <path id="svg_16" fill="#231F20" d="m81.4,421.6c-5.8,0.1 -11.6,-1 -17,-3.1c-13.6,-5.4 -21.7,-17.4 -22.8,-33.7c-2.9,-42.2 26.8,-124.4 27.1,-125.2c0.1,-0.4 0.6,-0.6 1,-0.5c0,0 0,0 0,0c0.4,0.1 0.6,0.6 0.5,0.9c0,0 0,0 0,0.1c-0.3,0.8 -29.8,82.7 -27,124.6c1.1,15.7 8.8,27.2 21.8,32.4c21.7,8.6 52.3,-1.8 79.9,-27.1c45.6,-42.1 55.9,-92 57,-98.1l-35,-11.9l-56.3,48.6c-0.3,0.3 -0.8,0.2 -1.1,-0.1c-0.2,-0.2 -0.2,-0.5 -0.1,-0.8l25.4,-60.3c0.2,-0.4 0.6,-0.6 1,-0.4c0,0 0,0 0,0c0.4,0.2 0.6,0.6 0.4,1c0,0 0,0 0,0l-24.3,57.4l54.2,-46.8c0.2,-0.2 0.5,-0.2 0.7,-0.1l36.1,12.2c0.3,0.1 0.6,0.5 0.5,0.8c-0.1,0.5 -8.6,54.5 -57.5,99.6c-21.4,19.7 -44.7,30.5 -64.5,30.5z" class="st1_checklist-71"/>
   <polygon id="svg_17" fill="#231F20" points="181.1,191.2 245.5,242.3 247.3,245.4 255.8,260.3 239.4,255.3 236,254.3 171.6,203.1 	" class="st1_checklist-71"/>
   <path id="svg_18" fill="#231F20" d="m255.8,261l-0.2,0l-19.8,-6c-0.1,0 -0.2,-0.1 -0.2,-0.1l-64.4,-51.2c-0.2,-0.1 -0.2,-0.3 -0.3,-0.5c0,-0.2 0,-0.4 0.1,-0.6l9.5,-11.9c0.3,-0.3 0.7,-0.3 1,-0.1l64.4,51.2c0.1,0.1 0.1,0.1 0.2,0.2l10.3,17.9c0.2,0.4 0.1,0.8 -0.3,1c0,0.1 -0.1,0.1 -0.3,0.1l0,0zm-19.4,-7.4l17.8,5.4l-9.2,-16.2l-63.7,-50.6l-8.6,10.8l63.7,50.6z" class="st1_checklist-71"/>
   <polygon id="svg_19" fill="#68E1FD" points="247.3,245.4 255.8,260.3 239.4,255.3 	" class="st2_checklist-71 targetColor"/>
   <path id="svg_20" fill="#231F20" d="m255.8,261l-0.2,0l-16.4,-5c-0.4,-0.1 -0.6,-0.5 -0.5,-0.9c0,-0.1 0.1,-0.2 0.1,-0.3l7.9,-9.9c0.2,-0.2 0.4,-0.3 0.6,-0.3c0.2,0 0.5,0.2 0.6,0.4l8.6,14.9c0.2,0.4 0.1,0.8 -0.3,1c-0.1,0.1 -0.2,0.1 -0.4,0.1zm-15.1,-6.1l13.6,4.1l-7.1,-12.3l-6.5,8.2z" class="st1_checklist-71"/>
   <path id="svg_21" fill="#231F20" d="m156.1,190l8.8,-11.1c0.8,-1 2.2,-1.2 3.2,-0.4l0,0l31.8,25.2l0,0l-11.7,14.7l0,0l-31.8,-25.2c-0.9,-0.7 -1.1,-2.2 -0.3,-3.2l0,0z" class="st1_checklist-71"/>
   <path id="svg_22" fill="#231F20" d="m188.2,219.3c-0.2,0 -0.3,-0.1 -0.5,-0.2l-31.7,-25.2c-1.3,-1 -1.6,-2.9 -0.5,-4.2c0,0 0,0 0.1,-0.1l8.8,-11.1c1.1,-1.3 3,-1.5 4.3,-0.5l31.8,25.2c0.3,0.3 0.4,0.7 0.1,1.1c0,0 0,0 0,0l-11.8,14.7c-0.1,0.2 -0.3,0.3 -0.6,0.3l0,0zm-21.5,-40.5l-0.2,0c-0.4,0.1 -0.8,0.3 -1,0.6l-8.8,11.1l0,0c-0.3,0.3 -0.4,0.7 -0.3,1.1c0.1,0.4 0.3,0.8 0.6,1l31.2,24.8l10.7,-13.4l-31.2,-24.8c-0.3,-0.2 -0.6,-0.3 -1,-0.4zm-10.6,11.3l0,0z" class="st1_checklist-71"/>
   <path id="svg_23" fill="#231F20" d="m175.9,216.4c-0.2,0 -0.3,-0.1 -0.5,-0.2c-0.1,-0.1 -15.9,-12.5 -18,-14.5c-2.6,-2.4 -1.5,-7.3 -1.4,-7.9c0.1,-0.4 0.5,-0.6 0.9,-0.6c0.4,0.1 0.6,0.5 0.5,0.9c0,0 -1.1,4.5 0.9,6.4c1.9,1.7 15.9,12.8 17.9,14.4c0.3,0.3 0.4,0.7 0.1,1.1c0.1,0.2 -0.1,0.3 -0.4,0.4l0,0z" class="st1_checklist-71"/>
   <path id="svg_24" fill="#FFFFFF" d="m201.8,295.9c0.8,-3.4 2.2,-10.4 2.2,-10.4s14.1,1.1 17.1,-3.2s11.9,-35.1 8.9,-40.4s-14.3,-12.5 -17.8,-13.9s-17.3,1.4 -17.3,1.4l10.9,-11c0,0 17.8,10.5 25.8,9.8s10.3,-3.6 6.2,-8.4s-34,-18.2 -39,-17.6s-27.1,21.4 -27.6,24.4s-17.5,60.6 -13.9,67" class="st0_checklist-71"/>
   <path id="svg_25" fill="#231F20" d="m201.8,296.6l-0.2,0c-0.4,-0.1 -0.6,-0.5 -0.5,-0.9c0.8,-3.3 2.2,-10.3 2.2,-10.4c0.1,-0.4 0.4,-0.6 0.8,-0.6c3.8,0.3 14.2,0.4 16.4,-2.9c1.4,-2.1 4.4,-10.9 6.6,-19.6c2.6,-10.3 3.5,-17.9 2.3,-20c-2.9,-5.1 -14.3,-12.3 -17.4,-13.6c-2.6,-1.1 -13.1,0.6 -16.9,1.4c-0.4,0.1 -0.8,-0.2 -0.9,-0.6c0,-0.2 0,-0.5 0.2,-0.7l10.9,-11c0.2,-0.2 0.6,-0.3 0.9,-0.1c0.2,0.1 17.7,10.4 25.3,9.7c4.1,-0.4 6.7,-1.4 7.3,-2.8s-0.6,-3.1 -1.7,-4.4c-3.9,-4.5 -33.6,-17.9 -38.3,-17.3s-26.5,20.9 -27,23.8c-0.1,0.6 -0.7,3 -2,7.8c-4,14.8 -14.7,53.9 -11.9,58.7c0.2,0.4 0.1,0.8 -0.3,1c-0.4,0.2 -0.8,0.1 -1,-0.3l0,0c-2.7,-4.7 4.4,-32.9 11.8,-59.9c1.1,-3.9 1.9,-7.1 2,-7.6c0.5,-3.5 23,-24.3 28.2,-25s35.3,12.8 39.7,17.8c1.9,2.3 2.6,4.3 1.9,5.9c-0.9,2.1 -3.7,3.3 -8.6,3.8c-7.4,0.6 -22.7,-7.9 -25.7,-9.6l-8.8,8.8c4.2,-0.7 12.6,-2 15.4,-0.9c3.4,1.4 15.1,8.8 18.2,14.2c1.9,3.3 -0.5,14.6 -2.1,21.1c-2.2,9 -5.2,17.8 -6.8,20.1c-2.8,4.1 -14,3.8 -17.1,3.6c-0.4,1.8 -1.4,7.1 -2.1,9.8c-0.1,0.5 -0.4,0.7 -0.8,0.7z" class="st1_checklist-71"/>
   <path id="svg_26" fill="#FFFFFF" d="m190.4,243c0,0 18.7,-3.2 22.8,-2s16,13.9 16,13.9" class="st0_checklist-71"/>
   <path id="svg_27" fill="#231F20" d="m229.1,255.6c-0.2,0 -0.4,-0.1 -0.6,-0.2c-3.2,-3.5 -12.4,-12.8 -15.6,-13.7s-17.3,1.2 -22.5,2.1c-0.4,0.1 -0.8,-0.2 -0.9,-0.6c-0.1,-0.4 0.2,-0.8 0.6,-0.9c0.8,-0.1 18.9,-3.2 23.1,-2s15.8,13.6 16.3,14.1c0.3,0.3 0.3,0.8 0,1.1c0,0.1 -0.2,0.2 -0.4,0.1l0,0z" class="st1_checklist-71"/>
   <path id="svg_28" fill="#FFFFFF" d="m204,285.5c0,0 2.8,-8.9 2.1,-15.2" class="st0_checklist-71"/>
   <path id="svg_29" fill="#231F20" d="m204,286.2c-0.1,0 -0.1,0 -0.2,0c-0.4,-0.1 -0.6,-0.5 -0.5,-0.9c0,-0.1 2.7,-8.8 2.1,-15c0,-0.4 0.2,-0.8 0.7,-0.8c0,0 0,0 0,0c0.4,0 0.8,0.2 0.8,0.7c0.7,6.5 -2,15.2 -2.1,15.6c-0.2,0.2 -0.5,0.4 -0.8,0.4z" class="st1_checklist-71"/>
   <path id="svg_30" fill="#FFFFFF" d="m193.8,270c0.9,-0.2 16.6,0.2 17.6,0" class="st0_checklist-71"/>
   <path id="svg_31" fill="#231F20" d="m209.1,270.8c-1.4,0 -3.6,0 -6.5,-0.1c-3.6,0 -8.1,-0.1 -8.6,0c-0.4,0.1 -0.8,-0.2 -0.9,-0.6c-0.1,-0.4 0.2,-0.8 0.5,-0.9c0.5,-0.1 3.1,-0.1 9,0c3.6,0 8.1,0.1 8.6,0c0.4,-0.1 0.8,0.2 0.9,0.6c0.1,0.4 -0.1,0.8 -0.5,0.9c0,0 0,0 0,0c-0.9,0.1 -1.7,0.1 -2.5,0.1z" class="st1_checklist-71"/>
   <path id="svg_32" fill="#FFFFFF" d="m187.4,255.6c0,0 13.5,-3 19.8,-1.6s17.4,14.5 18.6,15.7" class="st0_checklist-71"/>
   <path id="svg_33" fill="#231F20" d="m225.8,270.4c-0.2,0 -0.4,-0.1 -0.5,-0.2c-0.2,-0.2 -0.5,-0.5 -0.9,-1c-3,-3.3 -11.9,-13.3 -17.3,-14.4c-6.1,-1.3 -19.4,1.6 -19.5,1.6c-0.4,0.1 -0.8,-0.1 -0.9,-0.5c-0.1,-0.4 0.1,-0.8 0.5,-0.9c0,0 0.1,0 0.1,0c0.6,-0.1 13.7,-3 20.2,-1.6c5.2,1.1 12.8,9 18.1,14.9c0.4,0.5 0.7,0.8 0.9,1c0.3,0.3 0.3,0.8 0,1.1c-0.3,0 -0.5,0 -0.7,0z" class="st1_checklist-71"/>
   <line id="svg_34" fill="none" y2="349.3" x2="82.3" y1="328.1" x1="110" class="st3_checklist-71"/>
   <path id="svg_35" fill="#231F20" d="m82.3,350c-0.4,0 -0.7,-0.3 -0.7,-0.8c0,-0.2 0.1,-0.4 0.3,-0.6l27.7,-21.2c0.3,-0.2 0.8,-0.2 1,0.1c0.3,0.3 0.2,0.8 -0.1,1c0,0 0,0 0,0l-27.6,21.2c-0.3,0.3 -0.4,0.3 -0.6,0.3z" class="st1_checklist-71"/>
   <path id="svg_36" fill="#231F20" d="m157.7,118.5c-0.3,0 -0.6,-0.2 -0.7,-0.6c-2.5,-10.6 -5,-21.3 -7.2,-31.7l-0.2,-1.1c-1,-4.5 -2.1,-9.6 -1.8,-14.3c0.3,-5.7 4.8,-6.1 7.6,-6c0.7,-4.9 3.3,-9.3 7.4,-12.1c10.4,-7.2 21.4,-4 32,-0.9c6.9,2 14,4.1 20.6,3.1c4.4,-0.6 8.5,-2.7 12.5,-4.7l0.1,0c1.4,-0.7 2.9,-1.4 4.3,-2.1c2.9,-1.3 17.3,-7.3 21.2,0.6c1.2,2.4 0.3,4.9 -0.8,7c-1.4,2.9 -3,5.7 -4.8,8.4c0.9,-0.5 1.9,-0.9 2.9,-1.3c3.9,-1.7 8.3,-1.8 12.3,-0.3c1.7,0.7 3.2,1.8 4.2,3.4c2,3.2 1.2,7.4 -2.4,12.4c-2,2.8 -4.1,5.6 -6.4,8.2c2.8,-1.7 5.9,-3.2 9.3,-2.3c1.6,0.3 2.9,1.4 3.7,2.8c1.4,2.9 -0.9,5.9 -1.7,6.9c-6,7.9 -13.7,14.4 -22.4,19.2c-0.4,0.2 -0.8,0.1 -1,-0.3s-0.1,-0.8 0.3,-1c0,0 0,0 0.1,0c8.5,-4.6 16,-11 21.9,-18.8c0.6,-0.8 2.5,-3.3 1.5,-5.4c-0.6,-1 -1.5,-1.8 -2.7,-2c-3.4,-0.9 -6.5,1.1 -9.5,3c-1,0.6 -1.9,1.2 -2.9,1.8c-0.4,0.2 -0.8,0 -1,-0.3c-0.1,-0.3 -0.1,-0.6 0.1,-0.8c3.5,-3.7 6.7,-7.6 9.6,-11.8c3.1,-4.5 3.9,-8.1 2.3,-10.7c-0.8,-1.3 -2.1,-2.2 -3.5,-2.8c-3.2,-1.3 -7.2,-1.2 -11.2,0.3c-1.9,0.8 -3.8,1.7 -5.5,2.9c-0.3,0.2 -0.7,0.2 -1,-0.1c-0.2,-0.3 -0.3,-0.7 -0.1,-0.9c2.4,-3.5 4.6,-7.2 6.5,-11c0.9,-1.8 1.6,-3.9 0.8,-5.7c-3.4,-6.8 -17.6,-0.6 -19.3,0.1c-1.4,0.6 -2.9,1.3 -4.2,2l-0.1,0c-4.1,2 -8.4,4.2 -13,4.8c-6.9,1 -14.2,-1.1 -21.2,-3.1c-10.3,-3 -21,-6.1 -30.8,0.7c-3.9,2.7 -6.4,7 -6.8,11.7c-0.1,0.4 -0.4,0.7 -0.8,0.7c-3.4,-0.1 -6.4,0.2 -6.7,4.6s0.9,9.6 1.9,14l0.2,1.1c2.3,10.5 4.7,21.1 7.2,31.7c0.1,0.4 -0.1,0.8 -0.5,0.9c0,0 0,0 0,0c-0.2,-0.2 -0.2,-0.2 -0.3,-0.2z" class="st1_checklist-71"/>
   <path id="svg_37" fill="#FFFFFF" d="m163.2,197.4c-0.4,0 -0.8,-0.4 -0.7,-0.8c0,-0.2 0.1,-0.3 0.2,-0.5l10.1,-12.2c0.3,-0.3 0.8,-0.4 1.1,-0.1s0.4,0.8 0.1,1.1l0,0l-10.1,12.2c-0.2,0.2 -0.4,0.3 -0.7,0.3z" class="st0_checklist-71"/>
   <line id="svg_38" fill="none" y2="261.5" x2="257.5" y1="259.8" x1="255.4" class="st3_checklist-71"/>
   <path id="svg_39" fill="#231F20" d="m257.5,262.2c-0.2,0 -0.3,-0.1 -0.5,-0.2l-2.1,-1.6c-0.3,-0.2 -0.4,-0.7 -0.2,-1c0.2,-0.3 0.7,-0.4 1,-0.2c0,0 0.1,0 0.1,0.1l2.1,1.6c0.3,0.3 0.4,0.7 0.1,1.1c0,0.1 -0.2,0.2 -0.5,0.2l0,0z" class="st1_checklist-71"/>
  </g>
  <g id="Checklist_checklist-71">
   <path id="svg_40" fill="#231F20" d="m271.9,110.3l175.3,0c2.9,0 5.2,2.3 5.2,5.2l0,229.9c0,2.9 -2.3,5.2 -5.2,5.2l-175.3,0c-2.9,0 -5.2,-2.3 -5.2,-5.2l0,-229.9c0,-2.9 2.4,-5.2 5.2,-5.2z" class="st1_checklist-71"/>
   <rect id="svg_41" fill="#FFFFFF" height="210.8" width="162.9" class="st0_checklist-71" y="125" x="278.1"/>
   <path id="svg_42" fill="#231F20" d="m441.1,336.6l-163,0c-0.4,0 -0.8,-0.3 -0.8,-0.8l0,-210.8c0,-0.4 0.3,-0.7 0.7,-0.8c0,0 0,0 0,0l162.9,0c0.4,0 0.7,0.3 0.8,0.7c0,0 0,0 0,0l0,210.9c0.1,0.5 -0.2,0.8 -0.6,0.8zm-162.2,-1.5l161.4,0l0,-209.3l-161.4,0l0,209.3z" class="st1_checklist-71"/>
   <path id="svg_43" fill="#b45309" d="m402.2,101.8l-23.4,0c-2.1,-10.6 -12.3,-17.5 -22.9,-15.4c-7.8,1.5 -13.9,7.6 -15.4,15.4l-23.5,0c-3.1,0 -5.6,2.5 -5.6,5.6c0,0 0,0 0,0l0,19.6c0,3.1 2.5,5.6 5.6,5.6l85.2,0c3.1,0 5.6,-2.5 5.6,-5.6l0,-19.6c0,-3.1 -2.5,-5.6 -5.6,-5.6zm-42.6,2.6c-2.8,0 -5,-2.2 -5,-5s2.2,-5 5,-5s5,2.2 5,5c0,2.7 -2.2,5 -5,5l0,0z" class="st2_checklist-71 targetColor"/>
   <path id="svg_44" fill="#231F20" d="m340.9,193.4l-39.4,0c-0.8,0 -1.5,-0.7 -1.5,-1.5l0,-42.1c0,-0.8 0.7,-1.5 1.5,-1.5l39.4,0c0.8,0 1.5,0.7 1.5,1.5l0,42.1c0,0.8 -0.7,1.5 -1.5,1.5zm-39.4,-43.6l0,42.1l39.4,0l0,-42l-39.4,-0.1z" class="st1_checklist-71"/>
   <path id="svg_45" fill="#68E1FD" d="m350.1,160.1c-0.2,0.4 -0.4,0.7 -0.7,1c-8.5,8.5 -16.9,16.9 -25.4,25.4c-0.4,0.7 -1.3,0.9 -2,0.5c-0.2,-0.1 -0.3,-0.3 -0.5,-0.5l-14.3,-14.8c-0.6,-0.5 -0.7,-1.4 -0.3,-2c0.1,-0.1 0.2,-0.2 0.3,-0.3l3.6,-3.2c0.5,-0.6 1.3,-0.7 1.9,-0.2c0.1,0.1 0.2,0.1 0.2,0.2l8.5,8.6c0.9,0.9 1.5,0.9 2.4,0l19.8,-19.7c0.4,-0.7 1.3,-0.8 2,-0.4c0.2,0.1 0.3,0.2 0.4,0.4c1.1,1.1 2.2,2.2 3.3,3.4c0.2,0.3 0.5,0.6 0.7,0.9l0.1,0.7z" class="st2_checklist-71 targetColor"/>
   <path id="svg_46" fill="#231F20" d="m340.9,250.8l-39.4,0c-0.8,0 -1.5,-0.7 -1.5,-1.5c0,0 0,0 0,0l0,-42.1c0,-0.8 0.7,-1.5 1.5,-1.5l39.4,0c0.8,0 1.5,0.7 1.5,1.5l0,42.1c0,0.8 -0.7,1.5 -1.5,1.5zm-39.4,-43.6l0,42.1l39.4,0l0,-42.1l-39.4,0z" class="st1_checklist-71"/>
   <path id="svg_47" fill="#68E1FD" d="m350.1,217.5c-0.2,0.4 -0.4,0.7 -0.7,1c-8.5,8.5 -16.9,16.9 -25.4,25.4c-0.4,0.7 -1.3,0.9 -2,0.5c-0.2,-0.1 -0.3,-0.3 -0.5,-0.5l-14.3,-14.8c-0.6,-0.5 -0.7,-1.4 -0.3,-2c0.1,-0.1 0.2,-0.2 0.3,-0.3l3.6,-3.2c0.5,-0.6 1.3,-0.7 1.9,-0.2c0.1,0.1 0.2,0.1 0.2,0.2l8.5,8.6c0.9,0.9 1.5,0.9 2.4,0l19.8,-19.7c0.4,-0.7 1.3,-0.8 2,-0.4c0.2,0.1 0.3,0.2 0.4,0.4c1.1,1.1 2.2,2.2 3.3,3.4c0.2,0.3 0.5,0.6 0.7,0.9l0.1,0.7z" class="st2_checklist-71 targetColor"/>
   <path id="svg_48" fill="#231F20" d="m340.9,308.2l-39.4,0c-0.8,0 -1.5,-0.7 -1.5,-1.5l0,-42c0,-0.8 0.7,-1.5 1.5,-1.5l39.4,0c0.8,0 1.5,0.7 1.5,1.5l0,42c0,0.9 -0.7,1.5 -1.5,1.5zm-39.4,-43.5l0,42.1l39.4,0l0,-42l-39.4,-0.1z" class="st1_checklist-71"/>
   <path id="svg_49" fill="#231F20" d="m421.4,165l-58,0c-0.4,0 -0.8,-0.3 -0.8,-0.8s0.3,-0.8 0.8,-0.8l58,0c0.4,0 0.8,0.3 0.8,0.8s-0.4,0.8 -0.8,0.8z" class="st1_checklist-71"/>
   <path id="svg_50" fill="#231F20" d="m406.3,178.2l-43,0c-0.4,0 -0.8,-0.3 -0.8,-0.8s0.3,-0.8 0.8,-0.8l43,0c0.4,0 0.8,0.3 0.8,0.8s-0.4,0.8 -0.8,0.8z" class="st1_checklist-71"/>
   <path id="svg_51" fill="#231F20" d="m421.4,222.3l-58,0c-0.4,0 -0.8,-0.3 -0.8,-0.8s0.3,-0.8 0.8,-0.8l58,0c0.4,0 0.8,0.3 0.8,0.8s-0.4,0.8 -0.8,0.8z" class="st1_checklist-71"/>
   <path id="svg_52" fill="#231F20" d="m406.3,235.5l-43,0c-0.4,0 -0.8,-0.3 -0.8,-0.8s0.3,-0.8 0.8,-0.8l43,0c0.4,0 0.8,0.3 0.8,0.8s-0.4,0.8 -0.8,0.8z" class="st1_checklist-71"/>
   <path id="svg_53" fill="#231F20" d="m421.4,279.8l-58,0c-0.4,0 -0.8,-0.3 -0.8,-0.8s0.3,-0.8 0.8,-0.8l58,0c0.4,0 0.8,0.3 0.8,0.8s-0.4,0.8 -0.8,0.8z" class="st1_checklist-71"/>
   <path id="svg_54" fill="#231F20" d="m406.3,293l-43,0c-0.4,0 -0.8,-0.3 -0.8,-0.8s0.3,-0.8 0.8,-0.8l43,0c0.4,0 0.8,0.3 0.8,0.8s-0.4,0.8 -0.8,0.8z" class="st1_checklist-71"/>
  </g>
  <path fill="#FFFFFF" d="m415.6,350c0.4,-2.6 0.6,-5.3 0.8,-7.9c0.4,-5.3 -0.9,-11.2 -2.5,-16.1c-0.7,-2.2 -1.7,-4.5 -3.6,-6s-5,-1.5 -6.3,0.5c-1.2,1.7 -0.7,4 -0.2,6c1.2,5.5 1.5,11.1 0.8,16.7c-0.9,-7.5 -1.9,-15.3 -6,-21.7c-0.9,-1.5 -2.1,-2.7 -3.5,-3.6c-1.5,-0.9 -3.4,-0.8 -4.8,0.1c-2.1,1.5 -1.9,4.6 -1.7,7.2c0.7,6.6 0.6,13.3 -0.3,19.9c0.5,-5.8 0.1,-11.6 -1.2,-17.3c-0.9,-3.7 -2.5,-7.8 -6.1,-9c-0.8,-0.3 -1.6,-0.3 -2.5,-0.2c-1.7,0.6 -2.9,2 -3.2,3.7c-0.3,1.7 -0.3,3.4 0,5.1c0.7,6.7 0.5,13.4 -0.6,20c0.8,-5.8 0.6,-11.7 -0.6,-17.4c-0.3,-2.3 -1.2,-4.5 -2.6,-6.3c-1.5,-1.7 -4.1,-2.8 -6.2,-1.8c-1.6,0.9 -2.7,2.4 -3,4.2c-0.3,1.8 -0.3,3.6 -0.2,5.3c0.2,6.7 -1.1,13.4 -3.7,19.7c-2.1,5.2 -4.9,10.9 -4.4,16.7c0.5,6 5.3,11.2 10.9,13.4s12,2 17.9,0.9c19.5,-3.9 35.7,-13.2 42.6,-31.9" class="st0_checklist-71" id="Character_hand_checklist-71"/>
  <path fill="#231F20" d="m374.4,383.8c-3.4,0.1 -6.8,-0.5 -10,-1.8c-6.3,-2.5 -10.9,-8.1 -11.4,-14c-0.5,-5.4 1.8,-10.7 3.8,-15.4l0.7,-1.7c2.5,-6.1 3.8,-12.7 3.6,-19.4l0,-0.8c-0.1,-1.6 0,-3.1 0.2,-4.7c0.3,-2 1.6,-3.8 3.4,-4.7c2.5,-1.1 5.5,0.1 7.1,2c1.5,1.9 2.4,4.1 2.8,6.5c-0.1,-0.7 -0.1,-1.5 -0.2,-2.2l0,-0.4c-0.3,-1.6 -0.3,-3.3 0,-4.9c0.3,-2 1.8,-3.7 3.7,-4.3c0.9,-0.2 1.9,-0.2 2.9,0.2c3.2,1 5.4,4.2 6.6,9.5c0.1,0.6 0.3,1.3 0.4,1.9c-0.1,-1.4 -0.2,-2.8 -0.3,-4.2c-0.3,-2.9 -0.4,-6.2 2,-7.9c1.7,-1.1 3.9,-1.2 5.6,-0.1c1.6,0.9 2.9,2.3 3.8,3.9c2.5,4.1 4.1,8.7 4.8,13.5c-0.1,-2.7 -0.5,-5.4 -1.1,-8c-0.5,-2.1 -1,-4.7 0.4,-6.6c0.7,-0.9 1.8,-1.6 2.9,-1.7c1.6,-0.2 3.2,0.1 4.5,1.1c2.1,1.5 3.1,4.1 3.9,6.3c2.1,6.3 2.9,11.8 2.6,16.4c-0.1,0.8 -0.1,1.5 -0.1,2.2c-0.1,1.9 -0.3,3.9 -0.6,5.8c-0.1,0.4 -0.5,0.7 -0.9,0.6c-0.4,-0.1 -0.7,-0.5 -0.6,-0.9c0,0 0,0 0,0c0.3,-1.9 0.5,-3.7 0.6,-5.6c0,-0.7 0.1,-1.4 0.1,-2.2c0.3,-4.4 -0.5,-9.7 -2.5,-15.9c-0.7,-2 -1.6,-4.3 -3.3,-5.6c-1,-0.7 -2.2,-1 -3.4,-0.8c-0.8,0.1 -1.5,0.5 -1.9,1.1c-1,1.4 -0.5,3.5 -0.1,5.4c1.3,5.6 1.5,11.3 0.8,17c0,0.4 -0.4,0.7 -0.8,0.7l0,0c-0.4,0 -0.7,-0.3 -0.7,-0.7c-0.8,-7 -1.8,-15 -5.9,-21.3c-0.8,-1.4 -1.9,-2.5 -3.3,-3.4c-1.3,-0.7 -2.8,-0.7 -4,0c-1.7,1.3 -1.6,4 -1.4,6.5c0.7,6.7 0.6,13.4 -0.3,20.1c-0.1,0.4 -0.4,0.7 -0.9,0.6c-0.4,-0.1 -0.7,-0.4 -0.6,-0.8c0.5,-5.7 0,-11.4 -1.3,-17c-1.1,-4.7 -3,-7.6 -5.6,-8.4c-0.6,-0.2 -1.3,-0.3 -2,-0.1c-1.4,0.5 -2.4,1.7 -2.6,3.2c-0.2,1.5 -0.2,3 0,4.5l0,0.4c0.7,6.7 0.5,13.5 -0.6,20.2c-0.1,0.4 -0.5,0.7 -0.9,0.6c-0.4,-0.1 -0.6,-0.4 -0.6,-0.8c0.8,-5.7 0.6,-11.5 -0.6,-17.1c-0.3,-2.2 -1.2,-4.2 -2.5,-6c-1.2,-1.4 -3.5,-2.4 -5.3,-1.6c-1.4,0.7 -2.3,2.1 -2.6,3.7c-0.2,1.4 -0.3,2.9 -0.2,4.3l0,0.8c0.2,6.9 -1.1,13.7 -3.7,20c-0.2,0.5 -0.5,1.1 -0.7,1.7c-2,4.8 -4.1,9.7 -3.6,14.7c0.5,5.3 4.6,10.5 10.4,12.8c4.8,1.9 10.6,2.2 17.5,0.8c21.8,-4.3 36,-14.9 42.1,-31.4c0.1,-0.4 0.5,-0.6 0.9,-0.5c0.4,0.1 0.6,0.5 0.5,0.9c0,0 0,0.1 0,0.1c-6.3,17 -20.8,27.9 -43.2,32.4c-2.7,0.2 -5.5,0.5 -8.3,0.5z" class="st1_checklist-71" id="hand_checklist-71"/>
 </g>
</svg>