<svg width="500" height="500" xmlns="http://www.w3.org/2000/svg" class="illustrations_image" imageName="Order Confirmed 1" data-imageid="order-confirmed-1-76" xml:space="preserve" version="1.1">

 <g>
  <title>Layer 1</title>
  <g id="box_order-confirmed-1-76">
   <path id="svg_1" fill="#b45309" d="m92.8,126.4l298.7,0c5,0 9.1,4.1 9.1,9.1l0,18.9c0,5 -4.1,9.1 -9.1,9.1l-298.7,0c-5,0 -9.1,-4.1 -9.1,-9.1l0,-18.9c0,-5 4.1,-9.1 9.1,-9.1z" class="st0_order-confirmed-1-76 targetColor"/>
   <path id="svg_2" fill="#093F68" d="m388,165.3l-293.6,0c-7.4,0 -13.5,-6 -13.5,-13.5l0,-13.8c0,-7.4 6,-13.5 13.5,-13.5l293.6,0c7.4,0 13.5,6 13.5,13.5l0,13.8c0,7.5 -6,13.5 -13.5,13.5c0,0 0,0 0,0zm-293.6,-37.1c-5.4,0 -9.8,4.4 -9.9,9.8l0,13.8c0,5.4 4.4,9.9 9.9,9.9l293.6,0c5.4,0 9.9,-4.4 9.9,-9.9l0,-13.8c0,-5.4 -4.4,-9.9 -9.9,-9.9l-293.6,0.1z" class="st1_order-confirmed-1-76"/>
   <path id="svg_3" fill="#b45309" d="m99.1,163.5l284.3,0c1.2,0 2.2,1 2.2,2.2l0,0l0,176.6c0,4.7 -3.8,8.6 -8.6,8.6c0,0 0,0 0,0l-271.6,0c-4.7,0 -8.6,-3.8 -8.6,-8.6l0,0l0,-176.6c0.1,-1.2 1,-2.2 2.3,-2.2c-0.1,0 -0.1,0 0,0z" class="st0_order-confirmed-1-76 targetColor"/>
   <path id="svg_4" fill="#093F68" d="m374,352.7l-265.7,0c-7.3,0 -13.3,-6 -13.3,-13.3l0,-175.9c0,-1 0.8,-1.8 1.8,-1.8l288.7,0c1,0 1.8,0.8 1.8,1.8l0,175.9c0,7.3 -6,13.3 -13.3,13.3zm-275.3,-187.4l0,174.1c0,5.3 4.3,9.7 9.7,9.7l265.6,0c5.3,0 9.7,-4.3 9.7,-9.7l0,-174.1l-285,0z" class="st1_order-confirmed-1-76"/>
   <polygon id="svg_5" fill="#FFBC0E" points="263.5,126.4 263.5,207.4 256,199.5 248.6,207.4 241.2,199.5 233.8,207.4 226.3,199.5 218.9,207.4 
		218.9,126.4 	" class="st2_order-confirmed-1-76"/>
   <path id="svg_6" fill="#093F68" d="m218.9,209.2c-0.2,0 -0.5,0 -0.7,-0.1c-0.7,-0.3 -1.1,-0.9 -1.1,-1.7l0,-81c0,-1 0.8,-1.8 1.8,-1.8l44.6,0c1,0 1.8,0.8 1.8,1.8l0,81c0,1 -0.8,1.8 -1.8,1.8c-0.5,0 -1,-0.2 -1.3,-0.6l-6.2,-6.5l-6.1,6.5c-0.3,0.4 -0.8,0.6 -1.3,0.6l0,0c-0.5,0 -1,-0.2 -1.3,-0.6l-6.1,-6.5l-6.1,6.5c-0.7,0.7 -1.9,0.7 -2.6,0l-6.1,-6.5l-6.1,6.5c-0.4,0.4 -0.9,0.6 -1.4,0.6zm7.4,-11.5c0.5,0 1,0.2 1.3,0.6l6.1,6.5l6.1,-6.5c0.3,-0.4 0.8,-0.6 1.3,-0.6l0,0c0.5,0 1,0.2 1.3,0.6l6.1,6.5l6.1,-6.5c0.7,-0.7 1.9,-0.7 2.6,0l4.3,4.6l0,-74.7l-41,0l0,74.7l4.3,-4.6c0.5,-0.4 1,-0.6 1.5,-0.6l0,0z" class="st1_order-confirmed-1-76"/>
   <path id="svg_7" fill="#093F68" d="m182.7,325.9l-60.8,0c-1,0 -1.8,-0.8 -1.8,-1.8l0,-42.7c0,-1 0.8,-1.8 1.8,-1.8l60.8,0c1,0 1.8,0.8 1.8,1.8c0,0 0,0 0,0l0,42.7c0,1 -0.8,1.8 -1.8,1.8zm-59,-3.6l57.2,0l0,-39.1l-57.2,0l0,39.1z" class="st1_order-confirmed-1-76"/>
   <path id="svg_8" fill="#093F68" d="m181.4,268.9l-58.3,0c-1,0 -1.8,-0.8 -1.8,-1.8c0,-1 0.8,-1.8 1.8,-1.8l58.3,0c1,0 1.8,0.8 1.8,1.8c0,1 -0.8,1.8 -1.8,1.8l0,0z" class="st1_order-confirmed-1-76"/>
  </g>
  <g id="list_order-confirmed-1-76">
   <path id="svg_9" fill="#FFFFFF" d="m410.8,373.6l-134.9,0c-3.6,0 -6.5,-2.9 -6.5,-6.5c0,0 0,0 0,0l0,-128.5l29.6,-35.1l111.8,0c3.6,0 6.5,2.9 6.5,6.5c0,0 0,0 0,0l0,157.1c0,3.6 -2.9,6.5 -6.5,6.5c0,0 0,0 0,0z" class="st3_order-confirmed-1-76"/>
   <path id="svg_10" fill="#093F68" d="m410.8,375.4l-134.9,0c-4.6,0 -8.3,-3.7 -8.3,-8.3l0,-128.5c0,-0.4 0.2,-0.8 0.4,-1.2l29.6,-35.1c0.3,-0.4 0.8,-0.6 1.4,-0.6l111.8,0c4.6,0 8.3,3.7 8.3,8.3l0,157.1c0,4.6 -3.7,8.3 -8.3,8.3zm-139.6,-136.1l0,127.8c0,2.6 2.1,4.7 4.7,4.7l135,0c2.6,0 4.7,-2.1 4.7,-4.7l0,-157c0,-2.6 -2.1,-4.7 -4.7,-4.7l-111,0l-28.7,33.9z" class="st1_order-confirmed-1-76"/>
   <path id="svg_11" fill="#FFFFFF" d="m269.4,238.6l23.1,0c3.6,0 6.5,-2.9 6.5,-6.5c0,0 0,0 0,0l0,-28.6l-29.6,35.1z" class="st3_order-confirmed-1-76"/>
   <path id="svg_12" fill="#093F68" d="m292.5,240.4l-23.1,0c-1,0 -1.8,-0.8 -1.8,-1.8c0,-0.5 0.2,-0.9 0.5,-1.2l29.6,-35.1c0.6,-0.8 1.8,-0.9 2.5,-0.2c0.4,0.3 0.6,0.9 0.6,1.4l0,28.6c0,4.6 -3.7,8.3 -8.3,8.3c0,0 0,0 0,0zm-19.3,-3.6l19.2,0c2.6,0 4.7,-2.1 4.7,-4.7l0,-23.6l-23.9,28.3z" class="st1_order-confirmed-1-76"/>
   <path id="svg_13" fill="#DFEAEF" d="m394.8,322.2l-15.5,0c-1,0 -1.8,-0.8 -1.8,-1.8c0,-1 0.8,-1.8 1.8,-1.8l15.5,0c1,0 1.8,0.8 1.8,1.8c0,1 -0.8,1.8 -1.8,1.8z" class="st4_order-confirmed-1-76"/>
   <path id="svg_14" fill="#DFEAEF" d="m362.5,322.2l-67.5,0c-1,0 -1.8,-0.8 -1.8,-1.8c0,-1 0.8,-1.8 1.8,-1.8l67.5,0c1,0 1.8,0.8 1.8,1.8c0,1 -0.8,1.8 -1.8,1.8z" class="st4_order-confirmed-1-76"/>
   <path id="svg_15" fill="#DFEAEF" d="m394.8,338.1l-57.2,0c-1,0 -1.8,-0.8 -1.8,-1.8c0,-1 0.8,-1.8 1.8,-1.8l57.2,0c1,0 1.8,0.8 1.8,1.8c0,1 -0.8,1.8 -1.8,1.8l0,0z" class="st4_order-confirmed-1-76"/>
   <path id="svg_16" fill="#DFEAEF" d="m322,338.1l-27,0c-1,0 -1.8,-0.8 -1.8,-1.8c0,-1 0.8,-1.8 1.8,-1.8l27,0c1,0 1.8,0.8 1.8,1.8c0,1 -0.8,1.8 -1.8,1.8z" class="st4_order-confirmed-1-76"/>
   <path id="svg_17" fill="#DFEAEF" d="m358.9,354l-63.9,0c-1,0 -1.8,-0.8 -1.8,-1.8c0,-1 0.8,-1.8 1.8,-1.8l63.9,0c1,0 1.8,0.8 1.8,1.8c0,1 -0.8,1.8 -1.8,1.8l0,0z" class="st4_order-confirmed-1-76"/>
  </g>
  <g id="check-mark_order-confirmed-1-76">
   <path id="svg_18" fill="#70CC40" d="m326.8,296.5l-26,-28.6c-2,-2.2 -1.8,-5.6 0.4,-7.6l7.2,-6.6c2.2,-2 5.6,-1.8 7.6,0.4l15.6,17.2l43.1,-40.1c2.2,-2 5.6,-1.9 7.6,0.3l6.6,7.2c2,2.2 1.9,5.6 -0.3,7.6l-54.4,50.6c-2,1.9 -5.4,1.8 -7.4,-0.4c0,0 0,0 0,0z" class="st5_order-confirmed-1-76"/>
   <path id="svg_19" fill="#093F68" d="m330.7,300l-0.3,0c-1.9,-0.1 -3.7,-0.9 -5,-2.3l-26,-28.6c-2.7,-2.9 -2.4,-7.5 0.5,-10.1l7.2,-6.6c2.9,-2.7 7.5,-2.4 10.1,0.5l14.4,15.9l41.8,-38.8c2.9,-2.7 7.5,-2.5 10.2,0.4l6.6,7.1c2.7,2.9 2.5,7.5 -0.4,10.1l-54.4,50.6c-1.2,1.2 -2.9,1.8 -4.7,1.8zm-18.7,-45.9c-0.9,0 -1.8,0.3 -2.4,0.9l-7.2,6.6c-1.5,1.3 -1.6,3.6 -0.2,5.1l26,28.6l0,0c0.6,0.7 1.5,1.1 2.5,1.1c0.9,0.1 1.9,-0.3 2.5,-0.9l54.4,-50.6c1.4,-1.3 1.5,-3.6 0.2,-5.1l-6.7,-7.1c-0.6,-0.7 -1.5,-1.1 -2.5,-1.1c-1,0 -1.9,0.3 -2.6,1l-43.1,40.1c-0.7,0.7 -1.9,0.6 -2.5,-0.1c0,0 0,0 0,0l-15.6,-17.2c-0.9,-0.8 -1.8,-1.3 -2.8,-1.3z" class="st1_order-confirmed-1-76"/>
  </g>
 </g>
</svg>