<svg width="806.63176" height="698.76576" xmlns="http://www.w3.org/2000/svg" source="https://undraw.co/" artist="Katerina Limpitsouni" role="img">

 <g>
  <title>Layer 1</title>
  <path id="svg_1" fill="#f2f2f2" d="m554.46224,215.9893a79.82777,79.82777 0 1 1 -79.68611,-79.96918a79.62142,79.62142 0 0 1 79.68611,79.96918z"/>
  <path id="svg_2" fill="#9e616a" d="m687.32089,262.52265l11.22422,-21.432c-10.06526,-12.15439 -43.08848,-26.89558 -43.08848,-26.89558l-44.695,-40.68137a10.6812,10.6812 0 1 0 -13.11846,13.02071l48.28567,57.91133l41.39205,18.07691z"/>
  <path id="svg_3" fill="#3f3d56" d="m681.88378,261.04396l15.84871,5.04619a54.39316,54.39316 0 0 0 35.29495,-0.78574l0,0a19.64143,19.64143 0 0 0 12.68529,-16.39871l0,0a19.59506,19.59506 0 0 0 -16.31209,-21.20549c-14.86281,-2.44252 -34.01358,-3.64706 -40.84584,4.48324l-0.06924,0.08239l-6.60178,28.77812z"/>
  <circle id="svg_4" fill="#fff" r="79.82777" cy="246.82755" cx="567.88613"/>
  <path id="svg_5" fill="#2f2e41" d="m535.30709,215.60334a75.00358,75.00358 0 0 1 -5.35134,17.07973c-14.08174,29.78968 26.02034,20.07981 40.35148,20.07981c15.669,0 30.661,8.23946 28.3712,-28.37124c-0.97807,-15.63846 -12.70225,-28.37123 -28.3712,-28.37123c-13.38389,-0.00002 -32.20153,5.94887 -35.00014,19.58293z"/>
  <circle id="svg_6" fill="#ffb6b6" r="23.05483" cy="229.701" cx="567.95959"/>
  <path id="svg_7" fill="#2f2e41" d="m552.30298,206.19979a26.40856,26.40856 0 0 1 40.1504,23.04771c-11.74766,2.94948 -24.08931,5.20662 -36.61724,0.70548l-2.95863,-7.24088l-1.74426,7.24624c-3.81518,1.55942 -7.64029,2.87884 -11.46535,-0.01505a26.96462,26.96462 0 0 1 12.63508,-23.7435z"/>
  <path id="svg_8" fill="#b45309" d="m629.956,299.90807a79.79985,79.79985 0 0 1 -111.68425,8.07146l6.847,-19.10548a20.54572,20.54572 0 0 1 17.45175,-11.984l4.35591,-0.26741l10.38663,-8.95809s27.98617,-0.99929 27.571,-1.4778l16.95216,10.19661l-0.01409,-0.07035l6.664,0.40816a20.53673,20.53673 0 0 1 17.4518,11.984l4.01809,11.2029z"/>
  <path id="svg_9" fill="#f2f2f2" d="m560.8824,628.84498l-1.98351,-27.58851a89.24424,89.24424 0 0 0 -41.89885,-9.39587c20.43166,15.79292 18.7951,47.35761 32.9451,68.95962a53.68059,53.68059 0 0 0 40.02765,23.72166l17.00408,9.78252a89.95166,89.95166 0 0 0 -20.94424,-72.34594a86.88807,86.88807 0 0 0 -16.36787,-14.39539c-3.71677,10.67107 -8.78236,21.26191 -8.78236,21.26191z"/>
  <path id="svg_10" fill="#f2f2f2" d="m43.8824,139.84498l-1.98351,-27.58851a89.24424,89.24424 0 0 0 -41.89885,-9.39587c20.43166,15.79292 18.7951,47.35761 32.9451,68.95962a53.68059,53.68059 0 0 0 40.02765,23.72166l17.00408,9.78252a89.95166,89.95166 0 0 0 -20.94424,-72.34594a86.88807,86.88807 0 0 0 -16.36787,-14.39539c-3.71677,10.67107 -8.78236,21.26191 -8.78236,21.26191z"/>
  <polygon id="svg_11" fill="#9e616a" points="635.268 684.997 622.004 684.996 615.694 633.837 635.27 633.837 635.268 684.997"/>
  <path id="svg_12" fill="#2f2e41" d="m638.65032,697.85407l-42.76752,-0.00159l0,-0.54094a16.64721,16.64721 0 0 1 16.64631,-16.64605l0.00106,0l7.81205,-5.92663l14.57555,5.92754l3.73334,0.00015l-0.00079,17.18752z"/>
  <polygon id="svg_13" fill="#9e616a" points="752.165 684.997 738.902 684.996 732.592 633.837 752.168 633.837 752.165 684.997"/>
  <path id="svg_14" fill="#2f2e41" d="m755.54799,697.85407l-42.76752,-0.00159l0,-0.54094a16.64721,16.64721 0 0 1 16.64631,-16.64605l0.00106,0l7.81205,-5.92661l14.57555,5.92754l3.73334,0.00015l-0.00079,17.1875z"/>
  <path id="svg_15" fill="#2f2e41" d="m731.99208,411.18574l11.15581,105.98072s14.851,106.11694 12.062,120.759s0.69722,16.73381 0.69722,16.73381l-25.44808,-1.81239s0.69722,-9.06415 -3.48624,-13.24756s-2.09168,-16.73381 -2.09168,-16.73381l-49.36554,-172.63423l-29.98138,90.64141s-4.88069,99.70557 -5.57791,101.1s-2.789,20.22 -2.789,20.22l-25.798,0s3.48619,-11.15583 -1.39451,-14.64207s-9.06415,-0.69723 -4.88069,-6.97243s5.57792,-13.94484 4.18347,-17.431s-1.39451,-17.431 -1.39451,-17.431s2.09173,-188.2552 13.94485,-194.5304s110.16419,-0.00005 110.16419,-0.00005z"/>
  <circle id="svg_16" fill="#9e616a" r="27.4387" cy="169.16317" cx="679.16041"/>
  <path id="svg_17" fill="#3f3d56" d="m741.47497,422.73676c-53.13861,10.97387 -123.5581,-7.89282 -123.5581,-7.89282l18.78517,-81.42975l-6.67857,-85.21753c-0.81559,-10.42111 5.12,-20.18968 14.35392,-23.65125l12.75006,-4.77561l10.53881,-15.088l30.10339,0.98771l12.03414,15.84007l9.49679,5.03844l20.58857,10.91955l0.09059,0.04524l0,0.04525l-6.46109,62.67182l-3.89652,37.7878s11.8347,42.49992 9.40608,48.13647c-2.42851,5.62736 -0.317,2.90881 0.2719,5.91729c0.589,3.00859 2.39233,3.19886 2.66412,9.12533c0.28097,5.9174 -0.48926,21.53999 -0.48926,21.53999z"/>
  <path id="svg_18" fill="#ccc" d="m805.71243,698.76576l-410.47126,0a0.91935,0.91935 0 0 1 0,-1.83869l410.47126,0a0.91934,0.91934 0 0 1 0,1.83869z"/>
  <path id="svg_19" fill="#2f2e41" d="m677.82555,195.28356a84.51463,84.51463 0 0 0 14.34606,-1.37542c4.68679,-1.07973 15.02743,-9.07571 17.84571,-13.79945l0,0c2.09379,-3.50966 3.3505,-8.93831 4.03625,-12.8741a37.77914,37.77914 0 0 0 -7.37933,-29.81139a11.9356,11.9356 0 0 0 -4.92552,-3.98886c-0.17438,-0.06305 -0.35356,-0.11828 -0.53443,-0.16481a14.72647,14.72647 0 0 1 -7.44024,-4.34241a12.14729,12.14729 0 0 0 -1.24975,-1.22149a18.13955,18.13955 0 0 0 -7.66376,-3.60358c-4.52852,-1.08755 -11.00642,0.27527 -19.2533,4.05408c-4.14323,1.89855 -8.74174,1.3689 -12.28619,0.69532a1.15374,1.15374 0 0 0 -1.07624,0.40006a8.14438,8.14438 0 0 1 -5.47647,2.34862c-1.25845,0.08783 -2.53516,1.86636 -4.07409,4.18236c-0.34918,0.52573 -0.75664,1.1393 -1.05233,1.5137l-0.05914,-0.70314l-0.69228,0.804a9.88284,9.88284 0 0 0 4.87595,15.98064a19.27184,19.27184 0 0 0 3.891,0.51747c0.7949,0.05088 1.6172,0.10351 2.40688,0.21962a14.9,14.9 0 0 1 11.31824,9.38009a3.89667,3.89667 0 0 0 5.92828,1.73939a6.4381,6.4381 0 0 1 5.837,-1.21931a4.27382,4.27382 0 0 1 1.94377,2.09335a5.56964,5.56964 0 0 0 2.17641,2.41036c3.23526,1.5637 3.64359,8.85047 2.6539,14.95919c-0.95406,5.88827 -3.02958,10.1837 -5.04728,10.44548c-1.55327,0.20133 -1.72851,0.31657 -1.83418,0.5949l-0.09439,0.24916l0.18089,0.22612a6.36358,6.36358 0 0 0 2.69858,0.29005z"/>
  <path id="svg_20" fill="#3f3d56" d="m567.88627,327.65528a80.82764,80.82764 0 1 1 80.82762,-80.82764a80.91948,80.91948 0 0 1 -80.82762,80.82764zm0,-159.65528a78.82764,78.82764 0 1 0 78.82762,78.82764a78.91719,78.91719 0 0 0 -78.82762,-78.82764z"/>
  <circle id="svg_21" fill="#fff" r="79.82777" cy="80.82764" cx="288.88602"/>
  <circle id="svg_22" fill="#ffb8b8" r="26.03041" cy="62.94009" cx="292.58064"/>
  <path fill="#2f2e41" d="m315.49954,45.74388s6.77741,-12.95636 -8.13309,-14.13422c0,0 -12.71134,-11.53081 -25.6677,-2.108c0,0 -7.06711,0 -10.93165,7.99726c0,0 -5.55826,-2.108 -6.77973,3.53355c0,0 -4.06714,11.77854 0,22.37921s5.41808,11.77851 5.41808,11.77851s-2.8536,-13.15484 13.41378,-14.3327s31.19119,-11.36869 32.54688,1.58765s2.846,7.10347 2.846,7.10347s12.87622,-18.50434 -2.71257,-23.80473z" data-name="bf427902-b9bf-4946-b5d7-5c1c7e04535e" id="f183d98d-beca-4def-af6d-fbe16b93cf6a-417"/>
  <path id="svg_23" fill="#b45309" d="m348.91989,133.90807a79.79985,79.79985 0 0 1 -111.68425,8.07146l6.847,-19.10548a20.54572,20.54572 0 0 1 17.45176,-11.984l4.3559,-0.26741l10.38663,-8.95809s27.98617,-0.99929 27.571,-1.4778l16.95216,10.19661l-0.01409,-0.07035l6.664,0.40816a20.53676,20.53676 0 0 1 17.45181,11.984l4.01808,11.2029z"/>
  <path id="svg_24" fill="#3f3d56" d="m288.88627,161.65528a80.82764,80.82764 0 1 1 80.82762,-80.82764a80.91948,80.91948 0 0 1 -80.82762,80.82764zm0,-159.65528a78.82764,78.82764 0 1 0 78.82762,78.82764a78.91719,78.91719 0 0 0 -78.82762,-78.82764z"/>
  <circle id="svg_25" fill="#fff" r="79.82777" cy="206.82755" cx="102.56282"/>
  <path id="svg_26" fill="#2f2e41" d="m65.56339,180.85962c3.30085,-10.51967 10.80708,-20.16794 21.188,-23.72416c10.38156,-3.55622 25.58278,1.86106 33.38738,9.63927c14.27613,14.22787 17.76,63.10581 7.95175,78.5518c-1.9509,-0.10327 -8.68272,-0.17965 -10.65726,-0.25361l-2.79322,-9.30969l0,9.21794q-4.71858,-0.14583 -9.511,-0.20135a41.39254,41.39254 0 0 1 -40.86673,-40.37123c-0.25557,-10.24537 0.00029,-19.40341 1.30108,-23.54897z"/>
  <circle id="svg_27" fill="#9e616a" r="22.75036" cy="192.97398" cx="101.37887"/>
  <path id="svg_28" fill="#2f2e41" d="m81.74461,172.99365l26.19484,-13.1164l0,0a32.9243,32.9243 0 0 1 19.28371,27.27826l0.65291,7.82079l-10.96912,-2.79226l-1.20175,-10.0004l-1.86274,9.22034l-5.06215,-1.288l0.04812,-15.52559l-5.06529,15.51449l-18.07989,-4.15384l-3.93864,-12.95739z"/>
  <path id="svg_29" fill="#b45309" d="m161.80032,259.6543a79.79985,79.79985 0 0 1 -111.68425,8.07146l6.847,-19.10548a20.54573,20.54573 0 0 1 17.45176,-11.984l4.35591,-0.26741l10.38662,-8.95809s27.98618,-0.99929 27.571,-1.4778l16.95216,10.19661l-0.01408,-0.07035l6.664,0.40815a20.53676,20.53676 0 0 1 17.4518,11.984l4.01808,11.20291z"/>
  <path id="svg_30" fill="#3f3d56" d="m102.56308,287.65519a80.82764,80.82764 0 1 1 80.82763,-80.82764a80.91948,80.91948 0 0 1 -80.82763,80.82764zm0,-159.65528a78.82764,78.82764 0 1 0 78.82763,78.82764a78.91719,78.91719 0 0 0 -78.82763,-78.82767l0,0.00003z"/>
  <path id="svg_31" fill="#9e616a" d="m641.61276,288.24114l-12.08536,-20.9585c-15.65516,1.98866 -45.79252,21.978 -45.79252,21.978l-58.29422,15.95008a10.68119,10.68119 0 1 0 3.96793,18.05238l74.76707,-9.75257l37.4371,-25.26939z"/>
  <path id="svg_32" fill="#3f3d56" d="m637.45166,292.04026l27.0572,-22.663l3.93647,-18.242a19.6414,19.6414 0 0 0 -7.05244,-19.49608l0,0a19.59507,19.59507 0 0 0 -26.64439,2.41529c-10.02406,11.24221 -21.29967,26.76844 -18.094,36.89294l0.03249,0.10259l20.76467,20.99026z"/>
  <path id="svg_33" fill="#e6e6e6" d="m222.74631,370.76988l-101.66506,0a10.28839,10.28839 0 0 1 -10.27672,-10.27678l0,-62.61616a10.28839,10.28839 0 0 1 10.27672,-10.27678l101.66506,0a10.28841,10.28841 0 0 1 10.27678,10.27678l0,62.61612a10.28841,10.28841 0 0 1 -10.27678,10.27682z"/>
  <path id="svg_34" fill="#fff" d="m182.35317,362.70445l-54.12549,0a9.63563,9.63563 0 0 1 -9.625,-9.62451l0,-47.79a9.63563,9.63563 0 0 1 9.625,-9.62451l87.37256,0a9.63521,9.63521 0 0 1 9.62451,9.62451l0,14.54345a42.91981,42.91981 0 0 1 -42.87158,42.87106z"/>
  <path id="svg_35" fill="#b45309" d="m206.88404,321.83414l-69.94052,0a2.281,2.281 0 1 1 0,-4.562l69.94052,0a2.281,2.281 0 1 1 0,4.562z"/>
  <path id="svg_36" fill="#b45309" d="m147.88404,330.84747l-10.94052,0a2.2811,2.2811 0 0 1 0,-4.5622l10.94052,0a2.2811,2.2811 0 1 1 0,4.5622z"/>
  <path id="svg_37" fill="#b45309" d="m167.26105,339.86081l-30.31753,0a2.28111,2.28111 0 0 1 0,-4.56221l30.31753,0a2.28111,2.28111 0 0 1 0,4.56221z"/>
  <circle id="svg_38" fill="#3f3d56" r="21.50617" cy="286.35307" cx="107.25667"/>
  <path id="svg_39" fill="#e6e6e6" d="m486.74631,86.76988l-101.66506,0a10.28839,10.28839 0 0 1 -10.27672,-10.27678l0,-62.61616a10.28839,10.28839 0 0 1 10.27672,-10.27678l101.66506,0a10.28841,10.28841 0 0 1 10.27678,10.27678l0,62.61612a10.28841,10.28841 0 0 1 -10.27678,10.27682z"/>
  <path id="svg_40" fill="#fff" d="m446.35317,78.70445l-54.12549,0a9.63563,9.63563 0 0 1 -9.625,-9.62451l0,-47.79a9.63563,9.63563 0 0 1 9.625,-9.62451l87.37256,0a9.63521,9.63521 0 0 1 9.62451,9.62451l0,14.54345a42.91981,42.91981 0 0 1 -42.87158,42.87106z"/>
  <path id="svg_41" fill="#b45309" d="m470.88404,37.83414l-69.94052,0a2.281,2.281 0 1 1 0,-4.562l69.94052,0a2.281,2.281 0 1 1 0,4.562z"/>
  <path id="svg_42" fill="#b45309" d="m411.88404,46.84747l-10.94052,0a2.2811,2.2811 0 1 1 0,-4.5622l10.94052,0a2.2811,2.2811 0 1 1 0,4.5622z"/>
  <path id="svg_43" fill="#b45309" d="m431.26105,55.86081l-30.31753,0a2.28111,2.28111 0 0 1 0,-4.56221l30.31753,0a2.2811,2.2811 0 0 1 0,4.56221z"/>
  <circle id="svg_44" fill="#3f3d56" r="21.50617" cy="77.35307" cx="371.25667"/>
 </g>
</svg>