<svg width="862.70323" height="644.78592" xmlns="http://www.w3.org/2000/svg" source="https://undraw.co/" artist="Katerina Limpitsouni" role="img">

 <g>
  <title>Layer 1</title>
  <polygon id="svg_1" fill="#9e616a" points="629.943 612.644 612.777 612.644 604.608 546.435 629.943 546.435 629.943 612.644"/>
  <path id="svg_2" fill="#2f2e41" d="m639.00269,642.38511l-12.30995,0l-2.19727,-11.62205l-5.62754,11.62205l-32.64893,0a7.33919,7.33919 0 0 1 -4.17038,-13.37865l26.07247,-18.00658l0,-11.7495l27.42368,1.63683l3.45792,41.4979z"/>
  <polygon id="svg_3" fill="#9e616a" points="731.923 590.981 718.148 601.224 672.085 552.969 692.415 537.851 731.923 590.981"/>
  <path id="svg_4" fill="#2f2e41" d="m756.93978,609.44087l-9.87816,7.34553l-8.69827,-8.015l2.41922,12.68419l-26.19923,19.48211a7.33918,7.33918 0 0 1 -11.32976,-8.24721l10.17712,-30.00728l-7.0111,-9.42842l22.98294,-15.05066l27.53724,31.23674z"/>
  <path id="svg_5" fill="#2f2e41" d="m649.92745,271.04001s32.56879,28.13791 17.542,108.35207l-18.3454,78.59653l59.8294,99.2561l-19.07664,23.20771l-77.77961,-107.4334l-28.18529,-66.11365l-7.90869,-117.66941l73.92423,-18.19595z"/>
  <polygon id="svg_6" fill="#2f2e41" points="599.447 425.746 597.488 456.084 603.483 585.365 631.692 580.452 637.083 488.406 599.447 425.746"/>
  <polygon id="svg_7" fill="#ffb6b6" points="237.445 628.211 252.796 628.21 260.098 569.001 237.443 569.002 237.445 628.211"/>
  <path id="svg_8" fill="#2f2e41" d="m233.52962,623.19908l4.32074,-0.00018l16.86888,-6.86018l9.0412,6.85913l0.00118,0a19.26648,19.26648 0 0 1 19.26546,19.26511l0,0.62605l-49.49658,0.00183l-0.00088,-19.89176z"/>
  <polygon id="svg_9" fill="#ffb6b6" points="296.932 618.538 311.905 621.918 332.071 565.772 309.972 560.782 296.932 618.538"/>
  <path id="svg_10" fill="#2f2e41" d="m294.21625,612.78625l4.21465,0.9516l17.96568,-2.97583l7.3082,8.68223l0.0012,0.00027a19.26648,19.26648 0 0 1 14.54854,23.03569l-0.1379,0.61067l-48.28121,-10.90122l4.38084,-19.40341z"/>
  <path id="svg_11" fill="#2f2e41" d="m218.00322,266.23596c-7.19708,21.70636 -6.43618,45.268 1.72992,70.55606l3.49087,142.37821s-5.20111,93.36873 11.58191,126.2245l24.34,0l12.05112,-134.75129l1.5133,-90.44591l52.18244,76.30583l-33.23654,146.68828l29.9568,2.678l53.93408,-159.1909l-66.5439,-154.44278l-91,-26z"/>
  <path id="svg_12" fill="#e6e6e6" d="m498.69762,204.40783c18.61732,-16.77656 46.30893,-25.21208 69.53714,-15.805a115.466,115.466 0 0 0 -51.888,59.93484c-3.6979,9.83846 -6.78644,21.16623 -15.88188,26.43349c-5.65933,3.27753 -12.70027,3.4377 -19.04568,1.85557c-6.34568,-1.58237 -12.16226,-4.75415 -17.89913,-7.89422l-1.63218,-0.03691c7.32779,-23.96582 18.19245,-47.71122 36.80973,-64.48777z"/>
  <path id="svg_13" fill="#fff" d="m568.1049,189.11238a98.69239,98.69239 0 0 0 -54.90628,25.93052a42.50049,42.50049 0 0 0 -8.34534,10.37667a24.37584,24.37584 0 0 0 -2.81751,12.51568c0.10054,4.05833 0.67335,8.19792 -0.21438,12.21a14.92537,14.92537 0 0 1 -7.42454,9.68865c-4.54586,2.613 -9.7595,3.43673 -14.886,4.0651c-5.692,0.69769 -11.61526,1.33219 -16.54238,4.5248c-0.597,0.38683 -1.16231,-0.56211 -0.56622,-0.94836c8.57235,-5.5546 19.41969,-3.5335 28.63724,-7.24065c4.30108,-1.72983 8.10691,-4.76631 9.454,-9.35719c1.17794,-4.01452 0.5909,-8.2838 0.45359,-12.39207a26.01068,26.01068 0 0 1 2.299,-12.34028a39.29038,39.29038 0 0 1 7.9156,-10.65924a95.74917,95.74917 0 0 1 24.3333,-17.41978a100.44256,100.44256 0 0 1 32.59964,-10.05852c0.70319,-0.09065 0.70886,1.01461 0.01026,1.10467l0.00002,0z"/>
  <path id="svg_14" fill="#fff" d="m517.7988,210.1843a14.807,14.807 0 0 1 1.63241,-19.1039c0.50628,-0.49873 1.30506,0.26457 0.79811,0.764a13.71094,13.71094 0 0 0 -1.48216,17.77371c0.41512,0.5769 -0.53561,1.13983 -0.94836,0.56623l0,-0.00004z"/>
  <path id="svg_15" fill="#fff" d="m501.71378,235.88423a28.53932,28.53932 0 0 0 20.3938,-4.08346c0.59834,-0.38471 1.16384,0.56412 0.56622,0.94836a29.68517,29.68517 0 0 1 -21.23023,4.20607c-0.70085,-0.12626 -0.42683,-1.19655 0.27021,-1.071l0,0.00003z"/>
  <path id="svg_16" fill="#fff" d="m545.79818,194.34076a8.38148,8.38148 0 0 0 6.2686,4.89443c0.7021,0.11732 0.42732,1.18753 -0.27021,1.071a9.39213,9.39213 0 0 1 -6.94675,-5.39917a0.57084,0.57084 0 0 1 0.19107,-0.7573a0.55506,0.55506 0 0 1 0.75729,0.19107l0,-0.00003z"/>
  <path id="svg_17" fill="#e6e6e6" d="m593.81286,269.5075c-0.44048,-0.06079 -0.881,-0.12157 -1.32791,-0.1756a110.37862,110.37862 0 0 0 -17.88208,-0.90839c-0.46221,0.00673 -0.93053,0.02051 -1.39159,0.0405a116.3646,116.3646 0 0 0 -41.75015,9.61014a113.00482,113.00482 0 0 0 -15.16291,8.0555c-6.68773,4.23438 -13.602,9.35764 -21.078,11.08459a19.38584,19.38584 0 0 1 -2.36217,0.42086l-30.88864,-26.74546c-0.03969,-0.096 -0.0858,-0.18531 -0.12584,-0.28162l-1.28212,-1.01147c0.23872,-0.17556 0.49008,-0.35251 0.72879,-0.52808c0.138,-0.10241 0.283,-0.19887 0.421,-0.30128c0.09422,-0.06639 0.18881,-0.13253 0.27,-0.19782c0.03128,-0.02222 0.0629,-0.04413 0.08811,-0.05934c0.08122,-0.06529 0.1636,-0.11732 0.23871,-0.17556q2.10345,-1.4895 4.23516,-2.95463c0.00611,-0.007 0.00611,-0.007 0.0191,-0.00815a166.15689,166.15689 0 0 1 34.601,-18.59939c0.36686,-0.13859 0.73948,-0.28453 1.12045,-0.4109a107.831,107.831 0 0 1 16.93919,-4.76651a95.32878,95.32878 0 0 1 9.5528,-1.33433a79.272,79.272 0 0 1 24.72335,1.7516c16.14332,3.7433 30.90977,12.60785 39.65578,26.43254c0.22361,0.35381 0.4406,0.70193 0.65797,1.0628z"/>
  <path id="svg_18" fill="#fff" d="m593.40397,269.83941a98.69236,98.69236 0 0 0 -59.45156,-12.3533a42.50006,42.50006 0 0 0 -12.91079,3.26072a24.3758,24.3758 0 0 0 -9.78493,8.29673c-2.36313,3.30088 -4.39808,6.951 -7.52245,9.62a14.92533,14.92533 0 0 1 -11.76132,3.26575c-5.2028,-0.6506 -9.86156,-3.13185 -14.3331,-5.71664c-4.9648,-2.86991 -10.0762,-5.92951 -15.93241,-6.34685c-0.70956,-0.05056 -0.5896,-1.14861 0.11888,-1.09812c10.1888,0.72611 17.633,8.8707 27.22462,11.46035c4.47564,1.20837 9.34256,1.07528 13.18213,-1.77925c3.35754,-2.49617 5.45923,-6.25839 7.82305,-9.62129a26.01082,26.01082 0 0 1 9.26529,-8.46889a39.29037,39.29037 0 0 1 12.73777,-3.74506a95.74907,95.74907 0 0 1 29.91669,0.7416a100.44263,100.44263 0 0 1 32.085,11.59611c0.616,0.351 -0.04488,1.23688 -0.65689,0.88819l0.00002,-0.00005z"/>
  <path id="svg_19" fill="#fff" d="m540.55062,256.37641a14.807,14.807 0 0 1 12.80526,-14.27057c0.7045,-0.09339 0.88272,0.997 0.17729,1.0905a13.711,13.711 0 0 0 -11.88443,13.29895c-0.01588,0.71056 -1.11391,0.58761 -1.09812,-0.11888z"/>
  <path id="svg_20" fill="#fff" d="m512.23449,267.21207a28.53928,28.53928 0 0 0 18.74183,9.01806c0.70936,0.05308 0.58963,1.15113 -0.11888,1.09812a29.68518,29.68518 0 0 1 -19.4835,-9.42375c-0.48357,-0.52277 0.37961,-1.21236 0.86055,-0.69243z"/>
  <path id="svg_21" fill="#fff" d="m572.44545,260.5838a8.38147,8.38147 0 0 0 2.05834,7.68205c0.49,0.51638 -0.37378,1.20545 -0.86055,0.69243a9.39216,9.39216 0 0 1 -2.29591,-8.49336a0.57082,0.57082 0 0 1 0.6085,-0.48962a0.55506,0.55506 0 0 1 0.48962,0.6085z"/>
  <path id="svg_22" fill="#e6e6e6" d="m51.27324,627.13589c-1.45,5.44 -5.26,9.97 -9.86,13.27c-0.75,0.54 -1.52,1.04 -2.3,1.51c-0.24,0.14 -0.48,0.29 -0.73,0.42q-0.405,0.24 -0.81,0.45l-21.63,0c-0.39,-0.79 -0.77,-1.59 -1.15,-2.38c-9.27,-19.48 -15.78,-40.5 -14.67,-61.91a79.25417,79.25417 0 0 1 5.17,-24.25c5.94,-15.47 16.78,-28.86 31.69,-35.6c0.37,-0.17 0.76,-0.34 1.14,-0.5c-0.12,0.43 -0.24,0.85 -0.36,1.28a110.78533,110.78533 0 0 0 -3.38,17.59c-0.06,0.46 -0.11,0.92 -0.15,1.39a116.05427,116.05427 0 0 0 3.72,42.69c0.01,0.03 0.01995,0.07 0.03,0.1q1.27506,4.605 2.96,9.07c0.88,2.35 1.83,4.67 2.87,6.95c4.34001,9.57007 10.15995,19.77007 7.46,29.92z"/>
  <path id="svg_23" fill="#fff" d="m38.39324,518.59596c-0.21,0.28 -0.42005,0.55 -0.63,0.83a98.12885,98.12885 0 0 0 -11.12,18.76c-0.16,0.33 -0.31,0.66 -0.44,1a97.8135,97.8135 0 0 0 -7.82,29.24a1.49,1.49 0 0 0 -0.02,0.21c-0.25,2.36005 -0.4,4.74 -0.46,7.12a42.48011,42.48011 0 0 0 1.43,13.24a23.7688,23.7688 0 0 0 5.46,9.42c0.25,0.27 0.5,0.54 0.77,0.8c0.2,0.21 0.42,0.42 0.63,0.62c2.02,1.93 4.23,3.72 6.13,5.79a21.43163,21.43163 0 0 1 2.35,3a14.90407,14.90407 0 0 1 1.6,12.1c-1.36,5.06 -4.47,9.33 -7.65,13.4c-1.59,2.04 -3.23,4.1 -4.65,6.28c-0.51995,0.78 -1,1.57 -1.43994,2.38l-1.26,0c0.42,-0.81 0.88,-1.6 1.38,-2.38c3.65,-5.75 8.84,-10.69 11.53,-17.02c1.82,-4.26995 2.37,-9.11 0.07,-13.3a17.68156,17.68156 0 0 0 -2.43,-3.38c-1.83,-2.07 -4.02,-3.84 -6.01,-5.71c-0.5,-0.47 -0.99,-0.95 -1.46,-1.45a24.96377,24.96377 0 0 1 -5.64,-8.9a39.23028,39.23028 0 0 1 -1.94,-13.13c0,-2.84 0.15,-5.7 0.43,-8.54c0.03,-0.36 0.07,-0.73 0.11,-1.1a100.76663,100.76663 0 0 1 19.67,-49.23c0.2,-0.28 0.41,-0.55 0.62,-0.82c0.42995,-0.56006 1.21993,0.22 0.78994,0.77z"/>
  <path id="svg_24" fill="#fff" d="m17.71688,569.07059a14.807,14.807 0 0 1 -12.3542,-14.66278a0.55275,0.55275 0 0 1 1.10455,-0.02415a13.711,13.711 0 0 0 11.51986,13.616c0.70147,0.11439 0.42725,1.18471 -0.27021,1.071l0,-0.00007z"/>
  <path id="svg_25" fill="#fff" d="m24.51562,598.61702a28.5393,28.5393 0 0 0 11.53315,-17.308c0.15106,-0.69512 1.22186,-0.42407 1.071,0.27021a29.68514,29.68514 0 0 1 -12.0379,17.98619c-0.58485,0.40629 -1.1479,-0.54428 -0.56622,-0.94836l-0.00003,-0.00004z"/>
  <path id="svg_26" fill="#fff" d="m26.31237,538.06896a8.38149,8.38149 0 0 0 7.89345,-0.97168c0.57941,-0.41351 1.14186,0.53754 0.56622,0.94836a9.39215,9.39215 0 0 1 -8.72989,1.09429a0.57082,0.57082 0 0 1 -0.40038,-0.67059a0.55507,0.55507 0 0 1 0.6706,-0.40038z"/>
  <path id="svg_27" fill="#e6e6e6" d="m113.4132,557.2659c-0.35,0.27 -0.71,0.54 -1.06,0.82a110.362,110.362 0 0 0 -13.29,12c-0.32,0.33 -0.64,0.67 -0.95,1.01l-0.01,0.01a116.347,116.347 0 0 0 -22.66,36.14l-0.03,0.09c-0.01,0.03 -0.02,0.05 -0.03,0.08a114.44321,114.44321 0 0 0 -5.03,16.42c-1.22,5.46 -2.22,11.31 -4.13,16.57c-0.29,0.81 -0.61,1.61 -0.95,2.38l-44.46,0c0.15,-0.79 0.31,-1.59 0.47,-2.38a160.30168,160.30168 0 0 1 10.54,-33.7c0.16,-0.36 0.32,-0.72 0.5,-1.08a108.30478,108.30478 0 0 1 8.61,-15.35a0.0098,0.0098 0 0 1 0.01,-0.01a94.95585,94.95585 0 0 1 5.8,-7.69a79.11871,79.11871 0 0 1 18.72,-16.24c0.04,-0.03 0.09,-0.05 0.13,-0.08c14.04,-8.71 30.68,-12.86 46.59,-9.27l0.01,0c0.41,0.09 0.81002,0.18006 1.22,0.28z"/>
  <path id="svg_28" fill="#fff" d="m113.36321,557.79596c-0.34,0.09 -0.68,0.19 -1.01,0.29a98.5888,98.5888 0 0 0 -20.17,8.27c-0.32,0.17 -0.64,0.35 -0.96,0.53a98.25544,98.25544 0 0 0 -23.79,18.59a0.035,0.035 0 0 0 -0.01,0.02c-0.08,0.08 -0.17,0.17 -0.24,0.25c-1.6,1.72 -3.14,3.51 -4.6,5.35a42.769,42.769 0 0 0 -6.82,11.43a23.67365,23.67365 0 0 0 -1.31,10.81c0.03,0.37 0.08,0.73 0.13,1.1c0.04,0.29 0.08,0.58 0.13,0.88c0.66,4.01 1.8,8.03 1.48,12.12a14.90913,14.90913 0 0 1 -6.01,10.63a23.794,23.794 0 0 1 -3.68,2.34a36.85232,36.85232 0 0 1 -5.77,2.38l-3.93,0c0.53,-0.15 1.05,-0.3 1.58,-0.45a48.21182,48.21182 0 0 0 5.53,-1.93a26.912,26.912 0 0 0 3,-1.48c4.02,-2.31 7.37005,-5.85 8.07,-10.58c0.61,-4.14 -0.57,-8.28 -1.27,-12.33c-0.12,-0.7 -0.23,-1.39 -0.29,-2.08a24.43856,24.43856 0 0 1 0.85,-10.46a39.0623,39.0623 0 0 1 6.36,-11.66a83.355,83.355 0 0 1 5.48,-6.55q0.36,-0.40494 0.75,-0.81a100.901,100.901 0 0 1 24.21,-18.73l0.01,0a99.28782,99.28782 0 0 1 21.1,-8.74l0.01,0c0.33,-0.1 0.67,-0.2 1,-0.29c0.69002,-0.18006 0.84999,0.91 0.17,1.1z"/>
  <path id="svg_29" fill="#fff" d="m66.46762,585.64539a14.807,14.807 0 0 1 -1.03613,-19.1455c0.43212,-0.5642 1.32915,0.08079 0.89646,0.64574a13.711,13.711 0 0 0 1.0002,17.80733c0.49121,0.51367 -0.37215,1.20316 -0.86055,0.69243l0.00002,0z"/>
  <path id="svg_30" fill="#fff" d="m54.10705,613.32988a28.53931,28.53931 0 0 0 19.62921,-6.87574c0.53912,-0.46406 1.2309,0.397 0.69242,0.86054a29.68514,29.68514 0 0 1 -20.44051,7.11332c-0.71159,-0.02772 -0.58885,-1.12569 0.11888,-1.09812z"/>
  <path id="svg_31" fill="#fff" d="m91.99573,566.0674a8.38149,8.38149 0 0 0 6.8875,3.97657c0.71159,0.01869 0.58807,1.11668 -0.11888,1.09812a9.39215,9.39215 0 0 1 -7.62917,-4.38226a0.57083,0.57083 0 0 1 0.08406,-0.77649a0.55507,0.55507 0 0 1 0.77649,0.08406z"/>
  <path id="svg_32" fill="#ffb8b8" d="m456.38238,173.12969a11.59945,11.59945 0 0 1 -17.7667,0.83759l-37.80039,16.44009l3.682,-21.10161l35.3314,-12.37668a11.66235,11.66235 0 0 1 16.55372,16.20061l-0.00003,0z"/>
  <path id="svg_33" fill="#e6e6e6" d="m431.15733,179.71821l-87.7976,39.10831l-0.18835,-0.06738l-100.067,-35.65889a32.95966,32.95966 0 0 1 -14.78168,-42.75569l0,0a32.92423,32.92423 0 0 1 46.9872,-14.63652l74.4685,44.85908l72.21121,-9.35878l9.16772,18.50987z"/>
  <path id="svg_34" fill="#ccc" d="m862.70324,643.59596a1.1865,1.1865 0 0 1 -1.19,1.19l-860.29,0a1.19,1.19 0 0 1 0,-2.38l860.29,0a1.1865,1.1865 0 0 1 1.19,1.19z"/>
  <path id="svg_35" fill="#e6e6e6" d="m313.34355,296.79648l-88.50585,-14.15674a16.89334,16.89334 0 0 1 -9.95557,-23.646l4.01367,-8.02832l-1.55908,-84.34668a62.48156,62.48156 0 0 1 30.33642,-54.65378l8.63086,-5.16064l4.36182,-11.07666l40.22022,0.981l0.11718,14.52734l14.40381,22.96826l-0.00049,0.09522l-0.90381,125.01367l-3.96972,12.90137l6.00244,15.00586l-3.1919,9.5761z"/>
  <circle id="svg_36" fill="#ffb8b8" r="36.54413" cy="45.40997" cx="284.4591"/>
  <path id="svg_37" fill="#2f2e41" d="m246.40547,53.37648c-1.09,-4.59187 -0.58956,-11.05349 0.02641,-15.677c1.61485,-12.12129 8.3464,-23.64474 18.57336,-30.47048a13.37957,13.37957 0 0 1 6.66453,-2.64845c2.41939,-0.101 5.04189,1.19418 5.78465,3.499a11.99254,11.99254 0 0 1 6.76552,-6.709a21.1355,21.1355 0 0 1 9.63075,-1.29746a35.19728,35.19728 0 0 1 29.36306,20.98947c0.97609,2.3188 3.70246,-6.24621 4.93916,-4.05528a9.7407,9.7407 0 0 0 5.52388,4.85342c2.4233,0.67619 3.40756,10.66034 4.3612,8.33222a11.0984,11.0984 0 0 1 -10.61055,15.47525c-2.46642,-0.09228 -4.82489,-0.99947 -7.262,-1.39c-8.71512,-1.39642 -17.96,4.92316 -19.82312,13.55058a23.98689,23.98689 0 0 0 -3.15565,-7.021a8.1187,8.1187 0 0 0 -6.51321,-3.57866c-2.47957,0.09278 -4.6591,1.7139 -6.26793,3.60295s-2.81713,4.093 -4.43782,5.97186c-4.7555,5.513 -11.18745,18.3697 -17.96453,17.432c-5.34821,-0.73994 -14.1095,-14.58985 -15.59771,-20.85942z"/>
  <path id="svg_38" fill="#fff" d="m505.364,214.5405a7.1328,7.1328 0 0 0 -4.80706,-7.85363l-98.41317,-32.77709a7.13219,7.13219 0 0 0 -2.933,-0.3368l-24.66687,2.33267l-14.15377,1.34255l-26.11867,2.46833a7.15519,7.15519 0 0 0 -6.38357,5.98973l-13.26135,82.8376a7.18646,7.18646 0 0 0 4.48439,7.79592l99.4404,38.38442a6.94669,6.94669 0 0 0 1.44636,0.38836a7.13621,7.13621 0 0 0 2.17571,0.01648l64.25546,-9.52349a7.12057,7.12057 0 0 0 6.023,-5.99919l12.91214,-85.06586z"/>
  <path id="svg_39" fill="#b45309" d="m321.36511,270.50316l99.44009,38.38234a0.89711,0.89711 0 0 0 0.457,0.05366l64.247,-9.52224a0.88347,0.88347 0 0 0 0.7549,-0.75161l12.91979,-85.06677a0.90469,0.90469 0 0 0 -0.59937,-0.98151l-0.66169,-0.22392l-97.75762,-32.54588a0.67787,0.67787 0 0 0 -0.13742,-0.03318a0.88732,0.88732 0 0 0 -0.23,-0.01192l-60.16426,5.6932l-4.77428,0.44794a0.90314,0.90314 0 0 0 -0.7947,0.74781l-13.259,82.83439a0.89735,0.89735 0 0 0 0.55956,0.97769z"/>
  <path id="svg_40" fill="#2f2e41" d="m339.63356,185.49533l60.16426,-5.6932a0.88732,0.88732 0 0 1 0.23,0.01192a0.67787,0.67787 0 0 1 0.13742,0.03318l97.75762,32.54588l-25.78658,2.72965l-9.65046,1.01669l-27.46045,2.90123a1.939,1.939 0 0 1 -0.24081,-0.0029c-0.04881,-0.01472 -0.09762,-0.02944 -0.15639,-0.04511l-94.99461,-33.49734z"/>
  <path id="svg_41" fill="#3f3d56" d="m319.10923,276.34505l99.44009,38.38233a6.72242,6.72242 0 0 0 1.4505,0.37968a7.22358,7.22358 0 0 0 2.17727,0.02722l64.247,-9.52224a7.13521,7.13521 0 0 0 6.02839,-6.00387l12.90982,-85.06772a7.19014,7.19014 0 0 0 -0.4184,-3.71669c-0.06533,-0.15688 -0.13072,-0.31384 -0.207,-0.46172a6.99031,6.99031 0 0 0 -2.26369,-2.69758a7.13789,7.13789 0 0 0 -1.91579,-0.97662l-0.11659,-0.04131l-98.29175,-32.73751a8.95539,8.95539 0 0 0 -1.22721,-0.29807a7.08573,7.08573 0 0 0 -1.71463,-0.03323l-24.66295,2.32468l-14.15253,1.35l-26.12314,2.46646a7.09173,7.09173 0 0 0 -3.01853,0.99744a1.32948,1.32948 0 0 0 -0.20245,0.12125a1.1922,1.1922 0 0 0 -0.12992,0.09813a7.14818,7.14818 0 0 0 -3.02682,4.76367l-13.2699,82.84346a7.19418,7.19418 0 0 0 4.48823,7.80224zm10.54219,-90.35694a5.29965,5.29965 0 0 1 1.26984,-2.6713a4.65147,4.65147 0 0 1 0.67571,-0.65875a5.31719,5.31719 0 0 1 2.32365,-1.08389a4.059,4.059 0 0 1 0.50915,-0.07189l43.98466,-4.15521l20.96479,-1.995c0.14217,-0.01658 0.27254,-0.01418 0.40386,-0.02168a5.00673,5.00673 0 0 1 0.94761,0.07043a4.14489,4.14489 0 0 1 0.84467,0.20125l98.4084,32.77882c0.07775,0.02754 0.14554,0.05407 0.22323,0.0816a5.218,5.218 0 0 1 2.27305,1.6537a5.25912,5.25912 0 0 1 1.12074,4.14541l-12.92068,85.07674a5.34916,5.34916 0 0 1 -4.5086,4.50155l-64.257,9.52134a5.41346,5.41346 0 0 1 -2.72281,-0.31038l-99.441,-38.37237a5.40237,5.40237 0 0 1 -3.35921,-5.846l13.25994,-82.84437z"/>
  <path id="svg_42" fill="#3f3d56" d="m330.70378,181.38735a0.87724,0.87724 0 0 1 0.268,-0.38623a1.05132,1.05132 0 0 1 0.129,-0.08817c0.04169,-0.01607 0.08434,-0.04216 0.12611,-0.05828a0.87349,0.87349 0 0 1 0.62383,-0.01066l2.06994,0.73016l101.1157,35.66943l23.66513,-2.5004l13.24288,-1.39675l28.02932,-2.96742l2.50639,-0.26279l0.48732,-0.05387a0.9043,0.9043 0 0 1 0.95216,0.65352a0.73938,0.73938 0 0 1 0.02649,0.14313a0.893,0.893 0 0 1 -0.55014,0.92188a0.98843,0.98843 0 0 1 -0.24752,0.06673l-3.40944,0.35738l-27.60268,2.91775l-9.65046,1.01669l-27.46045,2.90123a1.939,1.939 0 0 1 -0.24081,-0.0029c-0.04881,-0.01472 -0.09762,-0.02944 -0.15639,-0.04511l-103.03119,-36.33461l-0.3498,-0.1238a0.67025,0.67025 0 0 1 -0.21942,-0.12146a0.91016,0.91016 0 0 1 -0.32397,-1.02545z"/>
  <path id="svg_43" fill="#3f3d56" d="m420.27067,315.36752a0.89376,0.89376 0 0 1 -0.74251,-1.01574l14.51687,-96.33414a0.894,0.894 0 0 1 1.017,-0.75056l0.008,0.00129a0.89377,0.89377 0 0 1 0.74252,1.01574l-14.51687,96.33414a0.894,0.894 0 0 1 -1.017,0.75055l-0.00801,-0.00128z"/>
  <path id="svg_44" fill="#3f3d56" d="m457.06762,309.25638l-9.6548,1.01888l11.29337,-95.5347s12.89458,-2.33464 13.23951,-1.39846c0.21223,0.55894 -14.78603,95.30152 -14.87808,95.91428z"/>
  <polygon id="svg_45" fill="#3f3d56" points="331.25 182.533 330.99 226.1 408.116 255.488 435.813 218.284 331.25 182.533"/>
  <path id="svg_46" fill="#3f3d56" d="m502.48306,210.11761a5.30105,5.30105 0 0 0 -2.49688,-1.73654l-98.40594,-32.7777a5.10582,5.10582 0 0 0 -0.848,-0.20665a5.00894,5.00894 0 0 0 -0.95065,-0.07115l0.15966,-0.99731l0.98511,-0.71323l23.36822,-16.9188l78.04053,23.91705l0.13549,27.05154l0.01246,2.45279z"/>
  <path id="svg_47" fill="#fff" d="m335.18062,252.47259a1.51326,1.51326 0 0 1 0.326,0.06843l30.19365,9.91686a1.50014,1.50014 0 0 1 -0.93555,2.85069l-30.19364,-9.91685a1.50039,1.50039 0 0 1 0.60952,-2.91913l0.00002,0z"/>
  <circle id="svg_48" fill="#f2f2f2" r="12" cy="423.23593" cx="457.00322"/>
  <circle id="svg_49" fill="#f2f2f2" r="12" cy="467.23593" cx="151.00322"/>
  <circle id="svg_50" fill="#f2f2f2" r="12" cy="70.23593" cx="401.00322"/>
  <path id="svg_51" fill="#ffb8b8" d="m420.69186,270.12148a11.59947,11.59947 0 0 1 -15.90724,-7.95712l-41.012,-4.14348l13.53022,-16.60628l36.87128,6.48065a11.66236,11.66236 0 0 1 6.5177,22.22623l0.00004,0z"/>
  <path id="svg_52" fill="#e6e6e6" d="m395.46662,263.53378l-95.70849,-8.81836l-0.13135,-0.15088l-69.85061,-80.03658a32.95967,32.95967 0 0 1 8.01319,-44.52344l0,0a32.92425,32.92425 0 0 1 48.14355,10.209l43.02246,75.54443l67.56543,27.147l-1.05418,20.62883z"/>
  <path id="svg_53" fill="#2f2e41" d="m635.69021,109.61672c-2.37688,-17.43387 -5.35788,-36.15172 -17.65411,-48.7369a41.34992,41.34992 0 0 0 -59.74384,0.61837c-8.95079,9.54876 -12.90365,22.95672 -13.2654,36.03983s2.55205,26.02081 5.78442,38.70347a119.28958,119.28958 0 0 0 49.78577,-9.79937c3.92617,-1.70407 7.789,-3.63056 11.93689,-4.68634c4.14784,-1.05571 7.10454,1.60088 10.96292,3.45335l2.118,-4.05545c1.73377,3.22659 7.10244,2.27017 9.04978,-0.83224c1.94705,-3.1024 1.5205,-7.07548 1.02557,-10.70472z"/>
  <path id="svg_54" fill="#9e616a" d="m567.88362,206.9254l-69.876,1.49441a11.05455,11.05455 0 1 0 -4.93974,15.57383c9.26761,0.52674 81.77191,10.81733 86.0974,4.18549c4.39027,-6.73106 27.82423,-30.48612 27.82423,-30.48612l-18.01271,-25.64378l-21.09318,34.87617z"/>
  <circle id="svg_55" fill="#9e616a" r="32.83012" cy="94.03525" cx="584.91096"/>
  <path id="svg_56" fill="#CA8A04" d="m430.71309,171.57696"/>
  <path id="svg_57" fill="#3f3d56" d="m637.49357,157.20371c-3.86888,-7.69981 -5.74873,-17.212 -13.99671,-19.70823c-5.56965,-1.68563 -28.09691,0.84048 -33.17312,3.6859c-8.44356,4.73313 -0.79189,13.60234 -5.77332,21.90214c-5.41517,9.02271 -20.132,27.12978 -25.5472,36.15241c-3.72279,6.20279 8.8171,24.40947 6.80408,31.358c-2.01273,6.94848 -2.10962,14.74736 1.31952,21.11722c3.06888,5.70141 -1.37137,10.745 1.71521,16.437c3.20957,5.91962 7.14849,28.05274 4.16119,34.08785l-2,6c19.84682,1.16609 36.53459,-22.54427 56.25813,-25.04188c4.89894,-0.62032 9.98565,-1.43073 14.02251,-4.27435c5.94639,-4.18864 8.29717,-11.78923 9.76638,-18.91282a159.32576,159.32576 0 0 0 -13.55667,-102.80324z"/>
  <path id="svg_58" fill="#9e616a" d="m667.24955,238.50541c-2.76443,-7.54563 -7.769,-40.5366 -7.769,-40.5366l-31.32417,-0.91848l15.31443,37.772l-41.79036,58.50283s0.07739,0.12853 0.21808,0.35778a11.052,11.052 0 1 0 9.26964,11.74483a0.76305,0.76305 0 0 0 0.95807,-0.16445c4.65003,-5.83536 57.88774,-59.21221 55.12331,-66.75791z"/>
  <path id="svg_59" fill="#3f3d56" d="m670.43422,217.67037c-2.87511,-12.13478 -5.77152,-24.33549 -10.61887,-35.82566s-11.78661,-22.34286 -21.54669,-30.10543c-3.12048,-2.48179 -6.609,-4.67232 -10.52078,-5.44389c-3.91147,-0.77165 -8.31967,0.09193 -11.0667,2.98137c-4.39621,4.62357 -3.07339,12.0451 -1.4611,18.21781q7.13154,27.30063 14.26277,54.60125q20.59418,-2.18287 41.188,-4.36591l-0.23663,-0.05954z"/>
  <path id="svg_60" fill="#2f2e41" d="m625.13872,98.58888c-1.20908,-7.942 -2.47188,-15.95043 -5.31228,-23.42857c-2.8404,-7.47821 -7.41882,-14.48249 -13.98647,-18.71882c-10.39879,-6.70709 -23.862,-5.41352 -35.52074,-1.55544c-9.01622,2.9837 -17.81761,7.51864 -24.17574,14.8093c-6.35848,7.29074 -9.92957,17.69379 -7.56439,27.22665q18.65464,-4.40738 37.30893,-8.81483l-1.36137,0.962a30.03765,30.03765 0 0 1 16.03083,20.8927a31.12209,31.12209 0 0 1 -6.56554,25.84773q12.72244,-4.51323 25.44489,-9.0263c5.23526,-1.85713 10.83833,-3.997 13.94267,-8.76047c3.59934,-5.52287 2.76302,-12.84302 1.75921,-19.43395z"/>
 </g>
</svg>