<svg width="774.305" height="799.978" xmlns="http://www.w3.org/2000/svg" source="https://undraw.co/" artist="Katerina Limpitsouni" role="img">

 <g>
  <title>Layer 1</title>
  <g id="svg_1">
   <path id="svg_2" fill="#f2f2f2" d="m775.80425,787.45401c-0.054,1.211 -0.436,2.052 -0.837,2.052l-370.393,0c-0.389,0 -0.75,-0.816 -0.812,-1.988c-0.08,-1.5 0.3,-2.791 0.775,-2.791l370.492,0c0.469,0 0.842,1.249 0.775,2.727z"/>
   <circle id="svg_3" fill="#fff" r="6.243" cy="23.725" cx="137.43621"/>
   <circle id="svg_4" fill="#fff" r="6.243" cy="23.725" cx="161.13525"/>
   <circle id="svg_5" fill="#fff" r="6.243" cy="23.725" cx="184.82922"/>
   <g id="svg_6">
    <path id="svg_7" fill="#9f616a" d="m619.69847,392.86998l-7.171,50.991l-30.273,54.178c-8.769,7.967 -0.8,27.09 -0.8,27.09l7.966,-5.574l1.594,-9.561s35.057,-39.837 43.821,-49.4s11.952,-62.145 11.952,-62.145l-27.089,-5.579z"/>
    <path id="svg_8" fill="#9f616a" d="m646.08848,738.66699s-1.594,18.325 -0.8,23.105s24.7,-0.8 24.7,-0.8c-3.984,-7.967 -6.375,-31.869 -6.375,-31.869l-17.525,9.564z"/>
    <path id="svg_9" fill="#9f616a" d="m527.37149,743.44898s-2.39,25.5 -1.594,30.276s24.7,-0.8 24.7,-0.8c-3.984,-7.967 -6.375,-31.87 -6.375,-31.87l-16.731,2.394z"/>
    <ellipse id="svg_10" fill="#9f616a" ry="28.979" rx="28.979" cy="305.74098" cx="576.19748"/>
    <path id="svg_11" fill="#9f616a" d="m571.19748,333.12797c4.781,6.375 2.39,17.529 2.39,17.529s48.6,56.575 57.366,56.575s7.171,-39.838 7.171,-39.838s-12.751,-15.134 -19.922,-18.328s-19.919,-37.447 -19.919,-37.447s-31.87,15.134 -27.086,21.509z"/>
    <path id="svg_12" fill="#090814" d="m538.52648,441.48397l-31.187,52.389c-5.691,9.365 4.9,56.765 4.9,56.765l4.776,101.184l7.967,101.957l0,11.154l26.292,-0.8l8.769,-109.128l12.748,-82.064l20.715,62.94l34.259,77.283a211.817,211.817 0 0 0 10.758,27.873l6.375,11.154l23.9,-2.793l-36.25,-122.276l-7.17,-79.671c-0.8,-44.617 -15.134,-69.316 -15.134,-69.316l0,-9.561l-71.718,-27.09z"/>
    <path id="svg_13" fill="#090814" d="m647.68148,757.78999s-3.984,-6.375 -3.984,-3.984s-10.36,8.77 -10.36,8.77s-10.358,-1.594 -11.952,10.358s14.344,14.342 18.327,13.542s14.342,0.8 14.342,0.8a71.1,71.1 0 0 0 20.715,0c12.748,-1.594 1.594,-23.105 0,-27.09s-9.561,-0.8 -9.561,-0.8c-14.34,3.98 -17.527,-1.596 -17.527,-1.596z"/>
    <path id="svg_14" fill="#090814" d="m528.17047,769.73598s-3.984,-6.373 -3.984,-3.984s-10.358,8.769 -10.358,8.769s-10.358,-1.594 -11.952,10.358s14.342,14.342 18.325,13.544s14.342,0.8 14.342,0.8a71.1,71.1 0 0 0 20.715,0c12.748,-1.594 1.594,-23.105 0,-27.09s-9.561,-0.8 -9.561,-0.8c-14.34,3.979 -17.527,-1.597 -17.527,-1.597z"/>
    <path id="svg_15" fill="#b45309" d="m583.14647,349.85898c-19.919,-20.715 -41.43,31.073 -41.43,31.073s-7.171,19.122 -1.594,29.48s-5.577,33.463 -5.577,33.463c27.285,23.227 54.475,44.695 79.674,29.48c-3.187,-19.122 7.171,-28.682 14.342,-47.007s20.715,-14.342 20.715,-14.342s-0.8,-20.715 -3.187,-37.447s-23.9,-23.013 -23.9,-23.013c-3.902,7.006 -19.124,19.026 -39.043,-1.687z"/>
    <path id="svg_16" fill="#9f616a" d="m548.08348,383.32099l-7.171,50.991l-30.273,54.178c-8.769,7.967 -0.8,27.09 -0.8,27.09l7.966,-5.574l1.594,-9.561s35.057,-39.838 43.821,-49.4s11.952,-62.145 11.952,-62.145l-27.089,-5.579z"/>
    <path id="svg_17" fill="#b45309" d="m543.30749,391.28899l33.463,3.984s2.39,-39.037 -2.663,-48.8s-23.63,0.99 -23.63,0.99c-4.779,0.802 -7.17,43.826 -7.17,43.826z"/>
    <path id="svg_18" fill="#090814" d="m543.75548,288.96497c21.431,10.711 9.066,39.956 11.6,52.227c4.143,20.1 65.236,9.885 65.236,9.885c7.433,-1.337 11.963,-84.033 -28.743,-83.307c-20.523,0.372 -34.72,6.884 -48.093,21.195z"/>
   </g>
   <g id="svg_19">
    <path id="svg_20" fill="#3f3d56" d="m339.37023,352.09901l-296.571,0.1a41.125,41.125 0 0 1 -35.713,-61.806l148.191,-269.774a41.215,41.215 0 0 1 71.386,-0.025l148.4,269.7a41.214,41.214 0 0 1 -35.69,61.8l0,0l-0.003,0.005zm-334.136,-41.106c0,6.442 32.725,-7.44 36.115,-1.572c6.782,11.736 -12.107,39.062 1.448,39.057c0,0 322.261,-7.12 329.035,-18.861a37.111,37.111 0 0 0 -0.014,-37.495l-148.397,-269.7a37.1,37.1 0 0 0 -32.458,-18.7c-13.549,0 -185.729,300.833 -185.73,307.277l0,0l0.001,-0.006z"/>
    <g id="svg_21">
     <circle id="svg_22" fill="#CA8A04" r="103.25" cy="214.03" cx="198.66423"/>
     <path id="svg_23" fill="#fff" d="m190.49523,240.539l-1.083,-91.27l18.418,0l-1.174,91.27l-16.161,0zm8.216,38.255a11.746,11.746 0 0 1 -8.622,-3.566a12.1,12.1 0 0 1 0,-17.154a11.746,11.746 0 0 1 8.622,-3.566a11.6,11.6 0 0 1 8.577,3.566a11.822,11.822 0 0 1 3.521,8.622a11.716,11.716 0 0 1 -3.521,8.533a11.6,11.6 0 0 1 -8.577,3.566l0,-0.001z"/>
    </g>
   </g>
  </g>
 </g>
</svg>