<svg width="618.67538" height="487.32493" xmlns="http://www.w3.org/2000/svg" source="https://undraw.co/" artist="Katerina Limpitsouni" role="img">

 <g>
  <title>Layer 1</title>
  <path id="svg_1" fill="#f0f0f0" d="m148.53225,264.22048c-4.93763,-26.4263 2.83614,-56.49071 24.44276,-72.48657a123.86324,123.86324 0 0 0 25.82184,81.0254c6.93546,8.88938 15.575,18.05438 15.3066,29.32608c-0.16685,7.01352 -3.95986,13.54729 -8.95834,18.46962c-4.99885,4.92244 -11.15635,8.4713 -17.24022,11.965l-0.947,1.47318c-17.83438,-20.11636 -33.48802,-43.34641 -38.42564,-69.77271z"/>
  <path id="svg_2" fill="#fff" d="m173.36868,192.1379a105.86978,105.86978 0 0 0 -6.98907,64.76135a45.59106,45.59106 0 0 0 4.82767,13.44405a26.14858,26.14858 0 0 0 9.87837,9.58161c3.77061,2.17874 7.87983,3.9707 11.05516,7.02808a16.01082,16.01082 0 0 1 4.71318,12.21634c-0.152,5.62259 -2.31531,10.85523 -4.60862,15.8988c-2.5463,5.59993 -5.27982,11.37615 -5.11468,17.672c0.02,0.76283 -1.16482,0.74927 -1.1848,-0.01241c-0.28731,-10.95373 7.6319,-19.75079 9.39647,-30.26133c0.82338,-4.9044 0.17374,-10.08666 -3.27429,-13.88828c-3.01516,-3.32434 -7.251,-5.17585 -11.08793,-7.34888a27.90258,27.90258 0 0 1 -10.008,-9.00886a42.1481,42.1481 0 0 1 -5.32674,-13.20885a102.71242,102.71242 0 0 1 -2.32806,-32.01772a107.74713,107.74713 0 0 1 9.03456,-35.46463c0.31048,-0.69431 1.32523,-0.08107 1.01677,0.60871l0.00001,0.00002z"/>
  <path id="svg_3" fill="#fff" d="m164.50678,249.97048a15.88384,15.88384 0 0 1 -16.57127,-12.18327c-0.17318,-0.74241 0.97236,-1.0464 1.14577,-0.303a14.70808,14.70808 0 0 0 15.4379,11.30147c0.76028,-0.05715 0.74352,1.128 -0.0124,1.1848z"/>
  <path id="svg_4" fill="#fff" d="m179.02833,279.072a30.61478,30.61478 0 0 0 7.6736,-20.95c-0.0173,-0.76288 1.16751,-0.74955 1.1848,0.0124a31.844,31.844 0 0 1 -8.0294,21.7842c-0.5077,0.57079 -1.334,-0.27886 -0.829,-0.84655l0,-0.00005z"/>
  <path id="svg_5" fill="#fff" d="m165.67268,215.47934a8.991,8.991 0 0 0 7.987,-2.99869c0.50022,-0.57694 1.326,0.27336 0.829,0.84655a10.07516,10.07516 0 0 1 -8.82846,3.33694a0.61234,0.61234 0 0 1 -0.5862,-0.5986a0.59543,0.59543 0 0 1 0.5986,-0.5862l0.00006,0z"/>
  <path id="svg_6" fill="#f0f0f0" d="m261.33394,213.59248c-0.3021,0.36914 -0.60419,0.73828 -0.90372,1.1171a118.40662,118.40662 0 0 0 -10.837,15.85813c-0.25247,0.4268 -0.5019,0.86314 -0.74157,1.29631a124.827,124.827 0 0 0 -14.56489,43.58858a121.22216,121.22216 0 0 0 -1.1114,18.385c0.13349,8.49015 0.95374,17.685 -1.6487,25.49357a20.7962,20.7962 0 0 1 -0.93651,2.39744l-41.76166,13.30563c-0.11008,-0.01739 -0.21761,-0.02515 -0.32816,-0.0424l-1.64313,0.6075c-0.02711,-0.31672 -0.04842,-0.64578 -0.07553,-0.9625c-0.01649,-0.18365 -0.02368,-0.37027 -0.04017,-0.55392c-0.00805,-0.12337 -0.01565,-0.247 -0.03,-0.35783c-0.00284,-0.04105 -0.0052,-0.08226 -0.005,-0.11383c-0.01432,-0.11088 -0.01584,-0.21538 -0.02712,-0.31672c-0.12421,-1.83906 -0.23913,-3.68114 -0.33449,-5.52939c-0.003,-0.00954 -0.003,-0.00954 0.00322,-0.022c-0.7168,-14.07671 -0.26472,-28.33693 2.33742,-42.07519c0.07843,-0.4133 0.15335,-0.836 0.25085,-1.25539a115.67539,115.67539 0 0 1 5.11549,-18.17043a102.26,102.26 0 0 1 4.12386,-9.4897a85.03636,85.03636 0 0 1 15.4366,-21.64774c12.45869,-12.68053 28.83416,-21.23539 46.38074,-21.50476c0.44894,-0.00664 0.88896,-0.01046 1.34087,-0.00746z"/>
  <path id="svg_7" fill="#fff" d="m261.40893,214.1524a105.86977,105.86977 0 0 0 -44.57119,47.50041a45.59089,45.59089 0 0 0 -4.23962,13.64092a26.14852,26.14852 0 0 0 2.11853,13.59783c1.69887,4.00977 3.901,7.91459 4.59554,12.2675a16.01085,16.01085 0 0 1 -3.59187,12.59173c-3.50659,4.39778 -8.38424,7.27332 -13.25191,9.91959c-5.40461,2.93818 -11.06486,5.9044 -14.72356,11.03072c-0.4433,0.62113 -1.38115,-0.103 -0.93852,-0.72323c6.3655,-8.91892 17.985,-11.175 25.722,-18.50465c3.61022,-3.42017 6.2116,-7.949 5.74737,-13.06037c-0.40595,-4.46963 -2.67333,-8.49826 -4.42856,-12.54337a27.90252,27.90252 0 0 1 -2.56685,-13.21857a42.1476,42.1476 0 0 1 3.69953,-13.75359a102.71244,102.71244 0 0 1 17.418,-26.966a107.7471,107.7471 0 0 1 28.56574,-22.87709c0.66593,-0.36744 1.10694,0.73315 0.44536,1.09818l0.00001,-0.00001z"/>
  <path id="svg_8" fill="#fff" d="m219.51399,254.99296a15.88383,15.88383 0 0 1 -5.89607,-19.7047c0.30871,-0.697 1.40639,-0.25007 1.09727,0.4479a14.70809,14.70809 0 0 0 5.522,18.31828c0.64145,0.41211 -0.08546,1.34828 -0.72323,0.93852l0.00003,0z"/>
  <path id="svg_9" fill="#fff" d="m213.58749,286.9719a30.61481,30.61481 0 0 0 18.74032,-12.1074c0.44549,-0.61954 1.38348,0.10445 0.93853,0.72323a31.844,31.844 0 0 1 -19.52661,12.55921c-0.749,0.15008 -0.8972,-1.02578 -0.15224,-1.175l0,-0.00004z"/>
  <path id="svg_10" fill="#fff" d="m241.21089,228.15568a8.991,8.991 0 0 0 8.18263,2.41447c0.74676,-0.1595 0.89413,1.01658 0.15224,1.175a10.07517,10.07517 0 0 1 -9.0581,-2.651a0.61234,0.61234 0 0 1 -0.10765,-0.83088a0.59542,0.59542 0 0 1 0.83088,-0.10765l0,0.00006z"/>
  <path id="svg_11" fill="#ffb6b6" d="m326.93229,69.08372a11.998,11.998 0 0 1 0.27275,1.86948l48.96421,28.24728l11.90145,-6.85145l12.68763,16.60992l-19.89042,14.17669a9.11865,9.11865 0 0 1 -10.94032,-0.26653l-50.49052,-39.83232a11.96492,11.96492 0 1 1 7.49522,-13.953l0,-0.00007z"/>
  <path id="svg_12" fill="#3f3d56" d="m376.84902,96.08169a5.12374,5.12374 0 0 1 2.55812,-3.42018l22.60587,-12.31694a14.24493,14.24493 0 0 1 17.22192,22.6952l-18.118,18.40583a5.12928,5.12928 0 0 1 -7.7502,-0.50981l-15.59925,-20.68238a5.1235,5.1235 0 0 1 -0.91846,-4.17172z"/>
  <path id="svg_13" fill="#2f2e41" d="m417.23526,24.47568c3.25253,-10.3657 10.64889,-19.87274 20.87788,-23.37691c10.22961,-3.50416 25.20832,1.83383 32.89869,9.49818c14.06716,14.01962 17.50009,62.18212 7.83535,77.402c-1.92234,-0.10176 -8.55563,-0.177 -10.50126,-0.24989l-2.75233,-9.17342l0,9.083c-15.18626,-0.46933 -30.99655,-0.17547 -46.81542,0.12842c-1.41785,-10.77583 -4.79549,-52.94569 -1.54291,-63.31138z"/>
  <polygon id="svg_14" fill="#ffb6b6" points="412.883 459.573 399.032 459.573 392.443 406.146 412.886 406.147 412.883 459.573"/>
  <polygon id="svg_15" fill="#ffb6b6" points="534.137 450.96 520.734 454.453 500.881 404.416 520.663 399.261 534.137 450.96"/>
  <polygon id="svg_16" fill="#ffb6b6" points="457.805 131.433 460.944 139.593 460.316 147.753 398.892 169.028 401.94 133.316 408.844 125.155 457.805 131.433"/>
  <circle id="svg_17" fill="#ffb7b7" r="21.93835" cy="36.06123" cx="438.38411"/>
  <path id="svg_18" fill="#2f2e41" d="m423.30981,7.49364a27.55525,27.55525 0 0 1 41.89371,24.04843c-11.95861,3.05648 -24.70245,4.33492 -38.20715,0.73613l-3.087,-7.55528l-1.82,7.56087q-6.19739,4.35942 -11.96314,-0.0157a28.13543,28.13543 0 0 1 13.18358,-24.77445z"/>
  <path id="svg_19" fill="#2f2e41" d="m419.07946,485.87381l-9.82872,0l-1.75438,-9.27947l-4.49323,9.27947l-26.06809,0a5.85987,5.85987 0 0 1 -3.32977,-10.682l20.8172,-14.37711l0,-9.38122l21.89607,1.3069l2.76092,33.13343z"/>
  <path id="svg_20" fill="#2f2e41" d="m547.98155,474.53061l-9.51091,2.47915l-4.03827,-8.53691l-2.00733,10.11278l-25.2252,6.5753a5.85987,5.85987 0 0 1 -5.91649,-9.49672l16.51768,-19.16308l-2.36628,-9.07789l21.51772,-4.25833l11.02908,31.3657z"/>
  <path id="svg_21" fill="#2f2e41" d="m532.43746,417.36116l-40.60126,-83.44757l-12.74552,-101.56611c8.78784,-16.32032 -7.53247,-49.52881 -7.53247,-49.52881l0,-13.94298l-63.22042,11.92679l0,0.00007a303.46685,303.46685 0 0 0 -18.4925,110.18756l2.54739,135.0099l-0.79913,0a5,5 0 0 0 0,10l25,0a5,5 0 1 0 0,-10l-0.6446,0l17.947,-171.75659l20.86791,84.75757l50.4297,78.03937a4.98737,4.98737 0 0 0 0.4,9.95965l25,0a4.99479,4.99479 0 0 0 1.84387,-9.63885l0.00003,0z"/>
  <path id="svg_22" fill="#3f3d56" d="m477.27401,191.36684l-0.00007,0a3.98673,3.98673 0 0 0 -3.6051,-2.99482c-0.83331,-9.52728 -6.33935,-70.62872 -6.54883,-72.42126l-0.00817,-0.07581l-1.5943,-34.05774a5.03657,5.03657 0 0 0 -4.70252,-4.79034l-8.42078,-0.55042a0.4456,0.4456 0 0 1 -0.4306,-0.44531a7.08138,7.08138 0 0 0 -7.08136,-7.08142l-24.93115,0a6.63,6.63 0 0 0 -6.57562,5.80383a0.44014,0.44014 0 0 1 -0.448,0.39612l-0.003,-0.00006a11.84463,11.84463 0 0 0 -11.91547,9.82434c-3.40838,19.831 -10.23907,64.83985 -6.86188,89.86218c1.17566,8.7107 0.6413,21.81159 0.19672,29.0998a5.36474,5.36474 0 0 0 1.33563,3.88958a3.99245,3.99245 0 0 0 -2.76635,4.80768l0.00006,0a4,4 0 0 0 4.85638,2.90088l76.60346,-19.31085a4,4 0 0 0 2.90095,-4.85638z"/>
  <path id="svg_23" fill="#fff" d="m350.66834,334.54979a9.46427,9.46427 0 0 0 -7.94542,-9.28146l-135.81452,-22.30236a9.46324,9.46324 0 0 0 -3.9134,0.1739l-31.829,8.23l-18.26249,4.72769l-33.70263,8.71225a9.494,9.494 0 0 0 -7.10734,9.18659l0,142.31428a9.53548,9.53548 0 0 0 7.51055,9.27354l138.33659,-1.56645a9.21708,9.21708 0 0 0 1.97646,0.20546a9.469,9.469 0 0 0 2.854,-0.43476l82.18915,2.04514a9.44808,9.44808 0 0 0 6.633,-9.12338l-0.92495,-142.16044z"/>
  <path id="svg_24" fill="#ccc" d="m350.66834,334.54979a9.46427,9.46427 0 0 0 -7.94542,-9.28146l-135.81452,-22.30236a9.46324,9.46324 0 0 0 -3.9134,0.1739l-31.829,8.23l-18.26249,4.72769l-33.70263,8.71225a9.494,9.494 0 0 0 -7.10734,9.18659l0,142.31428a9.53548,9.53548 0 0 0 7.51055,9.27354l138.33659,-1.56645a9.21708,9.21708 0 0 0 1.97646,0.20546a9.469,9.469 0 0 0 2.854,-0.43476l82.18915,2.04514a9.44808,9.44808 0 0 0 6.633,-9.12338l-0.92495,-142.16044zm-6.41955,149.02269l-82.1892,1.955a7.2139,7.2139 0 0 1 -3.62089,0.1739l-138.3444,-2.43345a7.15287,7.15287 0 0 1 -5.629,-6.95718l0,-142.31434a7.12342,7.12342 0 0 1 4.66447,-6.68049a5.91067,5.91067 0 0 1 0.66406,-0.20556l35.6554,-9.21815l21.08488,-5.45506l27.05378,-6.99665a6.78179,6.78179 0 0 1 1.77882,-0.2293a7.03578,7.03578 0 0 1 1.15427,0.09487l135.81456,22.30241a7.13606,7.13606 0 0 1 5.17046,3.73946a7.11625,7.11625 0 0 1 0.79058,3.21763l0.925,142.16045a7.0903,7.0903 0 0 1 -4.97279,6.84646z"/>
  <path id="svg_25" fill="#ccc" d="m347.506,331.34798a1.03008,1.03008 0 0 1 -0.30043,0.13433l-39.94826,10.79942l-12.43589,3.36l-35.37074,9.55812a1.37238,1.37238 0 0 1 -0.30834,0.03957a1.93522,1.93522 0 0 1 -0.21347,-0.01583l-142.62145,-26.00234l-0.47438,-0.087a1.18938,1.18938 0 0 1 0.42694,-2.3401l2.86983,0.52172l139.96509,25.52009l30.48494,-8.23783l17.05292,-4.60917l39.33159,-10.63332l0.62454,-0.166a1.19153,1.19153 0 0 1 1.38353,0.64824a0.92646,0.92646 0 0 1 0.07117,0.18973a1.18891,1.18891 0 0 1 -0.53759,1.32037z"/>
  <path id="svg_26" fill="#ccc" d="m260.32821,484.50001c-0.65007,0 -1.1797,-0.52345 -1.18588,2.82494l-1.18587,-129.2606c-0.00618,-4.6547 0.52036,-5.19051 1.17507,-5.19668l0.0108,0c0.65007,0 1.1797,0.52345 1.18588,5.17506l1.18588,129.2606c0.00617,-3.3453 -0.52037,-2.80949 -1.17507,-2.80332l-0.01081,0z"/>
  <path id="svg_27" fill="#ccc" d="m307.59359,486.00001l-12.77217,0.13525l-5.24158,-141.53708l-133.74316,-26.61111a3.07292,3.07292 0 0 1 -0.38738,-0.09486a4.715,4.715 0 0 1 -2.54571,-1.79464l18.26249,-4.72769l5.3681,1.06727l126.90467,25.24342a4.71752,4.71752 0 0 1 3.19394,2.30844c0.39526,0.68781 0.95289,145.18886 0.9608,146.011z"/>
  <path id="svg_28" fill="#fff" d="m409.89627,75.48948a7.13278,7.13278 0 0 0 -5.98809,-6.995l-102.35708,-16.80823a7.13207,7.13207 0 0 0 -2.94935,0.13107l-23.988,6.20258l-13.76358,3.563l-25.40011,6.566a7.15519,7.15519 0 0 0 -5.35647,6.92351l0,83.89238a7.18645,7.18645 0 0 0 5.66035,6.989l104.25774,22.18278a6.94672,6.94672 0 0 0 1.48957,0.15485a7.1363,7.1363 0 0 0 2.151,-0.32766l61.94214,-19.561a7.1206,7.1206 0 0 0 4.999,-6.87587l-0.69712,-86.03741z"/>
  <path id="svg_29" fill="#b45309" d="m300.39214,57.84694a0.86575,0.86575 0 0 0 -0.2214,0.02851l-63.15212,16.33171a0.89268,0.89268 0 0 0 -0.66885,0.86406l0,83.89114a0.89707,0.89707 0 0 0 0.70667,0.87338l104.25777,22.18233a0.90066,0.90066 0 0 0 0.455,-0.02211l61.9433,-19.56046a0.88761,0.88761 0 0 0 0.62317,-0.85883l-0.69416,-86.03705a0.89125,0.89125 0 0 0 -0.74827,-0.87337l-102.35681,-16.80768a0.92856,0.92856 0 0 0 -0.1443,-0.01163z"/>
  <path id="svg_30" fill="#3f3d56" d="m409.89627,75.48948a7.13278,7.13278 0 0 0 -5.98809,-6.995l-102.35708,-16.80823a7.13207,7.13207 0 0 0 -2.94935,0.13107l-23.988,6.20258l-13.76358,3.563l-25.40011,6.566a7.15519,7.15519 0 0 0 -5.35647,6.92351l0,83.89238a7.18645,7.18645 0 0 0 5.66035,6.989l104.25774,22.18278a6.94672,6.94672 0 0 0 1.48957,0.15485a7.1363,7.1363 0 0 0 2.151,-0.32766l61.94214,-19.561a7.1206,7.1206 0 0 0 4.999,-6.87587l-0.69712,-86.03741zm-4.83811,91.20915l-61.94218,19.561a5.43668,5.43668 0 0 1 -2.72889,0.13106l-104.26374,-22.18255a5.39079,5.39079 0 0 1 -4.24228,-5.2433l0,-83.89236a5.36856,5.36856 0 0 1 3.51539,-5.03478a4.454,4.454 0 0 1 0.50047,-0.15492l26.87182,-6.94729l15.89069,-4.11122l20.38918,-5.27306a5.11131,5.11131 0 0 1 1.34061,-0.17281a5.30328,5.30328 0 0 1 0.86992,0.0715l102.35708,16.80832a5.37814,5.37814 0 0 1 3.89673,2.81825a5.36322,5.36322 0 0 1 0.59583,2.425l0.69711,86.03741a5.34366,5.34366 0 0 1 -3.74774,5.15978l0,-0.00003z"/>
  <path id="svg_31" fill="#3f3d56" d="m407.51296,73.07648a0.7765,0.7765 0 0 1 -0.22642,0.10125l-30.10714,8.139l-9.37235,2.53227l-26.65729,7.20348a1.03438,1.03438 0 0 1 -0.23238,0.02982a1.45818,1.45818 0 0 1 -0.16088,-0.01193l-107.48715,-19.59673l-0.35752,-0.06553a0.89638,0.89638 0 0 1 0.32177,-1.76363l2.16286,0.3932l105.48522,19.23331l22.975,-6.20851l12.852,-3.47372l29.64238,-8.01384l0.47069,-0.1251a0.898,0.898 0 0 1 1.0427,0.48854a0.6979,0.6979 0 0 1 0.05364,0.143a0.896,0.896 0 0 1 -0.40513,0.99512z"/>
  <path id="svg_32" fill="#3f3d56" d="m341.81112,188.50001a0.89376,0.89376 0 0 1 -0.89374,-0.88559l-0.89374,-97.41769a0.894,0.894 0 0 1 0.8856,-0.90189l0.00814,0a0.89375,0.89375 0 0 1 0.89374,0.8856l0.89374,97.41769a0.894,0.894 0 0 1 -0.88559,0.90188l-0.00815,0z"/>
  <path id="svg_33" fill="#3f3d56" d="m377.1794,176.64901l-9.37235,2.53226l-3.95037,-96.11879l-100.796,-20.05552a2.31582,2.31582 0 0 1 -0.292,-0.07149a3.55344,3.55344 0 0 1 -1.91858,-1.35254l13.76358,-3.563l4.04569,0.80435l95.64214,19.02478a3.55544,3.55544 0 0 1 2.40713,1.73977c0.29798,0.51834 0.46479,96.44057 0.47076,97.06018z"/>
  <path id="svg_34" fill="#ffb6b6" d="m372.98055,121.84605a11.9974,11.9974 0 0 1 1.33458,1.33724l56.14627,-6.55726l5.46049,-12.60039l20.09331,5.75539l-7.49893,23.24594a9.11865,9.11865 0 0 1 -8.93738,6.31544l-64.28505,-1.82747a11.96491,11.96491 0 1 1 -2.31329,-15.66889z"/>
  <path id="svg_35" fill="#3f3d56" d="m429.14552,113.71789a5.12374,5.12374 0 0 1 0.01139,-4.271l10.78767,-23.37432a14.24493,14.24493 0 0 1 27.36329,7.932l-3.55278,25.58154a5.12927,5.12927 0 0 1 -6.52288,4.21634l-24.86,-7.28539a5.12351,5.12351 0 0 1 -3.22669,-2.79917z"/>
  <path id="svg_36" fill="#cacaca" d="m617.48468,487.04109l-616.294,0a1.19069,1.19069 0 0 1 0,-2.38137l616.294,0a1.19068,1.19068 0 0 1 0,2.38137z"/>
  <circle id="svg_37" fill="#b45309" r="35.81102" cy="324.71266" cx="120.11268"/>
  <path id="svg_38" fill="#fff" d="m115.2273,343.35064a3.98231,3.98231 0 0 1 -3.18646,-1.59372l-9.7698,-13.0266a3.98339,3.98339 0 1 1 6.37358,-4.77986l6.39173,8.52166l16.41633,-24.62419a3.98356,3.98356 0 1 1 6.629,4.41936l-19.53954,29.30939a3.98517,3.98517 0 0 1 -3.204,1.77267c-0.03692,0.00065 -0.07388,0.00129 -0.11084,0.00129z"/>
  <path id="svg_39" fill="#fff" d="m272.59456,134.50048a1.512,1.512 0 0 1 -0.33105,-0.03711l-31,-7a1.50014,1.50014 0 0 1 0.66015,-2.92675l31,7a1.50038,1.50038 0 0 1 -0.3291,2.96386z"/>
  <path id="svg_40" fill="#e6e6e6" d="m153.28836,416.23636a1.5126,1.5126 0 0 1 -0.33167,0.03114l-31.776,-0.5351a1.50015,1.50015 0 0 1 0.04982,-2.99988l31.776,0.53511a1.50039,1.50039 0 0 1 0.28186,2.96873l-0.00001,0z"/>
  <path id="svg_41" fill="#e6e6e6" d="m164.28836,433.23636a1.5126,1.5126 0 0 1 -0.33167,0.03114l-31.776,-0.5351a1.50015,1.50015 0 0 1 0.04982,-2.99988l31.776,0.53511a1.50039,1.50039 0 0 1 0.28186,2.96873l-0.00001,0z"/>
 </g>
</svg>