<svg width="500.00000000000006" height="500.00000000000006" xmlns="http://www.w3.org/2000/svg" class="illustrations_image" imageName="Report Analysis" data-imageid="report-analysis-17" xml:space="preserve" version="1.1">

 <g>
  <title>Layer 1</title>
  <path fill="#F4B269" d="m469.6,287.1l-170.6,-99.2c-2.5,-1.4 -5.6,-1.4 -8.1,0l-255,146c-3.9,2.2 -5.2,7.1 -3,11c0.7,1.3 1.8,2.3 3,3l163.1,94.1c8.1,4.7 18.2,4.7 26.3,0l244.2,-141c3.8,-2.3 5.1,-7.2 2.9,-11c-0.7,-1.2 -1.6,-2.2 -2.8,-2.9z" class="st0_report-analysis-17" id="Base_report-analysis-17"/>
  <g id="Shadow_report-analysis-17">
   <path id="svg_1" fill="url(#SVGID_1_)" d="m420.5,290.9c-7.5,5 -123.9,72.3 -131.3,77.4c12.6,7 16.2,8.9 17.6,9.9l132.3,-75.6l-18.6,-11.7z" class="st1_report-analysis-17"/>
   <path id="svg_2" fill="url(#SVGID_00000025430761074641047200000013901077896563287438_)" d="m187.5,390.9c-7.5,5 -30.2,15.1 -37.6,20.2c12.6,7 40.9,23.1 42.3,24.1l35.9,-19.9l-40.6,-24.4z"/>
   <path id="svg_3" fill="url(#SVGID_00000034804414320141174500000014794541114654922121_)" d="m232.5,260c-22.6,15 -89.5,61.6 -111.9,76.9c38,21 104.5,58.4 108.7,61.4l100.8,-69.1l-97.6,-69.2z"/>
   <path id="svg_4" fill="url(#SVGID_00000000222015685665872220000006122907014906222512_)" d="m85.6,339.6c-8.8,6 -18,11.3 -27,16.9c8.6,4.9 16.6,9.5 17.3,10l28.2,-15.7l-18.5,-11.2z"/>
  </g>
  <g id="Bar_Chart_report-analysis-17">
   <polygon id="svg_5" fill="#FFA75F" points="427.5,255.3 439.2,248.6 439.2,302.5 428.3,308.9 	" class="st5_report-analysis-17"/>
   <polygon id="svg_6" fill="#FFA75F" points="427.5,255.3 415.8,248.6 416.1,301.8 428.3,308.9 	" class="st5_report-analysis-17"/>
   <polygon id="svg_7" enable-background="new" fill="#34323D" opacity="0.19" points="427.5,255.3 415.8,248.6 416.1,301.8 428.3,308.9 	" class="st6_report-analysis-17"/>
   <polygon id="svg_8" fill="#FFA75F" points="415.8,248.6 427.5,241.7 439.2,248.6 427.5,255.3 	" class="st5_report-analysis-17"/>
   <polygon id="svg_9" enable-background="new" fill="#F2F2F2" opacity="0.53" points="415.8,248.6 427.5,241.7 439.2,248.6 427.5,255.3 	" class="st7_report-analysis-17"/>
   <polygon id="svg_10" fill="#68E1FD" points="406.4,276.9 418.1,270.1 418.1,314.7 407.1,320.9 	" class="st8_report-analysis-17 targetColor"/>
   <polygon stroke="null" id="svg_11" fill="#b45309" points="406.3999813029877,276.84876175634963 394.70001220703125,270.1000061035156 394.9999933979634,313.4706912747024 407.0999959692963,320.51718572743266 " class="st8_report-analysis-17 targetColor"/>
   <polygon id="svg_12" fill="#68E1FD" points="394.7,270.1 406.4,263.3 418.1,270.1 406.4,276.9 	" class="st8_report-analysis-17 targetColor"/>
   <polygon id="svg_13" fill="#b45309" points="406.4,276.9 418.1,270.1 418.1,314.7 407.1,320.9 	" class="st8_report-analysis-17 targetColor"/>
   <polygon stroke="null" id="svg_14" enable-background="new" fill="#34323D" opacity="0.19" points="404.3840971104073,276.08013916015625 397.3796491128669,270.1000061035156 397.5592388443474,308.5311279296875 404.8031921386719,314.7751159667969 " class="st6_report-analysis-17"/>
   <polygon id="svg_15" enable-background="new" fill="#b45309" opacity="0.53" points="394.7,270.1 406.4,263.3 418.1,270.1 406.4,276.9 	" class="st7_report-analysis-17"/>
   <polygon id="svg_16" fill="#b45309" points="383.6,297.7 395.3,290.9 395.9,327.5 383.6,334.7 	" class="st8_report-analysis-17 targetColor"/>
   <polygon id="svg_17" fill="#b45309" points="383.6,297.7 371.9,290.9 371.9,327.8 383.6,334.7 	" class="st8_report-analysis-17 targetColor"/>
   <polygon stroke="null" id="svg_18" enable-background="new" fill="#b45309" opacity="0.19" points="380.6000061035156,311.8872204451527 372.8999938964844,309.8999939052501 372.8999938964844,320.68356247000156 380.6000061035156,322.70001220703125 " class="st6_report-analysis-17"/>
   <polygon id="svg_19" fill="#68E1FD" points="371.9,290.9 383.6,284 395.3,290.9 383.6,297.7 	" class="st8_report-analysis-17 targetColor"/>
   <polygon id="svg_20" enable-background="new" fill="#F2F2F2" opacity="0.53" points="371.9,290.9 383.6,284 395.3,290.9 383.6,297.7 	" class="st7_report-analysis-17"/>
   <polygon id="svg_21" fill="#ED7E7E" points="359.6,321.7 371.3,315 371.7,341.3 359.6,348.2 	" class="st9_report-analysis-17"/>
   <polygon id="svg_22" fill="#ED7E7E" points="359.6,321.7 347.9,315 347.9,341.4 359.6,348.2 	" class="st9_report-analysis-17"/>
   <polygon id="svg_23" enable-background="new" fill="#34323D" opacity="0.19" points="359.6,321.7 347.9,315 347.9,341.4 359.6,348.2 	" class="st6_report-analysis-17"/>
   <polygon id="svg_24" fill="#ED7E7E" points="347.9,315 359.6,308.1 371.3,315 359.6,321.7 	" class="st9_report-analysis-17"/>
   <polygon id="svg_25" enable-background="new" fill="#F2F2F2" opacity="0.53" points="347.9,315 359.6,308.1 371.3,315 359.6,321.7 	" class="st7_report-analysis-17"/>
  </g>
  <g id="Report_report-analysis-17">
   <path id="svg_26" fill="#68E1FD" d="m380.9,100.7c0,0 24.7,6.2 17.4,45.9l-54.1,-30.6c0,0 21.9,-19.1 36.7,-15.3z" class="st8_report-analysis-17 targetColor"/>
   <path id="svg_27" enable-background="new" fill="#34323D" opacity="0.39" d="m380.9,100.7c0,0 24.7,6.2 17.4,45.9l-54.1,-30.6c0,0 21.9,-19.1 36.7,-15.3z" class="st10_report-analysis-17"/>
   <path id="svg_28" fill="#b45309" d="m306.8,344.5c-42.5,-24.8 -79.8,-46.1 -121.4,-70.1c3.1,-1.5 5.1,-3.2 7.9,-4.5c77.2,-37 48.1,-91.5 47.8,-147.5c-0.1,-17.9 0.3,-36.6 5.8,-53.9c2,-6.3 4.7,-13 9.6,-18.1c2.8,-2.8 6.7,-6.1 11,-7c4.8,-1 9.3,2.3 13.1,4.3l13.3,7l35,18.4l28.4,14.9l5,2.6l21,11c-4,-2.1 -12.6,5 -14.8,7.2c-4.9,5.1 -7.6,11.8 -9.6,18.1c-5.5,17.3 -5.9,36 -5.8,53.9c0.3,55.2 27,126.3 -46.3,163.7z" class="st8_report-analysis-17 targetColor"/>
   <path id="svg_29" fill="#F2F2F2" d="m277.1,145.7l0,17.3l-4.5,-2.9l0,-17c1.5,0.8 3,1.7 4.5,2.6z" class="st11_report-analysis-17"/>
   <path id="svg_30" fill="#F2F2F2" d="m268,134.6l0,23.4l-4.5,-2.9l0,-22.7l4.5,2.2z" class="st11_report-analysis-17"/>
   <path id="svg_31" fill="#F2F2F2" d="m258.9,122.5l0,30.7l-4.6,-2.9l0,-29.7c1.6,0.7 3.1,1.3 4.6,1.9z" class="st11_report-analysis-17"/>
   <path id="svg_32" fill="#34323D" d="m312.5,165.8c-4,-4.1 -8.2,-6.2 -12.2,-6.2c-0.8,0 -1.5,0.1 -2.2,0.2c-3.1,0.8 -5.8,2.6 -7.6,5.2c-1.8,-2.4 -3.7,-4.8 -5.7,-7c3,-3.5 7,-5.9 11.4,-6.9c7.7,-1.6 15.7,1.4 22.6,8.4c2,2.1 3.9,4.4 5.5,6.9c-2.5,1.5 -5,3.2 -7.5,4.8c-1.2,-1.8 -2.7,-3.7 -4.3,-5.4z" class="st12_report-analysis-17"/>
   <path id="svg_33" fill="#ED7E7E" d="m312.4,228.2c4.2,-1.3 7.7,-5.2 9.9,-11.1c2.6,-7 3,-15.8 1.1,-24.7c-1.1,-5.3 -3,-10.3 -5.6,-15c2.5,-1.6 4.9,-3.3 7.5,-4.8c3.2,5.6 5.6,11.6 6.9,17.9c2.2,10.5 1.7,21 -1.5,29.6s-8.6,14.2 -15.4,16.4c-0.9,-2.7 -1.8,-5.5 -2.9,-8.3z" class="st9_report-analysis-17"/>
   <path id="svg_34" fill="#F2F2F2" d="m278.9,172.6c1.1,-3.1 2.7,-5.9 4.6,-8.5c2.1,2.3 4,4.7 5.8,7.2c-0.8,1.4 -1.5,2.9 -2.1,4.4c-2.6,7 -3,15.8 -1.1,24.7s5.8,16.8 11,22.1c4.4,4.5 9.1,6.6 13.4,6.1c1.1,2.8 2,5.6 2.9,8.5l-0.1,0c-1.4,0.3 -2.7,0.4 -4.1,0.4c-6.4,0 -12.8,-3.1 -18.5,-8.9c-6.4,-6.5 -11.1,-15.9 -13.3,-26.5s-1.7,-20.9 1.5,-29.5z" class="st11_report-analysis-17"/>
   <ellipse id="svg_35" fill="#F2F2F2" ry="10" rx="5.5" cy="195.12118" cx="301.48766" class="st11_report-analysis-17" transform="matrix(0.9939 -0.1106 0.1106 0.9939 -19.7183 34.3209)"/>
   <path id="svg_36" fill="#F2F2F2" d="m339.4,142.7l-8.7,-5.1l-20.8,-12.2l-25.2,-14.7l-21.8,-12.8l-7.1,-4.2c-1.1,-0.7 -2.2,-1.4 -3.4,-2l-0.2,-0.1c-0.4,-0.2 -0.8,0 -1,0.3s-0.1,0.8 0.2,1l8.7,5.1l20.9,12.2l25.2,14.8l21.8,12.7l7.2,4.2c1.1,0.7 2.2,1.4 3.4,2l0.2,0.1c0.4,0.2 0.8,0 1,-0.4c0,-0.3 -0.1,-0.7 -0.4,-0.9l0,0z" class="st11_report-analysis-17"/>
   <path id="svg_37" fill="#F2F2F2" d="m343.1,134.2l-8.7,-5.1l-20.8,-12.1l-25.2,-14.8l-21.8,-12.7l-7.2,-4.2c-1.1,-0.7 -2.2,-1.4 -3.4,-2l-0.2,-0.1c-0.4,-0.2 -0.8,0 -1,0.4c-0.1,0.3 0,0.7 0.2,0.9l8.7,5.1l20.8,12.2l25.2,14.7l21.8,12.7l7.2,4.2c1.1,0.7 2.2,1.4 3.4,2l0.2,0.1c0.4,0.2 0.8,0 1,-0.3c0.2,-0.3 0.1,-0.7 -0.2,-1l0,0z" class="st11_report-analysis-17"/>
   <path id="svg_38" fill="#F2F2F2" d="m339.4,152l-8.7,-5.1l-20.8,-12.2l-25.2,-14.8l-21.8,-12.7l-7.1,-4.2c-1.1,-0.7 -2.2,-1.4 -3.4,-2c-0.1,0 -0.1,-0.1 -0.2,-0.1c-0.4,-0.2 -0.8,0 -1,0.3s-0.1,0.8 0.2,1l8.7,5.1l20.9,12.2l25.2,14.7l21.8,12.8l7.2,4.2c1.1,0.7 2.2,1.4 3.4,2l0.2,0.1c0.4,0.2 0.8,0 1,-0.4c0,-0.3 -0.1,-0.7 -0.4,-0.9l0,0z" class="st11_report-analysis-17"/>
   <path id="svg_39" fill="#F2F2F2" d="m339.4,269.4l-8.7,-5.1l-20.8,-12.2l-25.2,-14.8l-21.8,-12.7l-7.1,-4.2c-1.1,-0.7 -2.2,-1.4 -3.4,-2c-0.1,0 -0.1,-0.1 -0.2,-0.1c-0.4,-0.2 -0.8,0 -1,0.3s-0.1,0.8 0.2,1l8.7,5.1l20.9,12.2l25.2,14.7l21.8,12.8l7.2,4.2c1.1,0.7 2.2,1.4 3.4,2l0.2,0.1c0.4,0.2 0.8,0 1,-0.4c0,-0.3 -0.1,-0.7 -0.4,-0.9z" class="st11_report-analysis-17"/>
   <path id="svg_40" fill="#F2F2F2" d="m338.8,278.8l-8.7,-5.1l-20.8,-12.2l-25.3,-14.7l-21.8,-12.8l-7.2,-4.2c-1.1,-0.7 -2.2,-1.4 -3.4,-2l-0.2,-0.1c-0.4,-0.2 -0.8,0 -1,0.4c-0.1,0.3 0,0.7 0.2,0.9l8.7,5.1l20.8,12.2l25.2,14.8l21.8,12.8l7.2,4.2c1.1,0.7 2.2,1.4 3.4,2l0.2,0.1c0.4,0.2 0.8,0 1,-0.3c0.3,-0.4 0.2,-0.8 -0.1,-1.1l0,0z" class="st11_report-analysis-17"/>
   <path id="svg_41" fill="#F2F2F2" d="m337.1,287.9l-8.7,-5.1l-20.9,-12.2l-25.2,-14.8l-21.8,-12.7l-7.2,-4.2c-1.1,-0.7 -2.2,-1.4 -3.4,-2l-0.2,-0.1c-0.4,-0.2 -0.8,-0.1 -1,0.3c-0.2,0.4 -0.1,0.8 0.3,1l0,0l8.7,5.1l20.8,12.2l25.2,14.7l21.8,12.8l7.2,4.2c1.1,0.6 2.2,1.4 3.4,2l0.2,0.1c0.4,0.2 0.8,0.1 1,-0.3s0.2,-0.7 -0.2,-1l0,0z" class="st11_report-analysis-17"/>
  </g>
  <g id="Magnifying_Glass_report-analysis-17">
   <path id="svg_42" fill="#E55600" d="m264.8,255.7l13.6,48.9c0,0 -1.2,13.2 -18.4,7.7l-11.7,-51.6c-0.1,0.1 2.5,-11.4 16.5,-5z" class="st13_report-analysis-17"/>
   <path id="svg_43" fill="#34323D" d="m244.4,232.7l8.6,29c0,0 7.3,3.8 9.6,-3.4l-7,-28.2l-11.2,2.6z" class="st12_report-analysis-17"/>
   <path id="svg_44" fill="#34323D" d="m231.1,226c-8.2,-6.4 -14.9,-16.3 -18.9,-27.9s-4.7,-23.5 -2.2,-33.6c2.7,-10.9 8.9,-18.5 17.5,-21.4l0,0c17.1,-5.9 37.3,9.1 45.8,34.1s1.8,49.1 -15.3,55c-4.4,1.5 -9.1,1.7 -13.6,0.5c-4.9,-1.2 -9.4,-3.5 -13.3,-6.7zm-0.4,-73.6c-5.3,1.8 -9.2,7 -11.1,14.5c-2.1,8.3 -1.4,18.2 2,28s8.9,18.1 15.6,23.3c6.1,4.8 12.4,6.4 17.7,4.6c11.5,-4 15.7,-23.4 9.2,-42.5c-5.1,-14.8 -15.4,-25.9 -25.2,-28.2c-2.7,-0.7 -5.6,-0.6 -8.2,0.3l0,0z" class="st12_report-analysis-17"/>
   <path id="svg_45" fill="#34323D" d="m241.3,156.6c-2.6,-1.9 -8.3,1.2 -10.2,2.9c-15.2,14.2 -7.9,40.8 5.3,54.4c4.9,5.1 16.6,12 20.8,9.1c0,0 -19,12.9 -32.6,-1.3s-16.9,-41.6 -16.9,-41.6l0.8,-14.5l5,-9.7l5,-5.4l12.5,-1.4l10.3,7.5z" class="st12_report-analysis-17"/>
   <path id="svg_46" fill="#662D91" d="m226.4,227.3c-8.2,-6.4 -14.9,-16.4 -18.9,-27.9s-4.7,-23.5 -2.2,-33.6c2.7,-10.9 8.9,-18.5 17.5,-21.4l0,0c17.1,-5.9 37.2,9.1 45.8,34.1s1.8,49.1 -15.3,55c-4.4,1.5 -9.1,1.7 -13.6,0.5c-4.8,-1.2 -9.4,-3.5 -13.3,-6.7zm-0.3,-73.6c-5.3,1.8 -9.2,7 -11.1,14.5c-2.1,8.3 -1.4,18.2 2,28s8.9,18.1 15.6,23.3c6.1,4.8 12.4,6.4 17.7,4.6c11.5,-4 15.7,-23.4 9.2,-42.5c-5.1,-14.8 -15.4,-25.9 -25.2,-28.2c-2.8,-0.6 -5.6,-0.5 -8.2,0.3z" class="st14_report-analysis-17"/>
  </g>
  <g id="Plant_report-analysis-17">
   <path id="svg_47" fill="#b45309" d="m79.2,320.7c0,0 -3.3,26.2 11.6,31.3s22.8,-8.1 23,-31.2" class="st8_report-analysis-17 targetColor"/>
   <ellipse id="svg_48" fill="#34323D" ry="9.3" rx="17.3" cy="320.7" cx="96.4" class="st12_report-analysis-17"/>
   <path id="svg_49" fill="#99CE34" d="m96.4,320.7c0,0 0,-36.2 -18.5,-51c0,0 -9.9,5.9 -7.4,14.9s13.1,2.4 14.9,7.1s-3.6,6.1 0.1,11s10.9,8.7 10.9,18z" class="st15_report-analysis-17"/>
   <path id="svg_50" fill="#99CE34" d="m100.2,317.7c0,0 -1.5,-42 7.8,-54.5s15.5,4.7 11.3,12.3s-11.5,5.7 -8.9,12.3s7.2,10 2,12.8s-12.6,11.7 -12.2,17.1z" class="st15_report-analysis-17"/>
  </g>
  <g id="Character_report-analysis-17">
   <path id="svg_51" fill="#FCBF81" d="m218.5,230.7c0.3,-0.7 0.6,-1.4 1,-2c0,0 0,0.1 0.1,0.1c0,0.1 0.2,0.2 0.3,0.2s0.1,-0.1 0.2,-0.1l0.7,-1.1c0,0.1 0,0.3 0,0.4c0.1,0.6 0.7,1 1.2,0.9c0.6,0 1.1,-0.6 1,-1.2c0,-0.1 0,-0.1 0,-0.2c0.1,-0.1 0.2,-0.3 0.3,-0.4c0,0.1 0,0.2 0,0.3c0.2,0.5 0.8,0.8 1.3,0.6c0.1,0 0.2,-0.1 0.3,-0.2c0.1,-0.1 0.2,-0.2 0.4,-0.4c0.2,0.1 0.4,0.1 0.6,0c1,-0.3 1.9,-0.7 2.8,-1.1c-0.2,-0.1 -0.3,-0.3 -0.2,-0.6c0,0 0,-0.1 0.1,-0.1c1,-1 2.3,-1.5 3.4,-2.4l0.1,-0.1l0.1,-0.1c0.3,-0.9 0.2,-1.9 -0.2,-2.8c0.6,-0.7 0.8,-1.6 0.6,-2.6c-0.1,0 -0.2,0 -0.3,-0.1c-0.2,-0.2 -0.3,-0.3 -0.4,-0.5c-0.2,-0.3 -0.4,-0.6 -0.5,-0.9c-0.1,-0.2 0,-0.3 0.1,-0.4c-0.4,-0.6 -1,-1.2 -1.4,-1.7c1.1,-1.9 1.7,-4.1 1.5,-6.3c-0.1,-0.5 -0.6,-0.9 -1.1,-0.9c-0.3,0 -0.5,0.2 -0.7,0.4c-0.4,0.7 -0.8,1.4 -1.2,2.2c-0.1,0.1 -0.2,0.2 -0.3,0.3c-1.9,3.9 -4,7.7 -6.3,11.3c-0.4,0.6 -5.2,7.2 -4.6,7.4c0.2,0.4 -3.7,9.4 1.1,2.1z" class="st16_report-analysis-17"/>
   <path id="svg_52" fill="#FCBF81" d="m219,228.6c1,-0.8 1.9,-1.8 2.6,-2.9c0.5,-1 1.7,-1.3 2.7,-0.8l0.1,0c0.1,-0.5 0.1,-1.1 0.1,-1.6c0,-2.7 4.3,-2.8 4.2,0c0.1,2.1 -0.5,4.2 -1.6,6c-1.3,1.6 -2.8,3 -4.6,4.1c-1,0.6 -2.4,0.2 -3,-0.8c-0.1,-0.3 -0.2,-0.5 -0.3,-0.8c-0.1,0 -0.1,-0.1 -0.2,-0.1c-0.8,-1 -0.8,-2.3 0,-3.1z" class="st16_report-analysis-17"/>
   <path id="svg_53" fill="#34323D" d="m225.8,230.2c1.8,-1.2 3.1,-2.9 3.6,-5c0.1,0.1 0.2,0.2 0.3,0.1l0,0l1.7,-1.1c0.4,-0.2 0.7,-0.5 0.9,-0.8c0.6,-0.8 0.1,-1.7 -0.2,-2.5l-0.1,-0.1c0.1,-0.1 0.2,-0.3 0.2,-0.4c0.4,-0.6 0.6,-1.3 0.6,-2.1c-0.1,-0.7 -0.8,-1.2 -1.1,-1.9c0.1,-0.8 -0.3,-1.5 -1,-1.8c-0.9,-0.4 -1.4,0.3 -1.9,0.9c-1,1.4 -2,2.9 -2.9,4.4c-0.2,0.3 0.3,0.6 0.5,0.3c0.5,-0.8 1,-1.6 1.6,-2.4c0.4,-0.9 1,-1.7 1.7,-2.4c1.9,-1.1 1.5,1.5 1.2,2.2c-0.2,0.4 -0.4,0.8 -0.6,1.1l-1.4,2.5c0,0 0,0 0,0.1s0,0.1 0,0.2c0.9,3.2 -0.5,6.5 -3.2,8.3c-0.5,0.1 -0.2,0.6 0.1,0.4zm3.8,-8.6c-0.1,-0.1 -0.2,-0.1 -0.3,0c0,-0.1 0,-0.1 0,-0.2c0.9,-1.3 1.7,-2.8 2.3,-4.3c0.1,0.2 0.3,0.3 0.4,0.5c0.4,0.5 0.4,1.2 0.1,1.8c-0.3,0.8 -1.3,2.8 -2.5,2.2l0,0zm-0.1,3.2c0.2,-0.9 0.2,-1.8 0,-2.7c0.9,0.4 1.7,-0.1 2.2,-0.9c0.2,0.3 0.3,0.7 0.4,1c0.1,0.5 -0.1,1 -0.6,1.2c-0.6,0.5 -1.4,0.9 -2,1.4z" class="st12_report-analysis-17"/>
   <path id="svg_54" fill="#E55600" d="m195.6,238.7c0,0 12.3,0.6 15.6,-2.4s7.9,-12.3 7.9,-12.3s8.5,5.5 8.9,8.6s-8.9,18.4 -13,19.4" class="st13_report-analysis-17"/>
   <path id="svg_55" fill="#E55600" d="m176.9,390.9c0,0 10.4,-4.6 12.9,-4.8s6.7,0.7 3.1,5.3c0,0 -11,7.2 -12.4,7.4s-5,-0.9 -5,-0.5s-0.4,3.1 -0.4,3.1s-9.2,3.5 -9.6,-2.6c-0.1,-0.8 1.3,-12.2 1.3,-12.2" class="st13_report-analysis-17"/>
   <path id="svg_56" fill="#34323D" d="m164.9,364c1.8,-11.8 5.1,-23.2 6.5,-35.2c0.9,-7.5 1.5,-15.1 2.4,-22.6s3.7,-14.8 5.5,-22.2c0.1,-0.4 -0.1,-0.7 -0.4,-0.9l0.2,-0.8c0.9,-0.9 1.9,-1.7 2.8,-2.5l12.8,8.6c0,0 -0.1,7.9 -0.5,19.2c-1.5,6.6 -2.6,12.6 -4.3,18.9c0.4,0.4 0.5,1 0.4,1.5c-4.2,19.8 -7.2,39.8 -9.1,60c-0.1,0.7 -0.5,1.3 -1.1,1.5l-0.4,3.1c-11.1,4.3 -13.6,-3.2 -13.6,-3.2s-0.5,-6.4 -1.1,-15.3c-0.1,-3.3 -0.2,-6.7 -0.1,-10.1z" class="st12_report-analysis-17"/>
   <path id="svg_57" fill="#FCBF81" d="m259.3,243.7c-0.7,0.4 -1.4,0.8 -2.2,1.4c1.1,-1.4 2.1,-2.9 2.9,-4.5c0.8,-1.4 -1.2,-2.5 -2.2,-1.5c-2.8,3.1 -5.9,6 -9.2,8.6c-0.2,0.1 -0.3,0.3 -0.4,0.4l-2,0c-0.6,0 -1.2,0 -1.7,0l-0.5,-0.1c-0.4,-0.1 -0.8,0 -1.1,0.4c-0.3,0.1 -0.5,0.2 -0.8,0.4c-0.1,0 -0.1,0.1 -0.2,0.2c-0.6,0.1 -1.3,0.1 -2,0.2c-0.8,0.1 -1.3,0.8 -1.2,1.6c0,0.1 0.1,0.3 0.1,0.4l-0.3,-0.2c-1.5,-0.9 -2.7,1.5 -1.2,2.4c3.1,1.9 6.7,2.9 10.4,2.9c0.3,0.3 0.8,0.3 1.2,0.1l0.6,-0.2c3.1,-0.2 6.2,-0.8 9.1,-1.9c0.8,-0.3 1.6,-0.5 2.4,-0.6l0,0c-0.4,-3.2 -1,-6.6 -1.7,-10z" class="st16_report-analysis-17"/>
   <path id="svg_58" fill="#E55600" d="m199.7,408.1l6.2,2.2c0.4,1.1 1.3,2 2.5,2.3c0.2,0.3 0.5,0.4 0.9,0.5c2.6,0.4 4.9,-0.4 7.4,-1.2c3,-0.9 14.6,-5.4 11.3,3c-2.1,1.5 -4.5,2.8 -6.6,4.1c-1.2,0.7 -2.4,1.5 -3.7,2.2c-0.7,0.5 -1.4,0.8 -2.2,1c-1.7,0.3 -5.7,-1 -5.8,-0.6s-0.5,3.6 -0.5,3.6s-10.6,4 -11,-3c-0.1,-1 1.5,-14.1 1.5,-14.1z" class="st13_report-analysis-17"/>
   <path id="svg_59" fill="#34323D" d="m191,344.6c-1.3,-20.9 -2,-41.8 -6.4,-62.3c-0.2,-5.3 -3.6,-1.9 -3.4,-4c1.8,-17.2 26.8,3.2 26.8,3.2c1,0.8 1.1,6.1 1.3,7.3c1.1,6.6 2.1,13.2 2.9,19.8c4.1,33.5 2.6,66.8 0.9,100.4c-5.3,5.4 -8.8,7 -17.3,3.5c-1.7,-22 -3.3,-44 -4.7,-66c-0.1,-0.5 -0.1,-1.2 -0.1,-1.9z" class="st12_report-analysis-17"/>
   <path id="svg_60" fill="#E55600" d="m204.3,241c-0.2,-1.1 -3,-1.8 -3.9,-2.2c-1.9,-1.1 -0.8,-2.9 -2.7,-4c-2.7,-1.6 -5.6,-3 -8.6,-4.2l-0.1,0c-4.7,-0.1 -12.7,-0.3 -13.2,6.1c-0.7,9.8 0.1,19.5 0.9,29.2c0.3,3.9 0.6,7.8 1,11.6c0.1,1.4 0.3,12.6 1.1,13c9.4,3.9 21.4,2.5 30.6,-1.1c0.2,-8 -1.7,-32.5 -5.1,-48.4z" class="st13_report-analysis-17"/>
   <path id="svg_61" fill="#34323D" d="m195.9,250.8c0.6,6.7 5.2,12.3 11.7,14c0,0.6 0.2,4.6 0.3,5.2c-7.5,-1.8 -13,-11.2 -13.8,-19.2c-0.2,-1.2 1.7,-1.2 1.8,0z" class="st12_report-analysis-17"/>
   <path id="svg_62" fill="#FCBF81" d="m191.3,210.8c0.6,0.2 5.9,12.2 3.8,19.6s-14.5,-0.2 -17.7,-5.8s2.1,-16.8 13.9,-13.8z" class="st16_report-analysis-17"/>
   <path id="svg_63" fill="#34323D" d="m191.1,212.5c0,0 0,4 -3.5,5.3s-6.4,2.2 -6.2,3.8s6.3,-0.2 6.3,3.5c0,2.5 -0.3,5 -1,7.4c-0.4,1.8 -10.9,-3.7 -14.3,-13.2s5.2,-12 5.6,-12s1.2,-2.6 5.4,-3.6s5.4,0.7 5.4,0.7s2.8,-2 6.2,0.7c3.9,3.1 2.9,8.8 -1.5,11.1l-2.4,-3.7z" class="st12_report-analysis-17"/>
   <path id="svg_64" fill="#E55600" d="m195.9,233.6c0,0 21.6,12.4 29.3,12.4c5.6,0 16.7,-1.8 22.4,-2.8c5.3,4.5 5.7,12.5 2.4,18.5c-9.4,1.5 -37.3,5.5 -46.1,1.2c-10.6,-5.3 -22.2,-12.3 -22.2,-12.3s-10.5,-10.3 14.2,-17z" class="st13_report-analysis-17"/>
   <path id="svg_65" fill="#FCBF81" d="m257.1,245.1c0,0 3.2,-2.6 4.1,-2.1s2.8,5.1 2.5,7.7s-1.6,4.9 -8.3,4.9" class="st16_report-analysis-17"/>
  </g>
 </g>
</svg>