<svg width="500" height="500" xmlns="http://www.w3.org/2000/svg" version="1.1" xml:space="preserve" data-imageid="money-motivation-32" imageName="Money Motivation" class="illustrations_image">
 <g>
  <title>Layer 1</title>
  <path id="stair_money-motivation-32" class="st0_money-motivation-32" d="m179.1,413.4l-112.1,0c-1,0 -1.8,-0.8 -1.8,-1.8c0,-1 0.8,-1.8 1.8,-1.8l0,0l110.3,0l0,-39.1c0,-1 0.8,-1.8 1.8,-1.8l67.3,0l0,-36.9c0,-1 0.8,-1.8 1.8,-1.8l59.6,0l0,-40.5c0,-1 0.8,-1.8 1.8,-1.8l147.7,0c1,0 1.8,0.8 1.8,1.8c0,1 -0.8,1.8 -1.8,1.8l-145.8,0l0,40.5c0,1 -0.8,1.8 -1.8,1.8c0,0 0,0 0,0l-59.6,0l0,36.7c0,1 -0.8,1.8 -1.8,1.8l-67.3,0l0,39.1c0,1.1 -0.8,1.9 -1.9,2c0.1,0 0.1,0 0,0z" fill="#093F68"/>
  <g id="character_money-motivation-32">
   <path class="st1_money-motivation-32" d="m66.1,157.4l-6.8,-7.8c0,0 0.8,-6 -0.3,-7.8s-5,-4 -5.8,-3.7s-1.2,2.4 -1.2,2.4s-4.8,-4.4 -6,-3.1s-5.3,12.2 -2.4,17s17.4,16.5 17.4,16.5l5.1,-13.5z" fill="#FFC9B0" id="svg_1"/>
   <path class="st0_money-motivation-32" d="m61,172.8c-0.4,0 -0.8,-0.1 -1.2,-0.4c-1.5,-1.2 -14.9,-12.1 -17.8,-17c-3.4,-5.7 1.2,-17.6 2.6,-19.1c0.5,-0.5 1.1,-0.8 1.8,-0.8c1.5,-0.1 3.3,1 4.8,2.2c0.3,-0.5 0.7,-0.8 1.2,-1.1c2.2,-1.1 6.9,2.5 8.1,4.3s1,5.9 0.7,8.2l6.2,7.1c0.4,0.5 0.6,1.2 0.3,1.8l-5.1,13.5c-0.2,0.6 -0.7,1 -1.2,1.1c-0.1,0.1 -0.2,0.1 -0.4,0.2zm-13.9,-33.6c-1.2,2.4 -4,10.9 -1.9,14.3c1.9,3.1 10.2,10.4 15,14.4l3.8,-10.1l-6,-6.9c-0.3,-0.4 -0.5,-0.9 -0.4,-1.4c0.4,-2.7 0.4,-5.8 0,-6.5c-1,-1.1 -2.2,-2 -3.6,-2.6c-0.1,0.3 -0.2,0.5 -0.3,0.8c-0.3,1 -1.3,1.6 -2.2,1.3c-0.3,-0.1 -0.5,-0.2 -0.8,-0.4c-1.1,-1.2 -2.3,-2.1 -3.6,-2.9z" fill="#093F68" id="svg_2"/>
   <path class="st0_money-motivation-32" d="m54.2,157.1c-0.5,0 -1,-0.2 -1.4,-0.6c-0.9,-1.2 -1.4,-2.6 -1.5,-4c-0.5,0.3 -1.1,0.6 -1.7,0.7c-0.9,0.1 -1.9,-0.1 -2.6,-0.8c-2.1,-1.8 -0.9,-6.1 3.4,-12.8c0.5,-0.9 1.6,-1.2 2.5,-0.7c0.9,0.5 1.2,1.6 0.7,2.5c0,0.1 -0.1,0.1 -0.1,0.1c-1.6,2.3 -2.8,4.8 -3.8,7.5c0.8,-0.7 1.4,-1.5 2,-2.3c0.6,-0.8 1.7,-1.1 2.5,-0.5c0.6,0.4 0.9,1.1 0.8,1.8c-0.3,1.9 -0.4,5.1 0.5,6c0.7,0.8 0.6,1.9 -0.2,2.6c-0.3,0.3 -0.7,0.5 -1.1,0.5zm-4.5,-7.1l0,0z" fill="#093F68" id="svg_3"/>
   <path class="st1_money-motivation-32" d="m218.8,154.8l6.7,-7.8c0,0 -0.8,-6 0.3,-7.8s5,-4 5.8,-3.6s1.3,2.4 1.3,2.4s4.8,-4.4 6,-3.1s5.3,12.2 2.4,17s-17.4,16.5 -17.4,16.5l-5.1,-13.6z" fill="#FFC9B0" id="svg_4"/>
   <path class="st0_money-motivation-32" d="m223.9,170.2c-0.2,0 -0.3,0 -0.5,-0.1c-0.6,-0.2 -1,-0.6 -1.2,-1.1l-5.1,-13.5c-0.2,-0.6 -0.1,-1.3 0.3,-1.8l6.2,-7.1c-0.3,-2.3 -0.5,-6.4 0.7,-8.2c1,-1.5 5.8,-5.4 8.1,-4.3c0.5,0.2 0.9,0.6 1.2,1.1c1.5,-1.2 3.4,-2.3 4.8,-2.2c0.7,0 1.4,0.3 1.8,0.9c1.4,1.6 6.1,13.5 2.6,19.1c-2.9,4.9 -16.3,15.7 -17.8,17c-0.3,0.1 -0.7,0.2 -1.1,0.2zm-3,-15l3.8,10.1c4.8,-4 13.1,-11.2 15,-14.4c2,-3.4 -0.7,-11.8 -1.9,-14.3c-1.3,0.8 -2.6,1.7 -3.7,2.7c-0.5,0.4 -1.2,0.6 -1.8,0.4c-0.6,-0.2 -1.1,-0.7 -1.2,-1.3c-0.1,-0.3 -0.2,-0.5 -0.3,-0.8c-1.3,0.6 -2.5,1.5 -3.5,2.6c-0.4,0.7 -0.4,3.8 0,6.5c0.1,0.5 -0.1,1.1 -0.4,1.5l-6,7z" fill="#093F68" id="svg_5"/>
   <path class="st0_money-motivation-32" d="m225.1,351.7l-23.4,2.9c-2.8,-31.3 -7.3,-44.3 -11.7,-49.5c-3.6,-4.1 -46.8,-17.3 -46.8,-17.3l11.4,-28.3c11.1,3 46.9,20.8 56.9,32.4c9.5,11 11.9,46.2 13.6,59.8z" fill="#093F68" id="svg_6"/>
   <path class="st0_money-motivation-32" d="m201.6,356.4c-1,0 -1.7,-0.7 -1.8,-1.7c-2.3,-26.1 -6.1,-42.4 -11.3,-48.5c-2,-2.3 -24.9,-10.3 -45.9,-16.7c-1,-0.3 -1.5,-1.3 -1.2,-2.3c0,-0.1 0,-0.1 0.1,-0.1l11.4,-28.3c0.3,-0.9 1.3,-1.3 2.2,-1.1c12,3.2 47.8,21.3 57.8,32.9c8.7,10.1 11.6,38.1 13.4,54.8c0.2,2.3 0.5,4.3 0.7,6c0.1,1 -0.6,1.9 -1.6,2l-23.4,2.9l-0.4,0.1zm-56,-69.8c10.3,3.2 42.2,13.2 45.7,17.2c5.6,6.5 9.6,22.5 12,48.6l19.7,-2.4c-0.1,-1.3 -0.3,-2.7 -0.5,-4.2c-1.6,-15.2 -4.6,-43.6 -12.5,-52.8c-9.4,-10.9 -42.4,-27.4 -54.4,-31.3l-10,24.9z" fill="#093F68" id="svg_7"/>
   <path class="st2_money-motivation-32 targetColor" d="m201.6,354.6l0,16l39.3,-7.8c0.4,-0.1 0.7,-0.5 0.6,-1c-0.1,-0.2 -0.2,-0.4 -0.4,-0.6l-17.9,-11.8l-21.6,5.2z" fill="#b45309" id="svg_8"/>
   <path class="st0_money-motivation-32" d="m201.6,372.4c-0.4,0 -0.8,-0.1 -1.2,-0.4c-0.4,-0.3 -0.7,-0.9 -0.7,-1.4l0,-16c0,-0.8 0.6,-1.6 1.4,-1.8l21.6,-5.1c0.5,-0.1 1,0 1.4,0.2l17.8,11.8c1.3,0.7 1.7,2.3 1,3.6c-0.4,0.7 -1,1.1 -1.7,1.3l-39.3,7.8c0,0 -0.1,0 -0.3,0zm1.9,-16.4l0,12.3l34.6,-6.9l-15.2,-10.1l-19.4,4.7z" fill="#093F68" id="svg_9"/>
   <path class="st2_money-motivation-32 targetColor" d="m176.8,229.1l1.9,38.3l-59.6,5.4l-3.6,-39.1l-65.2,-64.5l15.9,-12.7l55,43.8c10.3,-0.3 39.7,-1.5 48.1,-4.2l49.5,-41.8l14,10.5c0,0 -36.1,41.1 -56,64.3z" fill="#b45309" id="svg_10"/>
   <path class="st0_money-motivation-32" d="m119.1,274.6c-0.4,0 -0.8,-0.1 -1.2,-0.4c-0.4,-0.3 -0.6,-0.8 -0.7,-1.2l-3.5,-38.4l-64.7,-64.1c-0.7,-0.7 -0.7,-1.9 0,-2.6c0,-0.1 0.1,-0.1 0.2,-0.1l15.9,-12.7c0.7,-0.5 1.6,-0.5 2.3,0l54.5,43.4c23.5,-0.8 40.8,-2.2 46.6,-3.9l49.2,-41.6c0.7,-0.6 1.6,-0.6 2.3,-0.1l14,10.5c0.4,0.3 0.7,0.8 0.7,1.3c0.1,0.5 -0.1,1 -0.4,1.4c-0.4,0.4 -35.7,40.7 -55.5,63.7l1.9,37.5c0.1,1 -0.7,1.8 -1.7,1.9l-59.6,5.4l-0.3,0zm-66,-105.3l63.7,63.1c0.3,0.3 0.5,0.7 0.5,1.1l3.4,37.3l56.1,-5.1l-1.8,-36.5c0,-0.5 0.1,-0.9 0.4,-1.3c17.6,-20.4 48,-55.2 54.7,-62.8l-11.2,-8.5l-48.3,40.9c-0.2,0.2 -0.4,0.3 -0.6,0.3c-8.4,2.7 -36.8,3.9 -48.6,4.2c-0.4,0 -0.9,-0.1 -1.2,-0.4l-53.8,-42.9l-13.3,10.6z" fill="#093F68" id="svg_11"/>
   <path class="st0_money-motivation-32" d="m96.6,377.2c0,0 19.2,-29 24.4,-44.2s0.8,-60.3 0.8,-60.3l27.8,0c0,0 8,36.2 -2.5,63s-32.2,50.7 -32.2,50.7l-18.3,-9.2z" fill="#093F68" id="svg_12"/>
   <path class="st0_money-motivation-32" d="m114.8,388.2c-0.3,0 -0.6,-0.1 -0.8,-0.2l-18.3,-9.1c-0.9,-0.4 -1.3,-1.5 -0.8,-2.4c0,-0.1 0.1,-0.1 0.1,-0.2c0.2,-0.3 19.1,-29 24.1,-43.8s0.8,-59.1 0.8,-59.6c-0.1,-1 0.7,-1.9 1.7,-2c0,0 0.1,0 0.1,0l27.8,0c0.9,0 1.6,0.6 1.8,1.4c0.3,1.5 8,37.1 -2.6,64c-10.5,26.7 -32.3,51 -32.5,51.3c-0.4,0.4 -0.8,0.6 -1.4,0.6zm-15.6,-11.7l15.2,7.6c4.2,-4.9 21.9,-26.1 30.9,-49.1s4,-53.5 2.7,-60.5l-24.3,0c0.8,9 3.6,45.3 -1.1,59.1c-4.5,13.3 -19.2,36.4 -23.4,42.9z" fill="#093F68" id="svg_13"/>
   <path class="st2_money-motivation-32 targetColor" d="m96.6,376.78334l-9.3,15.1l32.1,19.1c0.6,0.2 1.2,0 1.5,-0.6c0.1,-0.4 0.1,-0.7 -0.1,-1.1l-5.9,-23.4l-18.3,-9.1z" fill="#b45309" id="svg_14"/>
   <path class="st0_money-motivation-32" d="m119.8,413.4c-0.4,0 -0.8,-0.1 -1.2,-0.2l-0.2,-0.1l-32.1,-19.1c-0.4,-0.2 -0.7,-0.7 -0.8,-1.1c-0.1,-0.5 0,-1 0.2,-1.4l9.3,-15.1c0.5,-0.8 1.5,-1.1 2.4,-0.7l18.3,9.1c0.5,0.2 0.9,0.7 1,1.2l5.8,23.1c0.7,1.5 0.2,3.2 -1.3,4c-0.5,0.1 -0.9,0.3 -1.4,0.3l0,0zm-0.6,-2.6l0,0zm-29.4,-19.1l28.8,17.2l-5.3,-21.2l-16,-8l-7.5,12z" fill="#093F68" id="svg_15"/>
   <polygon class="st3_money-motivation-32" points="159.2,198.3 152.5,256.2 132,200.5  " fill="#FFFFFF" id="svg_16"/>
   <path class="st0_money-motivation-32" d="m152.5,258c-0.8,0 -1.5,-0.5 -1.7,-1.2l-20.5,-55.7c-0.4,-0.9 0.1,-2 1.1,-2.4c0.2,-0.1 0.3,-0.1 0.5,-0.1l27.1,-2.1c0.5,0 1.1,0.2 1.5,0.6c0.4,0.4 0.6,0.9 0.5,1.5l-6.7,57.9c-0.1,0.8 -0.8,1.5 -1.6,1.6l-0.2,-0.1zm-17.9,-55.9l17,46.2l5.5,-48l-22.5,1.8z" fill="#093F68" id="svg_17"/>
   <path class="st1_money-motivation-32" d="m139.5,192.5l12.4,-1.1l0,0l0.9,9.5c0.1,1.6 -1,3 -2.6,3.1l-6.6,0.6c-1.6,0.1 -3,-1 -3.1,-2.6l-1,-9.5l0,0z" fill="#FFC9B0" id="svg_18"/>
   <path class="st0_money-motivation-32" d="m145.4,206.3c-3.7,0 -6.8,-2.8 -7.1,-6.5l-0.6,-7.1c0,-0.5 0.1,-1 0.4,-1.3c0.3,-0.4 0.8,-0.6 1.2,-0.7l12.4,-1.1c1,-0.1 1.9,0.6 2,1.6c0,0 0,0 0,0l0.6,7.1c0.3,3.9 -2.5,7.4 -6.5,7.7l0,0l-1.9,0.2c0,0 -0.2,0.1 -0.5,0.1zm2.4,-2l0,0zm-6.3,-10.2l0.5,5.3c0.1,0.9 0.5,1.8 1.2,2.4c0.7,0.6 1.6,0.9 2.5,0.8l1.9,-0.2c1.9,-0.2 3.3,-1.8 3.1,-3.8c0,0 0,0 0,0l-0.5,-5.3l-8.7,0.8z" fill="#093F68" id="svg_19"/>
   <path class="st4_money-motivation-32" d="m103.3,169.8c-0.9,-0.9 -1.6,-1.8 -2.2,-2.9c-6.4,-9.9 -11.1,-20.8 -14.1,-32.2c-0.9,-3.2 -1.6,-6.6 -1,-10c1,-6.1 5.8,-10.8 10.3,-14.9c2.4,-2.2 3.8,-2.2 5.6,-5.1c1.9,-2.8 4.2,-5.3 6.9,-7.3c10.3,-8.3 24.6,-9.3 37.8,-9c5.7,0.1 11.5,0.5 16.5,3.1s9.1,7.8 8.6,13.4c6.6,-0.6 10.2,-0.3 12.3,6.8c3.3,10.9 2.8,41.8 2.8,41.8l-7.9,0.2l-58.3,14c-3.8,0.9 -13.1,4.9 -16.4,2.7c-0.3,-0.1 -0.6,-0.3 -0.9,-0.6z" fill="#725858" id="svg_20"/>
   <path class="st0_money-motivation-32" d="m106.9,173c-1.3,0.1 -2.6,-0.3 -3.8,-0.9c-0.4,-0.3 -0.8,-0.6 -1.1,-0.9c-1,-1 -1.8,-2 -2.5,-3.2c-6.5,-10.1 -11.3,-21.1 -14.4,-32.7c-0.9,-3.4 -1.7,-7.1 -1.1,-10.7c1,-6.4 5.7,-11.2 10.9,-16c0.8,-0.7 1.6,-1.4 2.6,-2c1.1,-0.6 2.1,-1.6 2.7,-2.7c2,-3 4.5,-5.6 7.3,-7.8c11,-8.8 25.9,-9.7 39,-9.4c5.8,0.1 11.9,0.5 17.3,3.2c4.7,2.4 9.2,7.2 9.6,13.1c5.7,-0.4 9.9,0.6 12.2,8.2c3.4,11 2.9,41.1 2.9,42.3c0,1 -0.8,1.8 -1.8,1.8l-7.7,0.2l-58,14.1c-0.8,0.2 -2,0.6 -3.3,1c-3.5,1.1 -7.5,2.4 -10.8,2.4zm35.3,-82.7c-11.3,0 -23.5,1.4 -32.4,8.6c-2.5,1.9 -4.7,4.2 -6.5,6.8c-0.9,1.6 -2.2,2.9 -3.8,3.9c-0.7,0.5 -1.5,1 -2.1,1.6c-4.7,4.3 -8.9,8.6 -9.7,13.9c-0.4,2.8 0.1,5.7 1,9.2c2.9,11.2 7.6,21.9 13.9,31.7c0.5,0.9 1.2,1.8 1.9,2.5l0,0c0.2,0.2 0.4,0.4 0.6,0.5c1.8,1.2 8,-0.8 11.4,-1.9c1.4,-0.4 2.6,-0.8 3.6,-1.1l58.3,-14c0.1,0 0.3,0 0.4,0l6.1,-0.2c0,-6.6 0,-30.4 -2.7,-39.5c-1.8,-5.8 -4.1,-6.1 -10.4,-5.5c-0.5,0.1 -1.1,-0.1 -1.5,-0.5c-0.4,-0.4 -0.6,-0.9 -0.5,-1.5c0.5,-5.1 -3.6,-9.6 -7.6,-11.6c-4.8,-2.4 -10.4,-2.7 -15.8,-2.9c-1.4,0 -2.7,0 -4.2,0z" fill="#093F68" id="svg_21"/>
   <ellipse transform="matrix(0.9793 -0.2026 0.2026 0.9793 -28.0357 39.2788)" class="st1_money-motivation-32" cx="177.8" cy="156.6" rx="12.1" ry="10.4" fill="#FFC9B0" id="svg_22"/>
   <path class="st0_money-motivation-32" d="m177.1,168.9c-6.3,0 -11.8,-3.8 -13,-9.5c-0.7,-3.3 0.2,-6.8 2.3,-9.4c2.2,-2.8 5.3,-4.7 8.9,-5.4c7.5,-1.6 14.8,2.6 16.1,9.2l0,0c1.4,6.6 -3.6,13.3 -11.2,14.8c-1,0.2 -2,0.3 -3.1,0.3zm1.4,-21c-0.8,0 -1.7,0.1 -2.5,0.2c-2.6,0.5 -5,1.9 -6.7,4.1c-1.5,1.8 -2.1,4.2 -1.6,6.5c1,4.6 6.3,7.5 11.8,6.4s9.3,-5.9 8.3,-10.5l0,0c-0.7,-4 -4.7,-6.7 -9.3,-6.7l0,0z" fill="#093F68" id="svg_23"/>
   <path class="st1_money-motivation-32" d="m150.4,197c-14.1,2.8 -28.6,-2.8 -37.1,-14.4c-9,-12.5 -8,-30.9 4.6,-40.9c2.7,-2.1 5.8,-3.7 8.5,-5.8c5.9,-4.4 8.5,-10 11.3,-16.6c0.7,-1.7 0.2,-1.5 1.6,-0.6s2.6,2.1 3.8,3.1c2.8,2.3 5.1,5.2 6.8,8.4c4.9,-2.7 8.9,-6.8 11.7,-11.7c0.1,-0.3 0.3,-0.6 0.6,-0.8c0.6,-0.3 1.4,-0.4 2,-0.1c8.8,2.8 9.7,12.8 11.2,20.5l3.2,15.7c4.3,19.8 -8.4,39.1 -28.2,43.2z" fill="#FFC9B0" id="svg_24"/>
   <path class="st0_money-motivation-32" d="m143.3,199.6c-12.4,0 -24.1,-5.9 -31.4,-15.9c-10,-13.8 -7.8,-33.3 5,-43.4c1.5,-1.2 3.1,-2.2 4.7,-3.2c1.4,-0.9 2.6,-1.7 3.9,-2.6c5.5,-4.1 7.9,-9.2 10.7,-15.9c0.1,-0.3 0.2,-0.5 0.3,-0.7c0.2,-0.8 0.7,-1.4 1.5,-1.6c0.8,-0.2 1.5,0.1 2.1,0.6c0.1,0.1 0.3,0.2 0.5,0.4c1,0.7 1.9,1.5 2.9,2.3l1,0.9c2.5,2.1 4.6,4.5 6.3,7.3c3.9,-2.5 7.1,-6 9.4,-10.1c0.3,-0.5 0.6,-1 1.1,-1.4c1.1,-0.7 2.5,-0.9 3.7,-0.4c8.9,2.9 10.6,12 12,19.3c0.2,0.9 0.3,1.7 0.5,2.6l3.2,15.7c4.3,20.8 -9.1,41 -29.8,45.3l0,0c-2.6,0.5 -5.1,0.8 -7.6,0.8zm7.1,-2.6l0,0zm-11.2,-76.2c-2.8,6.6 -5.6,12.1 -11.6,16.5c-1.3,1 -2.7,1.9 -4.1,2.8c-1.5,0.9 -3,1.9 -4.4,3c-11.2,8.9 -13.1,26.1 -4.3,38.4c8.1,11 21.8,16.4 35.2,13.7c18.8,-3.9 30.8,-22.2 27,-41l-3.2,-15.7c-0.2,-0.8 -0.3,-1.7 -0.5,-2.6c-1.3,-7 -2.7,-14.3 -9.5,-16.5l-0.4,-0.1l-0.1,0.1c-2.9,5.2 -7.2,9.5 -12.4,12.5c-0.9,0.5 -2,0.2 -2.5,-0.7c0,0 0,0 0,0c-1.5,-3 -3.7,-5.7 -6.3,-7.9l-1.1,-0.9c-0.6,-0.6 -1.2,-1.1 -1.8,-1.6l0,0z" fill="#093F68" id="svg_25"/>
   <circle class="st0_money-motivation-32" cx="141.9" cy="155.7" r="3.4" fill="#093F68" id="svg_26"/>
   <circle class="st0_money-motivation-32" cx="168.8" cy="151" r="3.4" fill="#093F68" id="svg_27"/>
   <path class="st0_money-motivation-32" d="m148.8,168.9c-1,0 -1.8,-0.8 -1.9,-1.8c0,-1 0.8,-1.8 1.8,-1.9c1.4,-0.1 2.7,-0.3 4,-0.7c-1.1,-2.3 -2.5,-4.4 -4.1,-6.3c-0.6,-0.8 -0.5,-1.9 0.3,-2.6s1.9,-0.5 2.6,0.3l0,0c2.6,3.1 5.5,7.4 5,9.8c-0.2,0.8 -0.7,1.4 -1.4,1.8c-2,0.9 -4.1,1.3 -6.3,1.4l0,0zm4.1,-3.8l0,0z" fill="#093F68" id="svg_28"/>
   <path class="st0_money-motivation-32" d="m122.3,148c-2,0 -3.7,-1.6 -3.7,-3.6c0,-1.9 1.5,-3.6 3.4,-3.7l16.1,-1.5c2,-0.2 3.8,1.3 4,3.3s-1.3,3.8 -3.3,4l-16.1,1.5l-0.4,0z" fill="#093F68" id="svg_29"/>
   <path class="st0_money-motivation-32" d="m152.8,143.6c-2,0 -3.7,-1.6 -3.7,-3.6c0,-1.7 1.2,-3.3 2.9,-3.6l15.7,-3.6c2,-0.4 3.9,0.8 4.3,2.8c0.4,1.9 -0.8,3.9 -2.7,4.3l-15.7,3.6c-0.2,0 -0.5,0.1 -0.8,0.1z" fill="#093F68" id="svg_30"/>
   <path class="st0_money-motivation-32" d="m127.6,167.8c-2.6,0 -4.8,-1.8 -5.3,-4.3l-2,-9.9c-0.2,-1 0.4,-2 1.4,-2.2l23,-4.8c1,-0.2 2,0.4 2.2,1.4l2,9.9c0.3,1.4 0,2.9 -0.8,4.1c-0.8,1.2 -2,2 -3.4,2.3l0,0l-15.9,3.3c-0.4,0.2 -0.8,0.2 -1.2,0.2zm-3.4,-13.2l1.7,8.1c0.2,1 1.1,1.6 2.1,1.4l15.9,-3.3c1,-0.2 1.6,-1.1 1.4,-2.1l-1.7,-8.1l-19.4,4zm20.1,8l0,0z" fill="#093F68" id="svg_31"/>
   <path class="st0_money-motivation-32" d="m156.2,161.9c-2.6,0 -4.8,-1.8 -5.3,-4.3l-2,-9.9c-0.2,-1 0.4,-2 1.4,-2.2l23,-4.8c0.5,-0.1 1,0 1.4,0.3c0.4,0.3 0.7,0.7 0.8,1.2l2.1,9.9c0.6,2.9 -1.3,5.8 -4.2,6.4l0,0l-15.9,3.3c-0.5,0.1 -0.9,0.1 -1.3,0.1zm-3.4,-13.2l1.7,8.1c0.2,1 1.1,1.6 2.1,1.4l15.9,-3.3c1,-0.2 1.6,-1.1 1.4,-2.1l-1.7,-8.1l-19.4,4zm20.1,8l0,0z" fill="#093F68" id="svg_32"/>
   <path class="st0_money-motivation-32" d="m103.1,164.5c-1,0 -1.8,-0.8 -1.8,-1.8c0,-0.9 0.6,-1.6 1.4,-1.8l20.1,-4.1c1,-0.2 1.9,0.5 2.1,1.5c0.1,0.9 -0.4,1.8 -1.4,2.1l-20.1,4.2c-0.1,-0.1 -0.2,-0.1 -0.3,-0.1z" fill="#093F68" id="svg_33"/>
   <path class="st1_money-motivation-32" d="m114.1,180.4c0,0 -9.8,2.6 -13.5,-7.9c-4.9,-13.9 10.6,-9.1 10.6,-9.1" fill="#FFC9B0" id="svg_34"/>
   <path class="st0_money-motivation-32" d="m111.4,182.6c-4.2,0 -9.9,-2 -12.5,-9.4c-1.6,-4.6 -1.4,-8 0.7,-10.2c3.7,-3.8 11.3,-1.5 12.2,-1.2c1,0.3 1.5,1.4 1.1,2.3c-0.3,0.9 -1.3,1.4 -2.2,1.2c-1.6,-0.5 -6.6,-1.5 -8.4,0.3c-1.3,1.3 -0.6,4.2 0.1,6.4c3.1,8.8 11,6.8 11.3,6.7c1,-0.3 2,0.3 2.3,1.3s-0.3,2 -1.3,2.3c-1.2,0.2 -2.3,0.3 -3.3,0.3z" fill="#093F68" id="svg_35"/>
   <path class="st0_money-motivation-32" d="m156.7,174.5l-14.8,-2.8c0,0 -3.4,10.2 2.4,14.3c7.7,5.3 12.4,-11.5 12.4,-11.5z" fill="#093F68" id="svg_36"/>
   <path class="st5_money-motivation-32" d="m144.7,205.3l6.3,-0.6c0.8,-0.1 1.5,0.5 1.6,1.3l0.4,4.3c0.1,0.8 -0.5,1.5 -1.3,1.6l-6.3,0.6c-0.8,0.1 -1.5,-0.5 -1.6,-1.3l-0.4,-4.3c-0.1,-0.9 0.5,-1.6 1.3,-1.6z" fill="#F56132" id="svg_37"/>
   <path class="st0_money-motivation-32" d="m146.3,214.2c-2.3,0 -4.3,-1.8 -4.5,-4.1l-0.2,-1.9c-0.2,-2.5 1.6,-4.7 4.1,-4.9c0,0 0,0 0,0l3.9,-0.4c2.5,-0.2 4.7,1.6 4.9,4.1c0,0 0,0 0,0l0.2,1.9c0.2,2.5 -1.6,4.7 -4.1,4.9l-3.9,0.4l-0.4,0zm3.7,-7.6l0,0l-3.9,0.4c-0.5,0 -0.8,0.5 -0.8,0.9l0.2,1.9c0,0.2 0.1,0.4 0.3,0.6c0.2,0.2 0.4,0.2 0.6,0.2l3.9,-0.4l0,0c0.5,0 0.8,-0.5 0.8,-0.9l-0.2,-1.9c0,-0.2 -0.1,-0.4 -0.3,-0.6c-0.2,-0.1 -0.4,-0.2 -0.6,-0.2l0,0z" fill="#093F68" id="svg_38"/>
   <polygon class="st5_money-motivation-32" points="154.5,233.4 152.5,256.2 145.7,236.4 145.9,212.4 151.1,212  " fill="#F56132" id="svg_39"/>
   <path class="st0_money-motivation-32" d="m152.5,258c-0.8,0 -1.5,-0.5 -1.7,-1.2l-6.8,-19.8c-0.1,-0.2 -0.1,-0.4 -0.1,-0.6l0.1,-24c0,-0.9 0.7,-1.7 1.7,-1.8l5.3,-0.5c1,-0.1 1.8,0.6 2,1.5l3.4,21.4c0,0.2 0,0.3 0,0.5l-2.1,22.8c-0.1,0.9 -0.7,1.6 -1.6,1.7l-0.2,0zm-5,-21.9l3.9,11.4l1.3,-14l-3.1,-19.5l-1.9,0.2l-0.2,21.9z" fill="#093F68" id="svg_40"/>
   <path class="st0_money-motivation-32" d="m230.7,154.5c-0.4,0 -0.9,-0.2 -1.2,-0.4c-0.8,-0.7 -0.9,-1.8 -0.2,-2.6c0.8,-0.9 0.8,-4.1 0.5,-6c-0.2,-1 0.5,-1.9 1.5,-2.1c0.7,-0.1 1.4,0.2 1.8,0.8c0.6,0.9 1.2,1.7 2,2.3c-0.9,-2.6 -2.2,-5.2 -3.8,-7.5c-0.6,-0.8 -0.4,-2 0.4,-2.6s2,-0.4 2.6,0.4c0,0 0.1,0.1 0.1,0.1c4.4,6.7 5.5,11 3.4,12.8c-0.7,0.6 -1.7,0.9 -2.6,0.8c-0.6,-0.1 -1.2,-0.3 -1.7,-0.7c-0.1,1.5 -0.6,2.8 -1.5,4c-0.2,0.5 -0.7,0.7 -1.3,0.7z" fill="#093F68" id="svg_41"/>
  </g>
  <g id="money_money-motivation-32">
   <path class="st6_money-motivation-32" d="m363,152.79674c9.9,-3 19.9,-5.2 30.1,-6.8c3.3,-0.5 2.1,2.1 1.7,4.4c-0.5,2.8 -1.1,5.6 -1.7,8.4c-0.7,2.8 -1.4,9.6 -3.9,11c-2.3,1.2 -6.4,1.4 -9,1.5s-5.7,-0.2 -7.6,-2.2c-1.6,-1.6 -9,-16.5 -9.6,-16.3z" fill="#70CC40" id="svg_42"/>
   <path class="st0_money-motivation-32" d="m379.2,173.09674c-2.5,0 -5.8,-0.4 -8,-2.8c-0.9,-0.9 -2.4,-3.6 -5.4,-9.1c-1.4,-2.6 -3.3,-6.1 -4,-7c-0.8,-0.6 -1,-1.8 -0.4,-2.6c0.2,-0.3 0.6,-0.6 0.9,-0.7l0,0c9.9,-3 20.1,-5.3 30.4,-6.9c1.3,-0.3 2.6,0 3.5,0.9c1.2,1.3 0.8,3.1 0.4,4.6c-0.1,0.4 -0.2,0.7 -0.2,1.1c-0.5,2.9 -1.1,5.7 -1.8,8.5c-0.1,0.5 -0.3,1.2 -0.4,2c-0.9,4.7 -1.8,8.8 -4.4,10.1s-6.4,1.6 -9.8,1.7l-0.8,0.2zm-13.3,-19.3c0.8,1.3 1.8,3.1 3.1,5.7c1.7,3.1 4.2,7.7 4.8,8.4c1.1,1.2 3.1,1.7 6.2,1.6c2,-0.1 6.2,-0.2 8.2,-1.3c1.2,-0.6 2.1,-5.5 2.5,-7.6c0.2,-0.9 0.3,-1.6 0.5,-2.2c0.6,-2.8 1.2,-5.6 1.7,-8.3c0.1,-0.4 0.2,-0.8 0.3,-1.2s0.2,-0.8 0.2,-1.1l-0.1,0c-9.2,1.4 -18.4,3.4 -27.4,6zm-2.5,0.8l0,0z" fill="#093F68" id="svg_43"/>
   <path class="st6_money-motivation-32" d="m356.6,229.39674c-8.6,-2.1 -19,-7.1 -15.7,-17.6c3.1,-10.1 7.5,-20.1 14.8,-27.6c4.8,-4.9 10.8,-8.4 17.5,-10c5.3,-1.2 13.3,-2 18.6,-0.6c10.8,3.1 19.2,11.8 24.2,21.6c4.3,8.3 9.3,23.8 1.7,31.6c-6.3,6.5 -19.1,5.3 -27.4,5.4c-11.2,0.1 -22.7,-0.1 -33.7,-2.8z" fill="#70CC40" id="svg_44"/>
   <path class="st0_money-motivation-32" d="m397.4,233.99674l-3.2,0c-1.3,0 -2.6,0 -3.7,0c-11.1,0.1 -22.9,0 -34.3,-2.8l0,0c-5.7,-1.4 -13.1,-4.2 -16.2,-9.8c-1.7,-3.1 -2,-6.8 -0.8,-10.1c3.9,-12.6 8.8,-21.6 15.2,-28.4c5,-5.2 11.4,-8.9 18.4,-10.5c5.4,-1.3 13.8,-2.1 19.5,-0.5c10.3,2.9 19.5,11.1 25.4,22.5c2,3.9 11.3,23.6 1.4,33.7c-5.2,5.3 -14,5.9 -21.7,5.9zm-5.9,-3.7l2.7,0c7.8,0.1 17.4,0.2 22.3,-4.8c6.3,-6.5 2.9,-19.9 -2,-29.5c-5.3,-10.5 -13.8,-18 -23.1,-20.6c-4.8,-1.4 -12.3,-0.7 -17.7,0.6c-6.3,1.5 -12.1,4.8 -16.6,9.5c-6.1,6.3 -10.6,14.9 -14.4,26.9c-0.9,2.4 -0.7,5 0.5,7.2c2,3.5 6.9,6.3 13.9,8.1c11,2.7 22.5,2.8 33.4,2.7l1,-0.1z" fill="#093F68" id="svg_45"/>
   <path class="st7_money-motivation-32" d="m329.3,274.99674l45,0c1.2,0 2.2,1 2.2,2.2l0,9.8c0,1.2 -1,2.2 -2.2,2.2l-45,0c-1.2,0 -2.2,-1 -2.2,-2.2l0,-9.8c0,-1.2 1,-2.2 2.2,-2.2z" fill="#b45309" id="svg_46"/>
   <path class="st0_money-motivation-32" d="m372.5,290.99674l-41.4,0c-3.2,0 -5.8,-2.6 -5.8,-5.8l0,-6.1c0,-3.2 2.6,-5.8 5.8,-5.8l41.4,0c3.2,0 5.8,2.6 5.8,5.8l0,6.1c0,3.2 -2.6,5.8 -5.8,5.8zm-41.4,-14.2c-1.2,0 -2.2,1 -2.2,2.2l0,6.1c0,1.2 1,2.2 2.2,2.2l41.4,0c1.2,0 2.2,-1 2.2,-2.2l0,-6.1c0,-1.2 -1,-2.2 -2.2,-2.2l-41.4,0z" fill="#093F68" id="svg_47"/>
   <path class="st7_money-motivation-32" d="m325.9,260.89674l45,0c1.2,0 2.2,1 2.2,2.2l0,9.8c0,1.2 -1,2.2 -2.2,2.2l-45,0c-1.2,0 -2.2,-1 -2.2,-2.2l0,-9.8c0,-1.2 0.9,-2.2 2.2,-2.2z" fill="#b45309" id="svg_48"/>
   <path class="st0_money-motivation-32" d="m369,276.79674l-41.3,0c-3.2,0 -5.8,-2.6 -5.8,-5.8l0,-6.1c0,-3.2 2.6,-5.8 5.8,-5.8l41.3,0c3.2,0 5.8,2.6 5.8,5.8l0,6.1c0,3.2 -2.6,5.8 -5.8,5.8zm-41.4,-14.1c-1.2,0 -2.2,1 -2.2,2.2l0,6.1c0,1.2 1,2.2 2.2,2.2l41.4,0c1.2,0 2.2,-1 2.2,-2.2l0,-6.1c0,-1.2 -1,-2.2 -2.2,-2.2l-41.4,0z" fill="#093F68" id="svg_49"/>
   <path class="st7_money-motivation-32" d="m335.2,246.79674l45,0c1.2,0 2.2,1 2.2,2.2l0,9.7c0,1.2 -1,2.2 -2.2,2.2l-45,0c-1.2,0 -2.2,-1 -2.2,-2.2l0,-9.7c0,-1.3 1,-2.2 2.2,-2.2z" fill="#b45309" id="svg_50"/>
   <path class="st0_money-motivation-32" d="m378.4,262.69674l-41.4,0c-3.2,0 -5.8,-2.6 -5.8,-5.8l0,-6.1c0,-3.2 2.6,-5.8 5.8,-5.8l41.4,0c3.2,0 5.8,2.6 5.8,5.8l0,6.1c0.1,3.2 -2.6,5.8 -5.8,5.8zm-41.3,-14.1c-1.2,0 -2.2,1 -2.2,2.2l0,6.1c0,1.2 1,2.2 2.2,2.2l41.4,0c1.2,0 2.2,-1 2.2,-2.2l0,-6.1c0,-1.2 -1,-2.2 -2.2,-2.2l-41.4,0z" fill="#093F68" id="svg_51"/>
   <path class="st7_money-motivation-32" d="m325.9,232.59674l45,0c1.2,0 2.2,1 2.2,2.2l0,9.8c0,1.2 -1,2.2 -2.2,2.2l-45,0c-1.2,0 -2.2,-1 -2.2,-2.2l0,-9.8c0,-1.2 0.9,-2.2 2.2,-2.2z" fill="#b45309" id="svg_52"/>
   <path class="st0_money-motivation-32" d="m369,248.59674l-41.3,0c-3.2,0 -5.8,-2.6 -5.8,-5.8l0,-6.1c0,-3.2 2.6,-5.8 5.8,-5.8l41.3,0c3.2,0 5.8,2.6 5.8,5.8l0,6.1c0,3.2 -2.6,5.8 -5.8,5.8zm-41.3,-14.1c-1.2,0 -2.2,1 -2.2,2.2l0,6.1c0,1.2 1,2.2 2.2,2.2l41.3,0c1.2,0 2.2,-1 2.2,-2.2l0,-6.1c0,-1.2 -1,-2.2 -2.2,-2.2l-41.3,0z" fill="#093F68" id="svg_53"/>
   <path class="st7_money-motivation-32" d="m394.6,274.99674l45,0c1.2,0 2.2,1 2.2,2.2l0,9.8c0,1.2 -1,2.2 -2.2,2.2l-45,0c-1.2,0 -2.2,-1 -2.2,-2.2l0,-9.8c0,-1.2 1,-2.2 2.2,-2.2z" fill="#b45309" id="svg_54"/>
   <path class="st0_money-motivation-32" d="m437.8,290.99674l-41.4,0c-3.2,0 -5.8,-2.6 -5.8,-5.8l0,-6.1c0,-3.2 2.6,-5.8 5.8,-5.8l41.4,0c3.2,0 5.8,2.6 5.8,5.8l0,6.1c0,3.2 -2.6,5.8 -5.8,5.8zm-41.4,-14.2c-1.2,0 -2.2,1 -2.2,2.2l0,6.1c0,1.2 1,2.2 2.2,2.2c0,0 0,0 0,0l41.4,0c1.2,0 2.2,-1 2.2,-2.2l0,-6.1c0,-1.2 -1,-2.2 -2.2,-2.2l-41.4,0z" fill="#093F68" id="svg_55"/>
   <path class="st7_money-motivation-32" d="m392.1,260.89674l45,0c1.2,0 2.2,1 2.2,2.2l0,9.8c0,1.2 -1,2.2 -2.2,2.2l-45,0c-1.2,0 -2.2,-1 -2.2,-2.2l0,-9.8c0.1,-1.2 1,-2.2 2.2,-2.2z" fill="#b45309" id="svg_56"/>
   <path class="st0_money-motivation-32" d="m434.3,276.79674l-41.3,0c-3.2,0 -5.8,-2.6 -5.8,-5.8l0,-6.1c0,-3.2 2.6,-5.8 5.8,-5.8l41.4,0c3.2,0 5.8,2.6 5.8,5.8l0,6.1c0,3.2 -2.6,5.8 -5.9,5.8c0,0 0,0 0,0zm-41.3,-14.1c-1.2,0 -2.2,1 -2.2,2.2l0,6.1c0,1.2 1,2.2 2.2,2.2l41.4,0c1.2,0 2.2,-1 2.2,-2.2l0,-6.1c0,-1.2 -1,-2.2 -2.2,-2.2l-41.4,0z" fill="#093F68" id="svg_57"/>
   <path class="st7_money-motivation-32" d="m391.4,246.79674l45,0c1.2,0 2.2,1 2.2,2.2l0,9.7c0,1.2 -1,2.2 -2.2,2.2l-45,0c-1.2,0 -2.2,-1 -2.2,-2.2l0,-9.7c0,-1.3 1,-2.2 2.2,-2.2z" fill="#b45309" id="svg_58"/>
   <path class="st0_money-motivation-32" d="m434.6,262.69674l-41.4,0c-3.2,0 -5.8,-2.6 -5.8,-5.8l0,-6.1c0,-3.2 2.6,-5.8 5.8,-5.8l41.4,0c3.2,0 5.8,2.6 5.8,5.8l0,6.1c0,3.2 -2.6,5.8 -5.8,5.8zm-41.4,-14.1c-1.2,0 -2.2,1 -2.2,2.2l0,6.1c0,1.2 1,2.2 2.2,2.2l41.4,0c1.2,0 2.2,-1 2.2,-2.2l0,-6.1c0,-1.2 -1,-2.2 -2.2,-2.2l-41.4,0z" fill="#093F68" id="svg_59"/>
   <path class="st7_money-motivation-32" d="m391.1,232.59674l45,0c1.2,0 2.2,1 2.2,2.2l0,9.8c0,1.2 -1,2.2 -2.2,2.2l-45,0c-1.2,0 -2.2,-1 -2.2,-2.2l0,-9.8c0.1,-1.2 1,-2.2 2.2,-2.2z" fill="#b45309" id="svg_60"/>
   <path class="st0_money-motivation-32" d="m434.3,248.59674l-41.3,0c-3.2,0 -5.8,-2.6 -5.8,-5.8l0,-6.1c0,-3.2 2.6,-5.8 5.8,-5.8l41.4,0c3.2,0 5.8,2.6 5.8,5.8l0,6.1c0,3.2 -2.6,5.8 -5.9,5.8c0,0 0,0 0,0zm-41.3,-14.1c-1.2,0 -2.2,1 -2.2,2.2l0,6.1c0,1.2 1,2.2 2.2,2.2l41.4,0c1.2,0 2.2,-1 2.2,-2.2l0,-6.1c0,-1.2 -1,-2.2 -2.2,-2.2l-41.4,0z" fill="#093F68" id="svg_61"/>
   <path class="st0_money-motivation-32" d="m385.2,165.99674c2.3,-0.2 4.7,-0.4 6.8,0.5s3.9,3.1 3.3,5.4c-0.1,0.5 -0.4,1 -0.8,1.3c-0.3,0.2 -0.7,0.3 -1.1,0.4c-4.5,0.8 -9.1,1.4 -13.7,1.7c-3.3,0.2 -11.6,1.4 -11.9,-3.9c-0.3,-4.8 4.1,-4.1 7.2,-4.6c3.5,-0.6 6.9,-0.5 10.2,-0.8z" fill="#093F68" id="svg_62"/>
   <path class="st0_money-motivation-32" d="m375.2,177.29674c-2.6,0 -5.4,-0.4 -7.2,-1.9c-1.2,-1 -1.9,-2.5 -1.9,-4c-0.4,-5.7 4.5,-6.1 7.2,-6.4c0.5,-0.1 1.1,-0.1 1.6,-0.2c2.1,-0.3 4.3,-0.5 6.4,-0.5c1.3,-0.1 2.6,-0.1 3.8,-0.2l0,0c2.3,-0.2 5.1,-0.4 7.6,0.6c2.7,1.1 5.2,4.1 4.4,7.5c-0.2,1 -0.8,1.8 -1.6,2.4c-0.5,0.3 -1.1,0.5 -1.7,0.6c-4.6,0.9 -9.2,1.4 -13.9,1.8l-1,0.1c-1,0.1 -2.4,0.2 -3.7,0.2zm10.2,-9.5c-1.3,0.1 -2.7,0.2 -4,0.2c-2,0 -4,0.2 -6,0.5c-0.6,0.1 -1.2,0.1 -1.8,0.2c-3.5,0.3 -4,0.6 -3.9,2.5c0,0.6 0.2,1.1 0.7,1.4c1.7,1.4 6,1.1 8.3,0.9l1,-0.1c4.5,-0.3 9,-0.9 13.5,-1.7l0.4,-0.1c0,0 0,-0.1 0,-0.2c0.3,-1.3 -0.9,-2.7 -2.2,-3.2c-1.8,-0.8 -4.1,-0.6 -6,-0.4l0,0z" fill="#093F68" id="svg_63"/>
   <path class="st0_money-motivation-32" d="m380.5,218.49674l0,-2.4c-0.9,-0.2 -1.7,-0.4 -2.6,-0.7c-1.6,-0.5 -3,-1.6 -4,-3c-0.8,-1.2 -1.2,-2.7 -1.1,-4.1l4.7,0c0.1,1.7 1.3,3.1 2.9,3.5l0,-6.4c-1,-0.3 -1.9,-0.5 -2.8,-0.8c-1,-0.3 -2,-0.8 -2.8,-1.6c-0.8,-0.8 -1.4,-1.9 -1.5,-3c-0.3,-1.4 -0.2,-2.8 0.3,-4.1c0.7,-1.9 2.2,-3.4 4.2,-4.1c0.8,-0.3 1.6,-0.5 2.4,-0.6l0.3,-0.1l0,-3.2l4.4,0l0,0.3c0,0.9 0,1.8 0,2.8c0,0.2 0.1,0.3 0.3,0.3c1.5,0.3 2.9,1 4.1,1.9c1.3,1 2.1,2.5 2.4,4.1c0.1,0.4 0.1,0.9 0.2,1.4l-4.9,0c0,-1.3 -0.8,-2.6 -2.1,-3.1l0,6l0.5,0.1c1.3,0.3 2.6,0.7 3.8,1.2c1.9,0.8 3.1,2.6 3.3,4.6c0.5,3.5 -1.5,6.8 -4.8,7.9c-0.9,0.3 -1.8,0.5 -2.8,0.8l0,2.4l-4.4,0l0,-0.1zm4.5,-12.2l0,5.6c0.7,-0.1 1.4,-0.4 2,-0.9c1,-0.9 1.2,-2.4 0.3,-3.4c-0.1,-0.2 -0.3,-0.3 -0.5,-0.4c-0.5,-0.4 -1.2,-0.7 -1.8,-0.9zm-4.5,-5.8l0,-5.4c-0.6,0.3 -1.1,0.5 -1.7,0.9c-1,0.7 -1.3,2.2 -0.6,3.2c0.2,0.3 0.4,0.5 0.7,0.7c0.5,0.2 1,0.4 1.6,0.6z" fill="#093F68" id="svg_64"/>
  </g>
  <g id="sprakling_money-motivation-32">
   <path class="st8_money-motivation-32" d="m324.2,185.8c-0.9,0 -1.6,-0.6 -1.8,-1.4c-2.1,-10.2 -8.7,-10.4 -9,-10.4c-0.9,0 -1.7,-0.7 -1.8,-1.6c-0.1,-0.9 0.5,-1.8 1.3,-2c9.3,-2.5 9.1,-9.6 9.1,-9.9c0,-1 0.8,-1.9 1.8,-1.9c0.9,0 1.7,0.6 1.9,1.5c1.6,9.6 8.4,9.4 9.2,9.3c1,-0.1 1.9,0.6 2,1.6c0.1,1 -0.6,1.9 -1.6,2c-8.2,1 -9.2,10.7 -9.2,11.1c-0.1,0.9 -0.8,1.6 -1.7,1.7l-0.2,0zm-5.5,-13.8c2.3,1.4 4.1,3.4 5.3,5.8c1.1,-2.5 2.8,-4.6 5,-6.2c-2.1,-1.1 -3.8,-2.8 -4.9,-4.9c-1.3,2.2 -3.2,4 -5.4,5.3z" fill="#DFEAEF" id="svg_65"/>
   <path class="st8_money-motivation-32" d="m345.5,138c-0.9,0 -1.6,-0.6 -1.8,-1.4c-1.6,-7.8 -6.6,-8 -6.8,-8c-1,0 -1.8,-0.8 -1.8,-1.8c0,-0.8 0.6,-1.6 1.4,-1.8c7.1,-1.9 7,-7.3 7,-7.5c0,-1 0.8,-1.9 1.8,-1.9c0.9,0 1.7,0.6 1.9,1.5c1.2,7.3 6.3,7.1 6.9,7.1c1,-0.1 1.9,0.6 2,1.7c0.1,1 -0.6,1.9 -1.6,2c-6.2,0.7 -7,8.2 -7,8.5c-0.1,0.9 -0.8,1.6 -1.7,1.7l-0.3,-0.1zm-3.7,-11.4c1.4,1 2.6,2.3 3.5,3.8c0.8,-1.6 1.9,-3 3.3,-4.1c-1.3,-0.8 -2.4,-1.9 -3.2,-3.3c-0.9,1.5 -2.1,2.7 -3.6,3.6l0,0z" fill="#DFEAEF" id="svg_66"/>
   <path class="st8_money-motivation-32" d="m438.3,180.6c-0.9,0 -1.6,-0.6 -1.8,-1.4c-2.9,-13.6 -11.7,-13.8 -12.1,-13.8c-1,0 -1.8,-0.8 -1.8,-1.8c0,-0.8 0.6,-1.6 1.4,-1.8c12.4,-3.3 12.1,-12.9 12.1,-13.3c-0.1,-1 0.6,-1.9 1.7,-2c1,-0.1 1.9,0.6 2,1.6c2.1,13 12,12.4 12.4,12.4c1,-0.1 1.9,0.6 2,1.6c0.1,1 -0.6,1.9 -1.6,2c-11,1.3 -12.2,14.2 -12.3,14.7c-0.1,0.9 -0.8,1.6 -1.7,1.7l-0.3,0.1zm-8,-17.4c3.7,2 6.1,5.8 7.6,9.1c1.4,-3.9 4,-7.3 7.5,-9.6c-3.3,-1.5 -5.9,-4.2 -7.4,-7.4c-1.6,3.4 -4.3,6.2 -7.7,7.9l0,0z" fill="#DFEAEF" id="svg_67"/>
  </g>
 </g>

</svg>