<svg width="888" height="544.35712" xmlns="http://www.w3.org/2000/svg" source="https://undraw.co/" artist="Katerina Limpitsouni" role="img">

 <g>
  <title>Layer 1</title>
  <path id="svg_1" fill="#f2f2f2" d="m535.81666,481.95374l-32.03108,8.59237l32.26282,-19.83964c-0.694,-31.6281 -11.73343,-64.42416 -11.73343,-64.42416s-68.94964,19.97485 -87.0457,54.56423s-3.85172,57.4245 21.514,70.69506c25.36535,13.27034 52.24662,11.95083 70.34268,-22.63855c4.02786,-7.6989 6.02079,-17.05588 6.69071,-26.94931z"/>
  <path id="svg_2" fill="#fff" d="m497.66217,488.7149l-0.892,1.70493c-10.4695,19.76515 -21.90154,33.47938 -34.15608,40.93644c-0.17673,0.1118 -0.35749,0.21074 -0.53427,0.32251l-0.5003,-0.83148l-0.47089,-0.80541c13.42679,-7.95112 24.69573,-23.2235 33.832,-40.46089c0.2999,-0.55268 0.6042,-1.11375 0.8916,-1.68367c3.80313,-7.33114 7.22842,-14.96737 10.27323,-22.534c0.24082,-0.58359 0.47758,-1.18 0.71434,-1.77641c3.96734,-10.00808 7.275,-19.82376 9.92626,-28.467c0.19018,-0.61009 0.37188,-1.22454 0.54918,-1.83059c4.42748,-14.6481 6.88347,-25.65114 7.40983,-28.0957c0.0694,-0.29695 0.10222,-0.46253 0.11142,-0.50069l0.92109,0.19159l0.01287,-0.004l0.92953,0.196c-0.00923,0.03821 -0.11746,0.59439 -0.34923,1.61269c-0.84549,3.81487 -3.246,14.11591 -7.20329,27.28991c-0.18133,0.59319 -0.36306,1.20769 -0.55321,1.81772c-2.1442,7.01643 -4.70671,14.77084 -7.6994,22.75164q-1.12264,3.0088 -2.28139,5.90189c-0.22836,0.6008 -0.46512,1.1972 -0.70593,1.78079q-4.93553,12.2699 -10.22536,22.48373z"/>
  <path id="svg_3" fill="#fff" d="m519.12753,433.97915c-0.60525,-0.21986 -1.21894,-0.44414 -1.83222,-0.68979a52.55222,52.55222 0 0 1 -4.88848,-2.24569a51.1186,51.1186 0 0 1 -17.26793,-14.66734c-0.58851,0.26187 -1.177,0.52378 -1.77841,0.78967a53.01144,53.01144 0 0 0 18.16319,15.56575a54.37247,54.37247 0 0 0 5.22245,2.3882c0.60486,0.24118 1.21855,0.46546 1.82819,0.67692a52.56515,52.56515 0 0 0 15.5953,2.9664q-0.18011,-0.98112 -0.34815,-1.92373a50.94312,50.94312 0 0 1 -14.69394,-2.86039z"/>
  <path id="svg_4" fill="#fff" d="m508.59353,464.4504q-0.90006,-0.40643 -1.77366,-0.86343c-0.18169,-0.08429 -0.36735,-0.18142 -0.54462,-0.27416a51.3897,51.3897 0 0 1 -27.16055,-39.07568c-0.5981,0.32134 -1.19628,0.64271 -1.79035,0.97692a53.29793,53.29793 0 0 0 28.06775,39.78684c0.23635,0.12365 0.47266,0.24728 0.71343,0.36249c0.59521,0.30063 1.18644,0.58842 1.78207,0.86781a53.016,53.016 0 0 0 29.61826,4.31468c-0.00959,-0.63926 -0.01915,-1.27858 -0.03718,-1.92226a51.03685,51.03685 0 0 1 -28.87515,-4.17321z"/>
  <path id="svg_5" fill="#fff" d="m497.66217,488.7149c-0.61728,-0.25844 -1.22577,-0.53381 -1.82987,-0.81757c-0.64627,-0.30589 -1.28814,-0.62017 -1.92117,-0.95135a51.5287,51.5287 0 0 1 -26.58585,-55.75026c-0.73754,0.485 -1.47062,0.96152 -2.19123,1.45532a53.41569,53.41569 0 0 0 27.89393,55.983c0.633,0.33118 1.27048,0.65392 1.91272,0.94694c0.60812,0.29663 1.21662,0.572 1.82951,0.83883a53.25942,53.25942 0 0 0 39.09794,1.09295c0.1495,-0.71732 0.26928,-1.43943 0.39348,-2.17a51.36248,51.36248 0 0 1 -38.59946,-0.62786z"/>
  <path id="svg_6" fill="#f2f2f2" d="m115.18334,484.95374l32.03108,8.59237l-32.26282,-19.83964c0.694,-31.6281 11.73343,-64.42416 11.73343,-64.42416s68.94964,19.97485 87.0457,54.56423s3.85172,57.4245 -21.514,70.69506c-25.36535,13.27034 -52.24662,11.95083 -70.34268,-22.63855c-4.02786,-7.6989 -6.02079,-17.05588 -6.69071,-26.94931z"/>
  <path id="svg_7" fill="#fff" d="m153.33783,491.7149l0.892,1.70493c10.4695,19.76515 21.90154,33.47938 34.15608,40.93644c0.17673,0.1118 0.35749,0.21074 0.53427,0.32251l0.5003,-0.83148l0.47089,-0.80541c-13.42679,-7.95112 -24.69573,-23.2235 -33.832,-40.46089c-0.2999,-0.55268 -0.6042,-1.11375 -0.8916,-1.68367c-3.80313,-7.33114 -7.22842,-14.96737 -10.27323,-22.534c-0.24082,-0.58359 -0.47758,-1.18 -0.71434,-1.77641c-3.96734,-10.00808 -7.275,-19.82376 -9.92626,-28.467c-0.19018,-0.61009 -0.37188,-1.22454 -0.54918,-1.83059c-4.42748,-14.6481 -6.88347,-25.65114 -7.40983,-28.0957c-0.0694,-0.29695 -0.10222,-0.46253 -0.11142,-0.50069l-0.92109,0.19159l-0.01287,-0.004l-0.92953,0.196c0.00923,0.03821 0.11746,0.59439 0.34923,1.61269c0.84549,3.81487 3.246,14.11591 7.20329,27.28991c0.18133,0.59319 0.36306,1.20769 0.55321,1.81772c2.1442,7.01643 4.70671,14.77084 7.6994,22.75164q1.12264,3.0088 2.28139,5.90189c0.22836,0.6008 0.46512,1.1972 0.70593,1.78079q4.93553,12.2699 10.22536,22.48373z"/>
  <path id="svg_8" fill="#fff" d="m117.17853,439.83956q-0.16806,0.94264 -0.34815,1.92373a52.56515,52.56515 0 0 0 15.5953,-2.9664c0.60964,-0.21146 1.22333,-0.43574 1.82819,-0.67692a54.37247,54.37247 0 0 0 5.22245,-2.3882a53.01144,53.01144 0 0 0 18.16319,-15.56575c-0.60137,-0.26589 -1.1899,-0.5278 -1.77841,-0.78967a51.1186,51.1186 0 0 1 -17.26793,14.66734a52.55222,52.55222 0 0 1 -4.88848,2.24569c-0.61328,0.24565 -1.227,0.46993 -1.83222,0.68979a50.94312,50.94312 0 0 1 -14.69394,2.86039z"/>
  <path id="svg_9" fill="#fff" d="m113.53132,471.62361c-0.018,0.64368 -0.02759,1.283 -0.03718,1.92226a53.016,53.016 0 0 0 29.61826,-4.31468c0.59563,-0.27939 1.18686,-0.56718 1.78207,-0.86781c0.24077,-0.11521 0.47708,-0.23884 0.71343,-0.36249a53.29793,53.29793 0 0 0 28.06775,-39.78684c-0.59407,-0.33421 -1.19225,-0.65558 -1.79035,-0.97692a51.3897,51.3897 0 0 1 -27.16055,39.07568c-0.17727,0.09274 -0.36293,0.18987 -0.54462,0.27416q-0.87359,0.457 -1.77366,0.86343a51.03685,51.03685 0 0 1 -28.87515,4.17321z"/>
  <path id="svg_10" fill="#fff" d="m114.73837,492.34279c0.1242,0.73056 0.244,1.45267 0.39348,2.17a53.25942,53.25942 0 0 0 39.09794,-1.09295c0.61289,-0.26684 1.22139,-0.5422 1.82951,-0.83883c0.64224,-0.293 1.27969,-0.61576 1.91272,-0.94694a53.41569,53.41569 0 0 0 27.89393,-55.983c-0.72061,-0.4938 -1.45369,-0.97031 -2.19123,-1.45532a51.5287,51.5287 0 0 1 -26.58585,55.75026c-0.633,0.33118 -1.2749,0.64546 -1.92117,0.95135c-0.6041,0.28376 -1.21259,0.55913 -1.82987,0.81757a51.36248,51.36248 0 0 1 -38.59946,0.62786z"/>
  <path id="svg_11" fill="#f2f2f2" d="m265.35612,509.1739l19.06893,5.11526l-19.20689,-11.81105c0.41318,-18.829 6.98521,-38.35337 6.98521,-38.35337s41.04752,11.89154 51.82057,32.4835s2.293,34.1863 -12.80787,42.08661c-15.10065,7.90018 -31.10377,7.11464 -41.87683,-13.47732c-2.39786,-4.58335 -3.5843,-10.15381 -3.98312,-16.04363z"/>
  <path id="svg_12" fill="#fff" d="m288.07048,513.199l0.531,1.015c6.23276,11.76671 13.03855,19.93115 20.334,24.37053c0.10521,0.06655 0.21282,0.12545 0.31807,0.192l0.29783,-0.495l0.28033,-0.47948c-7.99331,-4.7335 -14.702,-13.82555 -20.14108,-24.08742c-0.17854,-0.329 -0.35969,-0.663 -0.53079,-1.00233c-2.2641,-4.36442 -4.30327,-8.91047 -6.11593,-13.41505c-0.14336,-0.34743 -0.28431,-0.70248 -0.42526,-1.05754c-2.36186,-5.95807 -4.331,-11.8016 -5.90936,-16.94716c-0.11322,-0.3632 -0.22139,-0.729 -0.32694,-1.0898c-2.63579,-8.72039 -4.09791,-15.27078 -4.41126,-16.72609c-0.04132,-0.17679 -0.06086,-0.27536 -0.06634,-0.29808l-0.54834,0.11406l-0.00766,-0.0024l-0.55338,0.1167c0.0055,0.02275 0.06993,0.35385 0.2079,0.96007c0.50335,2.27109 1.93241,8.40357 4.28831,16.24639c0.108,0.35314 0.21614,0.719 0.32934,1.08214c1.2765,4.17707 2.802,8.79347 4.58366,13.54464q0.66833,1.79123 1.35816,3.51355c0.13595,0.35767 0.2769,0.71273 0.42027,1.06016q2.93827,7.30454 6.08747,13.38511z"/>
  <path id="svg_13" fill="#fff" d="m266.54391,482.31625q-0.1,0.56118 -0.20727,1.14525a31.29351,31.29351 0 0 0 9.28429,-1.766c0.36293,-0.12589 0.72828,-0.25941 1.08837,-0.403a32.37024,32.37024 0 0 0 3.10906,-1.42175a31.55916,31.55916 0 0 0 10.813,-9.2667c-0.358,-0.15829 -0.70838,-0.31422 -1.05873,-0.47011a30.43228,30.43228 0 0 1 -10.28005,8.73185a31.28691,31.28691 0 0 1 -2.91024,1.33691c-0.3651,0.14624 -0.73045,0.27977 -1.09077,0.41065a30.32734,30.32734 0 0 1 -8.74766,1.7029z"/>
  <path id="svg_14" fill="#fff" d="m264.37263,501.23813c-0.01074,0.3832 -0.01643,0.7638 -0.02213,1.14437a31.56185,31.56185 0 0 0 17.63252,-2.56863c0.35459,-0.16634 0.70656,-0.33766 1.0609,-0.51664c0.14334,-0.06858 0.284,-0.14218 0.42473,-0.2158a31.7296,31.7296 0 0 0 16.70946,-23.68614c-0.35366,-0.199 -0.70977,-0.39028 -1.06584,-0.58158a30.59363,30.59363 0 0 1 -16.16938,23.26276c-0.10553,0.05521 -0.21606,0.113 -0.32423,0.16322q-0.52006,0.27208 -1.05591,0.514a30.38347,30.38347 0 0 1 -17.19012,2.48444z"/>
  <path id="svg_15" fill="#fff" d="m265.09122,513.5728c0.07394,0.43492 0.14525,0.86481 0.23424,1.29185a31.70674,31.70674 0 0 0 23.276,-0.65066c0.36487,-0.15886 0.72712,-0.32279 1.08915,-0.49938c0.38234,-0.17444 0.76183,-0.36657 1.13869,-0.56374a31.79973,31.79973 0 0 0 16.606,-33.32815c-0.429,-0.294 -0.86542,-0.57764 -1.30449,-0.86638a30.67636,30.67636 0 0 1 -15.82725,33.18957c-0.37686,0.19717 -0.759,0.38427 -1.14372,0.56637c-0.35964,0.16893 -0.72189,0.33286 -1.08937,0.48672a30.57741,30.57741 0 0 1 -22.97925,0.3738z"/>
  <path id="svg_16" fill="#fff" d="m646.23611,336.05678l-0.08154,-0.00684c-15.16675,-2.50439 -32.01514,-2.50342 -51.50806,0.00293l-0.00781,0a3.68561,3.68561 0 0 1 -3.72925,-3.66943l0,-17.65332a3.67762,3.67762 0 0 1 3.67334,-3.67334a199.87414,199.87414 0 0 1 51.71484,0.0039l0.00684,0a3.65914,3.65914 0 0 1 3.605,3.66944l0,17.65332a3.67762,3.67762 0 0 1 -3.67336,3.67334z"/>
  <path id="svg_17" fill="#b45309" d="m646.23611,336.05678l-0.08154,-0.00684c-15.16675,-2.50439 -32.01514,-2.50342 -51.50806,0.00293l-0.00781,0a3.68561,3.68561 0 0 1 -3.72925,-3.66943l0,-17.65332a3.67762,3.67762 0 0 1 3.67334,-3.67334a199.87414,199.87414 0 0 1 51.71484,0.0039l0.00684,0a3.65914,3.65914 0 0 1 3.605,3.66944l0,17.65332a3.67762,3.67762 0 0 1 -3.67336,3.67334zm-26.48242,-25.6753a184.49964,184.49964 0 0 0 -25.10279,1.67041a2.69885,2.69885 0 0 0 -2.74145,2.67823l0,17.65332a2.67632,2.67632 0 0 0 2.67334,2.67334c19.50952,-2.5127 36.43945,-2.51319 51.69263,-0.00049a2.67622,2.67622 0 0 0 2.634,-2.67285l0,-17.65332a2.67632,2.67632 0 0 0 -2.67334,-2.67334a215.52784,215.52784 0 0 0 -26.48239,-1.6753z"/>
  <path id="svg_18" d="m620.40945,329.7141c-3.8674,0 -7,-3.1326 -7,-7c0,-3.8674 3.1326,-7 7,-7c3.8674,0 7,3.1326 7,7c0,3.8674 -3.1326,7 -7,7z" opacity="undefined" fill="#b45309"/>
  <path stroke="null" id="svg_19" fill="#b45309" d="m602.40945,319.05678l-6,0a1.50164,1.50164 0 0 1 -1.5,-1.5l0,-2a1.50164,1.50164 0 0 1 1.5,-1.5l6,0a1.50164,1.50164 0 0 1 1.5,1.5l0,2a1.50164,1.50164 0 0 1 -1.5,1.5z"/>
  <path id="svg_20" fill="#b45309" d="m644.40945,333.05678l-6,0a1.50164,1.50164 0 0 1 -1.5,-1.5l0,-2a1.50164,1.50164 0 0 1 1.5,-1.5l6,0a1.50164,1.50164 0 0 1 1.5,1.5l0,2a1.50164,1.50164 0 0 1 -1.5,1.5z"/>
  <path id="svg_21" fill="#fff" d="m637.69914,328.75547l-0.07246,-0.038c-12.999,-8.20544 -28.52151,-14.75669 -47.45472,-20.02821l-0.0072,-0.003a3.68562,3.68562 0 0 1 -2.0087,-4.83086l6.86518,-16.26373a3.67763,3.67763 0 0 1 4.81272,-1.95567a199.87381,199.87381 0 0 1 47.64257,20.11493l0.0063,0.00266a3.65914,3.65914 0 0 1 1.89421,4.78253l-6.86518,16.26373a3.67763,3.67763 0 0 1 -4.81272,1.95562z"/>
  <path id="svg_22" fill="#b45309" d="m637.69914,328.75547l-0.07246,-0.038c-12.999,-8.20544 -28.52151,-14.75669 -47.45472,-20.02821l-0.0072,-0.003a3.68562,3.68562 0 0 1 -2.0087,-4.83086l6.86518,-16.26373a3.67763,3.67763 0 0 1 4.81272,-1.95567a199.87381,199.87381 0 0 1 47.64257,20.11493l0.0063,0.00266a3.65914,3.65914 0 0 1 1.89421,4.78253l-6.86518,16.26373a3.67763,3.67763 0 0 1 -4.81272,1.95562zm-14.413,-33.953a184.49849,184.49849 0 0 0 -23.77641,-8.22327a2.69885,2.69885 0 0 0 -3.56719,1.40128l-6.86518,16.26373a2.67632,2.67632 0 0 0 1.42327,3.50254c18.951,5.27213 34.54846,11.85555 47.62381,20.10224a2.67621,2.67621 0 0 0 3.46614,-1.43811l6.86518,-16.26373a2.67633,2.67633 0 0 0 -1.42327,-3.50254a215.53,215.53 0 0 0 -23.74636,-11.84211l0.00001,-0.00003z"/>
  <circle id="svg_23" fill="#b45309" r="7" cy="306.41937" cx="619.09426"/>
  <path id="svg_24" fill="#b45309" d="m603.93343,296.04993l-5.52771,-2.33333a1.50165,1.50165 0 0 1 -0.7986,-1.96526l0.77778,-1.84257a1.50164,1.50164 0 0 1 1.96526,-0.7986l5.52771,2.33334a1.50164,1.50164 0 0 1 0.79859,1.96526l-0.77777,1.84257a1.50164,1.50164 0 0 1 -1.96526,0.79859z"/>
  <path id="svg_25" fill="#b45309" d="m637.18294,325.28125l-5.52771,-2.33333a1.50164,1.50164 0 0 1 -0.7986,-1.96526l0.77778,-1.84257a1.50165,1.50165 0 0 1 1.96526,-0.7986l5.52771,2.33334a1.50164,1.50164 0 0 1 0.79859,1.96526l-0.77777,1.84257a1.50164,1.50164 0 0 1 -1.96526,0.79859z"/>
  <path id="svg_26" fill="#ffb6b6" d="m651.47454,319.09109a10.0558,10.0558 0 0 0 2.38568,-15.23366l17.70867,-31.0384l-18.53107,1.19717l-13.97544,29.291a10.11027,10.11027 0 0 0 12.41216,15.78384l0,0.00005z"/>
  <polygon id="svg_27" fill="#ffb6b6" points="787.796 530.684 775.536 530.684 769.704 483.396 787.798 483.397 787.796 530.684"/>
  <path id="svg_28" fill="#2f2e41" d="m790.92249,542.56823l-39.53076,-0.00146l0,-0.5a15.3873,15.3873 0 0 1 15.38648,-15.38621l0.001,0l24.144,0.001l-0.00072,15.88667z"/>
  <polygon id="svg_29" fill="#ffb6b6" points="703.796 530.684 691.536 530.684 685.704 483.396 703.798 483.397 703.796 530.684"/>
  <path id="svg_30" fill="#2f2e41" d="m706.92249,542.56823l-39.53076,-0.00146l0,-0.5a15.3873,15.3873 0 0 1 15.38648,-15.38621l0.001,0l24.144,0.001l-0.00072,15.88667z"/>
  <path id="svg_31" fill="#2f2e41" d="m672.27085,274.1527s-3.37214,48.02131 3.26935,72.2062s7.82743,170.44079 7.82743,170.44079l22.26172,0l19.29489,-199.08529l44.48217,199.78736l21.20442,-1.458l-11.62883,-235.42256l-106.71115,-6.4685z"/>
  <path id="svg_32" fill="#e4e4e4" d="m769.78263,112.27504l-17.01855,-12.419l-28.51721,6.20952l-7.71942,18.34224l-13.30152,6.595a30.15158,30.15158 0 0 0 -16.44681,22.69232l-19.00293,131.225l111.20579,-4.2989l13.46287,-154.54282a12.11573,12.11573 0 0 0 -11.367,-13.1468l-11.29522,-0.65656z"/>
  <polygon id="svg_33" fill="#e4e4e4" points="696.189 141.253 685.918 155.099 641.182 291.544 662.152 299.94 695.729 236.359 696.189 141.253"/>
  <circle id="svg_34" fill="#2f2e41" r="34.03722" cy="57.7951" cx="732.96063"/>
  <circle id="svg_35" fill="#ffb9b9" r="24.83796" cy="68.53439" cx="733.42059"/>
  <path id="svg_36" fill="#2f2e41" d="m752.27905,65.31466c-15.81555,-5.7046 -21.16736,-9.20907 -38.63684,0l-6.43945,-25.75788l51.51574,0l-6.43945,25.75788z"/>
  <circle id="svg_37" fill="#2f2e41" r="19.31842" cy="23.91805" cx="730.20086"/>
  <path id="svg_38" fill="#2f2e41" d="m707.20276,19.31843a19.30232,19.30232 0 0 1 18.39849,-19.272c-0.307,-0.0145 -0.60931,-0.04643 -0.91992,-0.04643a19.31841,19.31841 0 1 0 0,38.63682c0.31061,0 0.61292,-0.03193 0.91992,-0.04643a19.30234,19.30234 0 0 1 -18.39849,-19.27196z"/>
  <polygon id="svg_39" opacity="0.1" points="778.087 149.111 771.157 218.196 746.683 266.431 778.087 149.111"/>
  <rect id="svg_40" fill="#f0f0f0" height="5" width="6" y="361.73676" x="39.5"/>
  <path id="svg_41" fill="#f0f0f0" d="m613.0293,366.73676l-11.82325,0l0,-5l11.82325,0l0,5zm-23.64649,0l-11.82422,0l0,-5l11.82422,0l0,5zm-23.64746,0l-11.82324,0l0,-5l11.82324,0l0,5zm-23.64648,0l-11.82422,0l0,-5l11.82422,0l0,5zm-23.64746,0l-11.82325,0l0,-5l11.82325,0l0,5zm-23.64746,0l-11.82325,0l0,-5l11.8233,0l-0.00005,5zm-23.64649,0l-11.82324,0l0,-5l11.82324,0l0,5zm-23.64746,0l-11.82324,0l0,-5l11.82324,0l0,5zm-23.647,0l-11.82321,0l0,-5l11.82321,0l0,5zm-23.647,0l-11.82368,0l0,-5l11.82373,0l-0.00005,5zm-23.647,0l-11.82365,0l0,-5l11.82373,0l-0.00008,5zm-23.647,0l-11.8237,0l0,-5l11.82373,0l-0.00003,5zm-23.647,0l-11.82359,0l0,-5l11.82373,0l-0.00014,5zm-23.64747,0l-11.8231,0l0,-5l11.82325,0l-0.00015,5zm-23.647,0l-11.82307,0l0,-5l11.82324,0l-0.00017,5zm-23.647,0l-11.82353,0l0,-5l11.82373,0l-0.0002,5zm-23.647,0l-11.82353,0l0,-5l11.82373,0l-0.0002,5zm-23.647,0l-11.82348,0l0,-5l11.82374,0l-0.00026,5zm-23.64746,0l-11.82299,0l0,-5l11.82324,0l-0.00025,5zm-23.647,0l-11.823,0l0,-5l11.82324,0l-0.00024,5zm-23.647,0l-11.823,0l0,-5l11.82324,0l-0.00024,5zm-23.647,0l-11.82339,0l0,-5l11.82373,0l-0.00034,5zm-23.647,0l-11.82337,0l0,-5l11.82373,0l-0.00036,5zm-23.647,0l-11.8234,0l0,-5l11.82373,0l-0.00033,5z"/>
  <rect id="svg_42" fill="#f0f0f0" height="5" width="6" y="234.73675" x="39.5"/>
  <path id="svg_43" fill="#f0f0f0" d="m613.0293,239.73676l-11.82325,0l0,-5l11.82325,0l0,5zm-23.64649,0l-11.82422,0l0,-5l11.82422,0l0,5zm-23.64746,0l-11.82324,0l0,-5l11.82324,0l0,5zm-23.64648,0l-11.82422,0l0,-5l11.82422,0l0,5zm-23.64746,0l-11.82325,0l0,-5l11.82325,0l0,5zm-23.64746,0l-11.82325,0l0,-5l11.8233,0l-0.00005,5zm-23.64649,0l-11.82324,0l0,-5l11.82324,0l0,5zm-23.64746,0l-11.82324,0l0,-5l11.82324,0l0,5zm-23.647,0l-11.82321,0l0,-5l11.82321,0l0,5zm-23.647,0l-11.82368,0l0,-5l11.82373,0l-0.00005,5zm-23.647,0l-11.82365,0l0,-5l11.82373,0l-0.00008,5zm-23.647,0l-11.8237,0l0,-5l11.82373,0l-0.00003,5zm-23.647,0l-11.82359,0l0,-5l11.82373,0l-0.00014,5zm-23.64747,0l-11.8231,0l0,-5l11.82325,0l-0.00015,5zm-23.647,0l-11.82307,0l0,-5l11.82324,0l-0.00017,5zm-23.647,0l-11.82353,0l0,-5l11.82373,0l-0.0002,5zm-23.647,0l-11.82353,0l0,-5l11.82373,0l-0.0002,5zm-23.647,0l-11.82348,0l0,-5l11.82374,0l-0.00026,5zm-23.64746,0l-11.82299,0l0,-5l11.82324,0l-0.00025,5zm-23.647,0l-11.823,0l0,-5l11.82324,0l-0.00024,5zm-23.647,0l-11.823,0l0,-5l11.82324,0l-0.00024,5zm-23.647,0l-11.82339,0l0,-5l11.82373,0l-0.00034,5zm-23.647,0l-11.82337,0l0,-5l11.82373,0l-0.00036,5zm-23.647,0l-11.8234,0l0,-5l11.82373,0l-0.00033,5z"/>
  <rect id="svg_44" fill="#f0f0f0" height="5" width="6" y="107.73675" x="39.5"/>
  <path id="svg_45" fill="#f0f0f0" d="m613.0293,112.73676l-11.82325,0l0,-5l11.82325,0l0,5zm-23.64649,0l-11.82422,0l0,-5l11.82422,0l0,5zm-23.64746,0l-11.82324,0l0,-5l11.82324,0l0,5zm-23.64648,0l-11.82422,0l0,-5l11.82422,0l0,5zm-23.64746,0l-11.82325,0l0,-5l11.82325,0l0,5zm-23.64746,0l-11.82325,0l0,-5l11.8233,0l-0.00005,5zm-23.64649,0l-11.82324,0l0,-5l11.82324,0l0,5zm-23.64746,0l-11.82324,0l0,-5l11.82324,0l0,5zm-23.647,0l-11.82321,0l0,-5l11.82321,0l0,5zm-23.647,0l-11.82368,0l0,-5l11.82373,0l-0.00005,5zm-23.647,0l-11.82365,0l0,-5l11.82373,0l-0.00008,5zm-23.647,0l-11.8237,0l0,-5l11.82373,0l-0.00003,5zm-23.647,0l-11.82359,0l0,-5l11.82373,0l-0.00014,5zm-23.64747,0l-11.8231,0l0,-5l11.82325,0l-0.00015,5zm-23.647,0l-11.82307,0l0,-5l11.82324,0l-0.00017,5zm-23.647,0l-11.82353,0l0,-5l11.82373,0l-0.0002,5zm-23.647,0l-11.82353,0l0,-5l11.82373,0l-0.0002,5zm-23.647,0l-11.82348,0l0,-5l11.82374,0l-0.00026,5zm-23.64746,0l-11.82299,0l0,-5l11.82324,0l-0.00025,5zm-23.647,0l-11.823,0l0,-5l11.82324,0l-0.00024,5zm-23.647,0l-11.823,0l0,-5l11.82324,0l-0.00024,5zm-23.647,0l-11.82339,0l0,-5l11.82373,0l-0.00034,5zm-23.647,0l-11.82337,0l0,-5l11.82373,0l-0.00036,5zm-23.647,0l-11.8234,0l0,-5l11.82373,0l-0.00033,5z"/>
  <rect id="svg_46" fill="#3f3d56" height="180" width="49" y="363.23676" x="186"/>
  <rect id="svg_47" fill="#b45309" height="180" width="49" y="363.23676" x="196"/>
  <rect id="svg_48" fill="#3f3d56" height="307.00002" width="49" y="236.23675" x="302"/>
  <rect id="svg_49" fill="#b45309" height="307.00002" width="49" y="236.23675" x="311"/>
  <rect id="svg_50" fill="#3f3d56" height="434.00002" width="49" y="109.23675" x="418"/>
  <rect id="svg_51" fill="#b45309" height="434.00002" width="49" y="109.23675" x="427"/>
  <circle id="svg_52" fill="#f0f0f0" r="12" cy="110.23675" cx="40"/>
  <circle id="svg_53" fill="#f0f0f0" r="12" cy="237.23675" cx="40"/>
  <circle id="svg_54" fill="#f0f0f0" r="12" cy="364.23676" cx="40"/>
  <rect id="svg_55" fill="#3f3d56" height="2.24072" width="888" y="542.1164"/>
  <path id="svg_56" fill="#fff" d="m749.23611,314.05678l-0.08154,-0.00684c-15.16675,-2.50439 -32.01514,-2.50342 -51.50806,0.00293l-0.00781,0a3.68561,3.68561 0 0 1 -3.72925,-3.66943l0,-17.65332a3.67762,3.67762 0 0 1 3.67334,-3.67334a199.87414,199.87414 0 0 1 51.71484,0.0039l0.00684,0a3.65914,3.65914 0 0 1 3.605,3.66944l0,17.65332a3.67762,3.67762 0 0 1 -3.67336,3.67334z"/>
  <path id="svg_57" fill="#CA8A04" d="m749.23611,314.05678l-0.08154,-0.00684c-15.16675,-2.50439 -32.01514,-2.50342 -51.50806,0.00293l-0.00781,0a3.68561,3.68561 0 0 1 -3.72925,-3.66943l0,-17.65332a3.67762,3.67762 0 0 1 3.67334,-3.67334a199.87414,199.87414 0 0 1 51.71484,0.0039l0.00684,0a3.65914,3.65914 0 0 1 3.605,3.66944l0,17.65332a3.67762,3.67762 0 0 1 -3.67336,3.67334zm-26.48242,-25.6753a184.49964,184.49964 0 0 0 -25.10279,1.67041a2.69885,2.69885 0 0 0 -2.74145,2.67823l0,17.65332a2.67632,2.67632 0 0 0 2.67334,2.67334c19.50952,-2.5127 36.43945,-2.51319 51.69263,-0.00049a2.67622,2.67622 0 0 0 2.634,-2.67285l0,-17.65332a2.67632,2.67632 0 0 0 -2.67334,-2.67334a215.52784,215.52784 0 0 0 -26.48239,-1.6753z"/>
  <circle id="svg_58" fill="#b45309" r="7" cy="300.7141" cx="723.40945"/>
  <path id="svg_59" fill="#CA8A04" d="m705.40945,297.05678l-6,0a1.50164,1.50164 0 0 1 -1.5,-1.5l0,-2a1.50164,1.50164 0 0 1 1.5,-1.5l6,0a1.50164,1.50164 0 0 1 1.5,1.5l0,2a1.50164,1.50164 0 0 1 -1.5,1.5z"/>
  <path stroke="null" style="vector-effect: non-scaling-stroke;" id="svg_60" fill="#CA8A04" d="m747.40945,311.05678l-6,0a1.50164,1.50164 0 0 1 -1.5,-1.5l0,-2a1.50164,1.50164 0 0 1 1.5,-1.5l6,0a1.50164,1.50164 0 0 1 1.5,1.5l0,2a1.50164,1.50164 0 0 1 -1.5,1.5z"/>
  <path id="svg_61" fill="#ffb6b6" d="m737.99376,290.91646a10.05579,10.05579 0 0 1 11.10029,-10.70231l15.23759,-32.32328l9.6632,15.85737l-15.95135,28.26363a10.11027,10.11027 0 0 1 -20.04973,-1.09541z"/>
  <path id="svg_62" fill="#e4e4e4" d="m779.42186,121.83906l6.27559,-8.18388s15.29017,-3.11417 17.88721,17.88722l-1.63525,93.36539l-33.50581,52.73667l-21.761,-5.55612l28.451,-62.64745l4.28826,-87.60183z"/>
 </g>
</svg>