<svg width="500" height="500" xmlns="http://www.w3.org/2000/svg" class="illustrations_image" imageName="Shopping Cart" data-imageid="shopping-cart-77" xml:space="preserve" version="1.1">

 <g>
  <title>Layer 1</title>
  <g id="Floor_shopping-cart-77">
   <path id="svg_1" fill="#D1D3D4" d="m435.9,363l-371.8,0c-0.4,0 -0.7,-0.3 -0.7,-0.7c0,-0.4 0.3,-0.7 0.7,-0.7l371.7,0c0.4,0 0.7,0.3 0.7,0.7s-0.2,0.7 -0.6,0.7c0,0 0,0 0,0z" class="st0_shopping-cart-77"/>
  </g>
  <g id="cart_shopping-cart-77">
   <rect id="svg_2" fill="#D1D3D4" height="73.3" width="46.8" class="st0_shopping-cart-77" transform="matrix(1 -6.108614e-03 6.108614e-03 1 -1.7666 2.348)" y="253.7" x="360.1"/>
   <path id="svg_3" fill="#231F20" d="m360.4,327.8c-0.2,0 -0.3,-0.1 -0.5,-0.2c-0.1,-0.1 -0.2,-0.3 -0.2,-0.5l-0.5,-73.4c0,-0.4 0.3,-0.6 0.6,-0.6c0,0 0,0 0,0l46.8,-0.3c0.2,0 0.3,0.1 0.5,0.2c0.1,0.1 0.2,0.3 0.2,0.4l0.5,73.4c0,0.4 -0.3,0.6 -0.6,0.6c0,0 0,0 0,0l-46.8,0.4zm0.1,-73.4l0.4,72.1l45.5,-0.3l-0.5,-72.1l-45.4,0.3z" class="st1_shopping-cart-77"/>
   <rect id="svg_4" fill="#b45309" height="56.7" width="66.1" class="st2_shopping-cart-77 targetColor" transform="matrix(0.9893 -0.1456 0.1456 0.9893 -40.4476 49.9478)" y="273" x="288"/>
   <path id="svg_5" fill="#231F20" d="m292.5,334.9c-0.3,0 -0.6,-0.2 -0.6,-0.5l-8.3,-56.1c0,-0.2 0,-0.3 0.1,-0.5c0.1,-0.1 0.3,-0.2 0.4,-0.2l65.4,-9.6c0.3,0 0.7,0.2 0.7,0.5l8.3,56.1c0.1,0.3 -0.2,0.7 -0.5,0.7c0,0 0,0 0,0l-65.5,9.6l0,0zm-7.5,-56.3l8.1,54.9l64.1,-9.4l-8.1,-54.9l-64.1,9.4z" class="st1_shopping-cart-77"/>
   <rect id="svg_6" fill="#D1D3D4" height="35.2" width="51.8" class="st0_shopping-cart-77" transform="matrix(0.9787 -0.2054 0.2054 0.9787 -45.6318 68.5508)" y="236.5" x="281.5"/>
   <path id="svg_7" fill="#231F20" d="m285.7,277.3c-0.3,0 -0.6,-0.2 -0.6,-0.5l-7.2,-34.4c0,-0.2 0,-0.3 0.1,-0.5c0.1,-0.1 0.2,-0.2 0.4,-0.3l50.6,-10.6c0.2,0 0.3,0 0.5,0.1c0.1,0.1 0.2,0.2 0.3,0.4l7.2,34.4c0.1,0.3 -0.1,0.7 -0.5,0.8c0,0 0,0 0,0l-50.8,10.6l0,0zm-6.5,-34.6l7,33.2l49.5,-10.4l-7,-33.2l-49.5,10.4z" class="st1_shopping-cart-77"/>
   <rect id="svg_8" fill="#231F20" height="28.1" width="38.6" class="st1_shopping-cart-77" transform="matrix(0.9887 -0.1497 0.1497 0.9887 -31.174 56.1332)" y="221.1" x="337.9"/>
   <path id="svg_9" fill="#231F20" d="m340.3,252.6c-0.3,0 -0.6,-0.2 -0.6,-0.6l-4.2,-27.8c-0.1,-0.3 0.2,-0.7 0.5,-0.7c0,0 0,0 0,0l38.2,-5.8c0.3,0 0.7,0.2 0.7,0.5l4.2,27.8c0,0.2 0,0.3 -0.1,0.5c-0.1,0.1 -0.3,0.2 -0.4,0.3l-38.3,5.8l0,0zm-3.5,-28l4,26.6l36.9,-5.6l-4,-26.6l-36.9,5.6z" class="st1_shopping-cart-77"/>
   <rect id="svg_10" fill="#b45309" height="17.9" width="38.9" class="st2_shopping-cart-77 targetColor" transform="matrix(0.8955 -0.4451 0.4451 0.8955 -63.8413 165.556)" y="209.8" x="301.1"/>
   <path id="svg_11" fill="#231F20" d="m307.1,236.1c-0.2,0 -0.5,-0.1 -0.6,-0.4l-8,-16c-0.1,-0.2 -0.1,-0.3 0,-0.5c0.1,-0.2 0.2,-0.3 0.3,-0.4l34.9,-17.3c0.2,-0.1 0.3,-0.1 0.5,0c0.2,0.1 0.3,0.2 0.4,0.3l8,16.1c0.1,0.2 0.1,0.3 0,0.5c-0.1,0.2 -0.2,0.3 -0.3,0.4l-34.9,17.2c-0.1,0 -0.2,0.1 -0.3,0.1zm-7.1,-16.4l7.4,14.9l33.7,-16.8l-7.4,-14.9l-33.7,16.8z" class="st1_shopping-cart-77"/>
   <rect id="svg_12" fill="#FFFFFF" height="22" width="19.2" class="st3_shopping-cart-77" transform="matrix(0.9375 -0.3479 0.3479 0.9375 -57.7044 152.0896)" y="225.7" x="385"/>
   <path id="svg_13" fill="#231F20" d="m389.5,251c-0.1,0 -0.2,0 -0.3,-0.1c-0.2,-0.1 -0.3,-0.2 -0.3,-0.4l-7.6,-20.6c-0.1,-0.3 0,-0.7 0.4,-0.8l18,-6.7c0.3,-0.1 0.7,0 0.8,0.4c0,0 0,0 0,0l7.6,20.6c0.1,0.2 0.1,0.3 0,0.5c-0.1,0.2 -0.2,0.3 -0.4,0.3l-18,6.7c-0.1,0.1 -0.2,0.1 -0.2,0.1zm-6.9,-20.9l7.2,19.4l16.8,-6.2l-7.2,-19.4l-16.8,6.2z" class="st1_shopping-cart-77"/>
   <rect id="svg_14" fill="#D1D3D4" height="20.7" width="20.7" class="st0_shopping-cart-77" transform="matrix(0.9917 -0.1284 0.1284 0.9917 -30.3416 46.0294)" y="247.9" x="331.3"/>
   <path id="svg_15" fill="#231F20" d="m332.7,270.5c-0.3,0 -0.6,-0.2 -0.6,-0.6l-2.7,-20.6c0,-0.2 0,-0.3 0.1,-0.5c0.1,-0.1 0.3,-0.2 0.4,-0.2l20.5,-2.7c0.4,0 0.7,0.2 0.7,0.6l2.7,20.5c0,0.4 -0.2,0.7 -0.6,0.7l-20.5,2.8l0,0zm-1.9,-20.6l2.5,19.3l19.3,-2.5l-2.5,-19.3l-19.3,2.5z" class="st1_shopping-cart-77"/>
   <circle id="svg_16" fill="#231F20" r="10.7" cy="397.5" cx="295.3" class="st1_shopping-cart-77"/>
   <path id="svg_17" fill="#231F20" d="m295.3,408.9c-6.3,0 -11.4,-5.1 -11.4,-11.4s5.1,-11.4 11.4,-11.4s11.4,5.1 11.4,11.4c0,0 0,0 0,0c-0.1,6.3 -5.2,11.4 -11.4,11.4zm0,-21.4c-5.5,0 -10,4.5 -10,10s4.5,10 10,10s10,-4.5 10,-10s-4.5,-10 -10,-10z" class="st1_shopping-cart-77"/>
   <path id="svg_18" fill="#D1D3D4" d="m292.9,381.8l0,13.8c0,3.6 4.1,3.8 5.9,0s5.9,-14.3 5.9,-14.3l-11.8,0.5z" class="st0_shopping-cart-77"/>
   <path id="svg_19" fill="#231F20" d="m295.2,399c-0.2,0 -0.5,0 -0.7,-0.1c-1.5,-0.4 -2.4,-1.8 -2.3,-3.3l0,-13.8c0,-0.3 0.3,-0.6 0.6,-0.6l11.8,-0.5c0.2,0 0.4,0.1 0.5,0.3c0.1,0.2 0.2,0.4 0.1,0.6c-0.2,0.4 -4,10.6 -5.9,14.3c-0.6,1.7 -2.2,2.9 -4.1,3.1zm-1.7,-16.6l0,13.2c0,1.1 0.5,1.9 1.3,2.1c1,0.2 2.5,-0.4 3.5,-2.3c1.5,-3.1 4.5,-10.7 5.5,-13.3l-10.3,0.3z" class="st1_shopping-cart-77"/>
   <circle id="svg_20" fill="#231F20" r="10.7" cy="397.5" cx="385" class="st1_shopping-cart-77"/>
   <path id="svg_21" fill="#231F20" d="m385,408.9c-6.3,0 -11.4,-5.1 -11.4,-11.4s5.1,-11.4 11.4,-11.4s11.4,5.1 11.4,11.4c0,0 0,0 0,0c0,6.3 -5.1,11.4 -11.4,11.4zm0,-21.4c-5.5,0 -10,4.5 -10,10s4.5,10 10,10s10,-4.5 10,-10s-4.5,-10 -10,-10z" class="st1_shopping-cart-77"/>
   <path id="svg_22" fill="#D1D3D4" d="m382.6,381.8l0,13.8c0,3.6 4.1,3.8 6,0s5.8,-14.3 5.8,-14.3l-11.8,0.5z" class="st0_shopping-cart-77"/>
   <path id="svg_23" fill="#231F20" d="m384.9,399c-0.2,0 -0.5,0 -0.7,-0.1c-1.5,-0.4 -2.4,-1.8 -2.3,-3.3l0,-13.8c0,-0.3 0.3,-0.6 0.6,-0.6l11.8,-0.5c0.2,0 0.4,0.1 0.5,0.3c0.1,0.2 0.2,0.4 0.1,0.6c-0.2,0.4 -4,10.6 -5.9,14.3c-0.5,1.8 -2.2,3 -4.1,3.1zm-1.6,-16.6l0,13.2c0,1.1 0.5,1.9 1.3,2.1c1,0.2 2.5,-0.4 3.4,-2.3c1.5,-3.1 4.5,-10.7 5.5,-13.3l-10.2,0.3z" class="st1_shopping-cart-77"/>
   <path id="svg_24" fill="#231F20" d="m420.6,268.8l0,0l-165.4,-8.7c-0.4,0 -0.7,-0.4 -0.7,-0.7c0,-0.4 0.4,-0.7 0.7,-0.7l165.4,8.7c0.4,0 0.7,0.3 0.7,0.7c0.1,0.4 -0.2,0.7 -0.7,0.7l0,0z" class="st1_shopping-cart-77"/>
   <path id="svg_25" fill="#231F20" d="m266.6,289.2c-0.4,0 -0.7,-0.3 -0.7,-0.7c0,-0.4 0.3,-0.7 0.7,-0.7l152.7,-1.5l0,0c0.4,0 0.7,0.3 0.7,0.7s-0.3,0.7 -0.7,0.7c0,0 0,0 0,0l-152.7,1.5l0,0z" class="st1_shopping-cart-77"/>
   <path id="svg_26" fill="#231F20" d="m282.1,322c-0.4,0 -0.7,-0.3 -0.7,-0.7c0,-0.4 0.3,-0.7 0.7,-0.7l0,0l134.5,-9.7c0.4,0 0.7,0.3 0.8,0.6c0,0.4 -0.3,0.7 -0.6,0.8l-134.7,9.7l0,0z" class="st1_shopping-cart-77"/>
   <path id="svg_27" fill="#231F20" d="m293.4,343.6c-4.6,0 -8.7,-2.9 -10.4,-7.1c-20.6,-53.1 -34.5,-87.8 -36.5,-91c-1.6,-1.2 -11.5,-3.7 -19.8,-5.4c-1.1,-0.3 -1.8,-1.4 -1.6,-2.5c0.2,-1.1 1.3,-1.8 2.4,-1.6c5.8,1.1 19.6,4.1 22.1,6.6c0.6,0.6 2.4,2.4 37.4,92.4c1.1,2.9 4,4.7 7.1,4.4l112,-9.5c3.1,-0.3 5.6,-2.7 6,-5.8l6.6,-56.1c0.1,-1.2 1.1,-2 2.3,-1.9c1.2,0.1 2,1.1 1.9,2.3c0,0 0,0.1 0,0.1l-6.6,56.2c-0.6,5.1 -4.7,9.1 -9.8,9.5l-112,9.5c-0.5,-0.1 -0.8,-0.1 -1.1,-0.1zm-46.9,-98.1l0,0z" class="st1_shopping-cart-77"/>
   <path id="svg_28" fill="#FFFFFF" d="m231.2,233.9l-2.7,9.5l-21.9,-5.9c-2.1,-0.6 -3.4,-2.7 -2.9,-4.9c0,0 0,-0.1 0,-0.1l0,0c0.6,-2 2.6,-3.3 4.6,-2.9l22.9,4.3z" class="st3_shopping-cart-77"/>
   <path id="svg_29" fill="#231F20" d="m228.5,244.1l-0.2,0l-21.9,-5.9c-2.5,-0.7 -4,-3.3 -3.3,-5.8c0.7,-2.4 3,-3.9 5.5,-3.4l22.7,4.3c0.2,0 0.4,0.1 0.5,0.3c0.1,0.2 0.1,0.4 0.1,0.6l-2.7,9.5c-0.1,0.2 -0.4,0.4 -0.7,0.4zm-20.8,-13.9c-1.9,0 -3.3,1.5 -3.3,3.4c0,1.5 1,2.8 2.5,3.2l21.1,5.7l2.3,-8.1l-21.9,-4.2c-0.3,0 -0.5,0 -0.7,0z" class="st1_shopping-cart-77"/>
   <path id="svg_30" fill="#231F20" d="m304.3,340.1c-0.3,0 -0.6,-0.2 -0.7,-0.5l-25.5,-78.7c-0.1,-0.4 0,-0.8 0.4,-0.9c0.4,-0.1 0.8,0 0.9,0.4c0,0 0,0 0,0.1l25.5,78.7c0.1,0.4 -0.1,0.8 -0.5,0.9c0.1,0 0,0 -0.1,0z" class="st1_shopping-cart-77"/>
   <path id="svg_31" fill="#231F20" d="m315.6,339.5c-0.3,0 -0.5,-0.2 -0.6,-0.5l-21.6,-77.3c-0.1,-0.4 0.1,-0.8 0.5,-0.9c0.4,-0.1 0.8,0.1 0.9,0.5l21.6,77.3c0.1,0.4 -0.1,0.8 -0.5,0.9c-0.1,0 -0.2,0 -0.3,0z" class="st1_shopping-cart-77"/>
   <path id="svg_32" fill="#231F20" d="m326.5,338.5c-0.3,0 -0.6,-0.2 -0.7,-0.5l-18.7,-75.7c-0.1,-0.4 0.1,-0.8 0.5,-0.8c0.4,-0.1 0.8,0.1 0.8,0.5l18.7,75.7c0.1,0.4 -0.1,0.8 -0.5,0.8c0,0 0,0 0,0l-0.1,0z" class="st1_shopping-cart-77"/>
   <path id="svg_33" fill="#231F20" d="m336.7,337.5c-0.3,0 -0.6,-0.2 -0.7,-0.6l-14.3,-73.9c-0.1,-0.4 0.2,-0.7 0.6,-0.8c0,0 0,0 0,0c0.4,-0.1 0.7,0.2 0.8,0.5c0,0 0,0 0,0l14.3,73.9c0.1,0.4 -0.2,0.7 -0.6,0.8l-0.1,0.1z" class="st1_shopping-cart-77"/>
   <path id="svg_34" fill="#231F20" d="m347.7,336.3c-0.3,0 -0.6,-0.2 -0.7,-0.6l-12.2,-71.7c-0.1,-0.4 0.2,-0.7 0.6,-0.8s0.7,0.2 0.8,0.6l12.3,71.8c0.1,0.4 -0.2,0.7 -0.6,0.8c0,0 0,0 0,0l-0.2,-0.1z" class="st1_shopping-cart-77"/>
   <path id="svg_35" fill="#231F20" d="m358.8,335c-0.4,0 -0.6,-0.3 -0.7,-0.6l-9.5,-69.9c-0.1,-0.4 0.2,-0.7 0.6,-0.8s0.7,0.2 0.8,0.6l9.5,69.9c0.1,0.4 -0.2,0.7 -0.7,0.8l0,0z" class="st1_shopping-cart-77"/>
   <path id="svg_36" fill="#231F20" d="m369.5,333.6c-0.4,0 -0.7,-0.3 -0.7,-0.6l-6.1,-67.8c0,-0.4 0.3,-0.7 0.6,-0.8c0.4,0 0.7,0.2 0.8,0.6c0,0 0,0 0,0l6.1,67.8c0.1,0.4 -0.2,0.8 -0.7,0.8c0.1,0 0.1,0 0,0l0,0z" class="st1_shopping-cart-77"/>
   <path id="svg_37" fill="#231F20" d="m381,332.1c-0.4,0 -0.7,-0.3 -0.7,-0.7l-4.3,-65.5c0,-0.4 0.3,-0.7 0.6,-0.7c0,0 0,0 0,0c0.4,0 0.7,0.3 0.7,0.6l4.3,65.5c0.1,0.4 -0.2,0.7 -0.6,0.8l0,0z" class="st1_shopping-cart-77"/>
   <path id="svg_38" fill="#231F20" d="m391.9,333.6c-0.4,0 -0.7,-0.3 -0.7,-0.7l-1.6,-66.4c0,-0.4 0.3,-0.7 0.7,-0.7c0,0 0,0 0,0c0.4,0 0.7,0.3 0.7,0.7l1.6,66.4c0,0.4 -0.3,0.7 -0.7,0.7c0,0 0,0 0,0l0,0z" class="st1_shopping-cart-77"/>
   <path id="svg_39" fill="#231F20" d="m403.9,331.7c-0.4,0 -0.7,-0.3 -0.7,-0.7l0,0l0,-63.7c0,-0.4 0.3,-0.7 0.7,-0.7c0.4,0 0.7,0.3 0.7,0.7l0,63.7c0,0.4 -0.3,0.7 -0.7,0.7z" class="st1_shopping-cart-77"/>
   <path id="svg_40" fill="#231F20" d="m398.5,384.5l-114.8,0c-3.2,0 -5.8,-2.6 -5.8,-5.8c0,-0.9 0.2,-1.8 0.6,-2.6l17.3,-34.9c0.5,-1.1 1.7,-1.6 2.8,-1.1s1.6,1.7 1.1,2.8c0,0.1 -0.1,0.1 -0.1,0.2l-17.3,34.9c-0.4,0.8 -0.1,1.7 0.7,2.1c0.2,0.1 0.4,0.2 0.7,0.2l114.8,0c1.2,0 2.1,0.9 2.1,2.1s-1,2.1 -2.1,2.1z" class="st1_shopping-cart-77"/>
  </g>
  <g id="Character_shopping-cart-77">
   <path id="svg_41" fill="#FFFFFF" d="m153.1,386.5l-1.4,11.6c0,0 10.9,0.5 11,0s3.7,-15 3.7,-15l-13.3,3.4z" class="st3_shopping-cart-77"/>
   <path id="svg_42" fill="#231F20" d="m159.5,399c-1.7,0 -4.2,-0.1 -7.9,-0.2c-0.2,0 -0.4,-0.1 -0.5,-0.2c-0.1,-0.1 -0.2,-0.3 -0.2,-0.5l1.4,-11.6c0,-0.3 0.2,-0.5 0.5,-0.6l13.4,-3.4c0.2,-0.1 0.5,0 0.7,0.2c0.2,0.2 0.2,0.4 0.2,0.7c-0.4,1.5 -3.6,14.5 -3.8,15.1c0,0.2 -0.1,0.5 -3.8,0.5zm-7,-1.6c4.1,0.2 8.5,0.3 9.7,0.1c0.4,-1.6 2.1,-8.4 3.4,-13.5l-11.8,3l-1.3,10.4z" class="st1_shopping-cart-77"/>
   <path id="svg_43" fill="#FFFFFF" d="m94.4,368.9l-6.2,9.9c0,0 9.6,5.1 10,4.7s9.7,-12 9.7,-12l-13.5,-2.6z" class="st3_shopping-cart-77"/>
   <path id="svg_44" fill="#231F20" d="m98.2,384.2c-0.8,0 -2.9,-0.9 -10.3,-4.8c-0.3,-0.2 -0.5,-0.6 -0.3,-0.9c0,0 0,0 0,-0.1l6.2,-9.9c0.2,-0.2 0.4,-0.4 0.7,-0.3l13.6,2.5c0.2,0 0.4,0.2 0.5,0.4c0.1,0.2 0,0.5 -0.1,0.7c-1,1.2 -9.4,11.6 -9.8,12c-0.1,0.3 -0.3,0.4 -0.5,0.4zm-9,-5.7c2.8,1.6 5.7,3 8.7,4.2c1,-1.2 5.4,-6.7 8.8,-10.8l-11.9,-2.2l-5.6,8.8z" class="st1_shopping-cart-77"/>
   <path id="svg_45" fill="#231F20" d="m123.6,239.7c2.7,1.6 26.3,56.6 29.5,61.7s-2.9,87.6 -2.9,87.6l17.3,0c0,0 19.2,-66.2 19.2,-83.2s-22.4,-72.4 -22.4,-72.4l-40.6,1.5" class="st1_shopping-cart-77"/>
   <path id="svg_46" fill="#231F20" d="m167.4,389.7l-17.3,0c-0.2,0 -0.4,-0.1 -0.5,-0.2c-0.1,-0.1 -0.2,-0.3 -0.2,-0.5c2.4,-33.1 5.2,-83.6 3,-87.2c-1.3,-2 -5.7,-11.9 -10.9,-23.2c-7.1,-15.6 -16.8,-37 -18.4,-38.3c-0.3,-0.2 -0.4,-0.6 -0.2,-0.9c0,0 0,0 0,0c0.2,-0.3 0.6,-0.4 1,-0.2c0,0 0,0 0,0c1.5,0.9 7.1,12.8 18.9,38.9c5.1,11.3 9.6,21.1 10.8,23.1c3.1,5 -1.9,75.9 -2.8,87.2l16,0c1.8,-6.2 19.1,-66.6 19.1,-82.5s-20.1,-66.4 -22.2,-71.7l-40.1,1.4c-0.4,0 -0.7,-0.2 -0.8,-0.6s0.2,-0.7 0.6,-0.8c0.1,0 0.1,0 0.2,0l40.6,-1.4c0.3,0 0.6,0.2 0.7,0.4c0.9,2.3 22.5,55.8 22.5,72.7s-18.5,80.6 -19.3,83.4c-0.1,0.2 -0.4,0.4 -0.7,0.4z" class="st1_shopping-cart-77"/>
   <path id="svg_47" fill="#231F20" d="m117.3,244.1l2.4,57.9l-30.4,67.6l15.2,9.2c0.8,2 39.7,-54.1 44.1,-71.1c3,-11.8 0.4,-68 0.4,-68l-31.7,4.4z" class="st1_shopping-cart-77"/>
   <path id="svg_48" fill="#231F20" d="m104.6,379.6c-0.2,0 -0.3,-0.1 -0.4,-0.2l0,0l-15.2,-9.2c-0.3,-0.2 -0.4,-0.6 -0.3,-0.9l30.3,-67.5l-2.4,-57.7c0,-0.4 0.2,-0.7 0.6,-0.7l31.7,-4.4c0.4,-0.1 0.7,0.2 0.8,0.6c0,0 0,0 0,0.1c0.1,2.3 2.6,56.5 -0.4,68.2c-4.2,16.3 -41.7,71.5 -44.7,71.7l0,0zm-14.4,-10.2l14.3,8.7c4.2,-3.6 39.2,-54.3 43.3,-70.6c2.8,-10.8 0.7,-60.3 0.4,-67l-30.3,4.2l2.4,57.2c0,0.1 0,0.2 -0.1,0.3l-30,67.2z" class="st1_shopping-cart-77"/>
   <path id="svg_49" fill="#231F20" d="m151.7,398.1l-1.6,8.9c0,0 28.7,1.8 27.8,0s-15.1,-8.9 -15.1,-8.9l-11.1,0z" class="st1_shopping-cart-77"/>
   <path id="svg_50" fill="#231F20" d="m170.1,408.5c-5.6,0 -13.2,-0.4 -20,-0.8c-0.2,0 -0.4,-0.1 -0.5,-0.3c-0.1,-0.2 -0.2,-0.4 -0.1,-0.5l1.6,-8.9c0.1,-0.3 0.4,-0.6 0.7,-0.6l11,0c0.1,0 0.2,0 0.3,0.1c3.4,1.7 14.5,7.4 15.5,9.2c0.1,0.3 0.1,0.6 -0.1,0.9c-0.5,0.6 -3.8,0.9 -8.4,0.9zm-19.2,-2.2c11,0.7 22.9,1 25.9,0.5c-1.8,-1.5 -8.2,-5 -14.2,-8.1l-10.3,0l-1.4,7.6z" class="st1_shopping-cart-77"/>
   <path id="svg_51" fill="#231F20" d="m88.2,378.8c0,0 -0.3,0.4 -0.8,1c-1.5,1.8 -4.5,5.6 -3.7,6.6c1.1,1.2 24.8,15.3 24.3,14.4s-9.7,-17.3 -9.7,-17.3" class="st1_shopping-cart-77"/>
   <path id="svg_52" fill="#231F20" d="m108,401.5c-0.7,0 -2.7,-1 -12.3,-6.8c-2.7,-1.6 -11.8,-7 -12.6,-7.9c-0.4,-0.5 -1.3,-1.5 3.7,-7.5l0.8,-1c0.3,-0.2 0.8,-0.1 1,0.2c0.1,0.2 0.2,0.5 0,0.7l-0.8,1c-3.1,3.7 -3.7,5.4 -3.7,5.7c0.9,0.9 16.5,10.3 22,13.3c-2.5,-4.4 -8.3,-14.9 -8.7,-15.4c-0.2,-0.3 -0.1,-0.8 0.2,-1c0,0 0,0 0,0c0.3,-0.2 0.7,-0.1 1,0.2c0,0 0,0 0,0.1c3.2,5.7 9.3,16.6 9.7,17.3c0.2,0.3 0.1,0.8 -0.2,1c0.1,0 0,0.1 -0.1,0.1z" class="st1_shopping-cart-77"/>
   <path id="svg_53" fill="#FFFFFF" d="m148.6,137.7c-2,0.9 -4.4,0 -5.3,-2c-0.5,-0.7 -0.7,-1.7 -0.4,-2.5c0.3,-0.8 1.2,-1.2 2,-0.9c0.1,0 0.1,0.1 0.2,0.1c-2,-2.4 -3.6,-5.1 -4.8,-8.1c-1,-3 -1.1,-6.4 0.6,-9.1c-2.3,-1.2 -4.7,-2.6 -5.9,-4.9c-1.2,-3 -0.4,-6.4 2.1,-8.5c2.5,-2 5.7,-2.7 8.9,-2.1c-0.4,-1.5 -1.5,-2.8 -2.9,-3.4c3.4,-3.3 8.4,-4.3 13.1,-4.5c7.9,-0.3 16.1,1.7 21.8,7.1c4.4,4.2 6.6,10.2 5.9,16.2c-1.2,7.9 -6.8,4.3 -12.2,7.3c-2.6,1.5 -4.5,4.1 -6.7,6c-3.8,3.3 -8.7,4.2 -12.5,7c-1.1,1 -2.5,1.8 -3.9,2.3z" class="st3_shopping-cart-77"/>
   <path id="svg_54" fill="#231F20" d="m146.9,138.8c-1.7,0 -3.3,-1 -4.1,-2.6c-0.6,-0.9 -0.8,-2.1 -0.4,-3.2c0.3,-0.6 0.8,-1.1 1.4,-1.3c-1.7,-2.1 -3,-4.5 -4,-7c-1.1,-2.9 -1,-6.2 0.3,-9c-2,-1.1 -4.4,-2.5 -5.5,-4.9c-1.4,-3.3 -0.5,-7 2.2,-9.3c2.3,-1.9 5.3,-2.7 8.2,-2.4c-0.5,-0.9 -1.2,-1.6 -2.1,-2c-0.3,-0.2 -0.5,-0.6 -0.3,-0.9c0,-0.1 0.1,-0.1 0.2,-0.2c3,-2.9 7.6,-4.5 13.6,-4.7c9.1,-0.3 17,2.3 22.3,7.3c4.6,4.3 6.8,10.6 6.1,16.8c-0.8,5.7 -3.9,6 -7.2,6.4c-1.9,0.1 -3.7,0.6 -5.3,1.4c-1.6,1 -3,2.2 -4.2,3.5c-0.8,0.8 -1.6,1.6 -2.4,2.4c-2.2,1.7 -4.6,3.1 -7.2,4.1c-1.9,0.8 -3.7,1.7 -5.4,2.9c-1.2,1 -2.6,1.7 -4.1,2.3l0,0c-0.7,0.2 -1.4,0.3 -2.1,0.4zm1.7,-1l0,0zm-4.1,-4.9c-0.1,0 -0.1,0 -0.2,0c-0.3,0.1 -0.5,0.3 -0.6,0.6c-0.2,0.7 -0.1,1.4 0.4,1.9c1.1,1.8 2.5,2.3 4.4,1.7l0,0c1.3,-0.5 2.6,-1.3 3.7,-2.1c1.8,-1.2 3.7,-2.2 5.7,-3c2.5,-1 4.8,-2.3 6.8,-3.9c0.8,-0.7 1.5,-1.5 2.3,-2.3c1.3,-1.5 2.8,-2.8 4.5,-3.9c1.8,-0.9 3.8,-1.5 5.8,-1.6c3.2,-0.4 5.3,-0.6 6,-5.2c0.7,-5.8 -1.4,-11.6 -5.7,-15.6c-6.8,-6.5 -16.3,-7.1 -21.3,-6.9s-9.2,1.4 -12,3.7c1.2,0.8 2,2 2.4,3.4c0.1,0.2 0,0.5 -0.2,0.7c-0.2,0.2 -0.4,0.3 -0.6,0.2c-2.9,-0.6 -5.9,0.2 -8.3,2c-2.3,1.9 -3,5 -1.9,7.7c1,2 3.1,3.3 5.6,4.6c0.2,0.1 0.3,0.3 0.4,0.4c0,0.2 0,0.4 -0.1,0.6c-1.4,2.6 -1.6,5.7 -0.5,8.5c1.2,2.8 2.8,5.5 4.7,7.9c0.2,0.3 0.2,0.7 -0.1,0.9c-0.2,0.2 -0.6,0.3 -0.9,0.1c-0.1,-0.3 -0.2,-0.4 -0.3,-0.4l0,0z" class="st1_shopping-cart-77"/>
   <path id="svg_55" fill="#FFFFFF" d="m176.7,123.6c0,0 3.8,8.4 2.5,9.8s-4.6,-0.2 -4.6,-0.2" class="st3_shopping-cart-77"/>
   <path id="svg_56" fill="#231F20" d="m177.6,134.6c-1.1,-0.1 -2.3,-0.3 -3.3,-0.9c-0.3,-0.2 -0.5,-0.6 -0.3,-0.9c0,0 0,0 0,0c0.2,-0.3 0.6,-0.5 0.9,-0.3c0,0 0,0 0,0c0.9,0.4 3,1.1 3.8,0.4c0.5,-0.6 -0.7,-4.9 -2.6,-9.1c-0.1,-0.4 0.1,-0.8 0.4,-0.9c0.3,-0.1 0.7,0 0.8,0.3c1.2,2.7 3.8,9 2.3,10.6c-0.5,0.6 -1.3,0.9 -2,0.8z" class="st1_shopping-cart-77"/>
   <path id="svg_57" fill="#FFFFFF" d="m177.3,113.3c2.8,3.1 0.9,8.5 0.3,12.1c-0.9,5 -1.9,10 -3,15c-0.7,3.2 -9,1.9 -10.3,0.7l-1,10.7c0,0 -2.9,5.5 -9.1,1.3s-7,-8.7 -7,-8.7l3,-14.5c0,0 5.5,0.9 9.8,-5s5.8,-16 5.8,-16s8.8,1.4 11.5,4.4z" class="st3_shopping-cart-77"/>
   <path id="svg_58" fill="#231F20" d="m158.6,155.4c-1.7,-0.1 -3.4,-0.7 -4.7,-1.7c-6.3,-4.3 -7.3,-9 -7.3,-9.2c0,-0.1 0,-0.2 0,-0.3l3,-14.5c0.1,-0.4 0.4,-0.6 0.8,-0.6c0.2,0 5.1,0.8 9.1,-4.8c4.2,-5.8 5.7,-15.6 5.7,-15.7c0,-0.2 0.1,-0.4 0.3,-0.5c0.2,-0.1 0.3,-0.2 0.5,-0.1c0.4,0.1 9,1.5 11.9,4.7l0,0c2.5,2.9 1.6,7.2 0.9,10.7c-0.1,0.7 -0.3,1.3 -0.4,1.9c-0.9,5 -1.9,10.1 -3,15.1c-0.3,1.1 -1.2,1.9 -2.3,2.2c-2.7,0.6 -5.5,0.4 -8.1,-0.5l-0.9,9.6c0,0.1 0,0.2 -0.1,0.3c-0.9,1.5 -2.3,2.6 -4,3.1c-0.5,0.3 -0.9,0.3 -1.4,0.3zm-10.6,-11c0.2,0.7 1.4,4.6 6.7,8.1c1.8,1.3 3.5,1.7 5,1.3c1.2,-0.4 2.3,-1.2 3,-2.3l1,-10.5c0,-0.3 0.2,-0.5 0.4,-0.6c0.2,-0.1 0.5,0 0.7,0.1c0.7,0.6 5.2,1.6 7.8,0.8c0.8,-0.2 1.2,-0.6 1.4,-1.1c1.1,-5 2.1,-10 3,-15c0.1,-0.6 0.2,-1.3 0.4,-2c0.7,-3.2 1.5,-7.2 -0.5,-9.5s-8.3,-3.7 -10.4,-4.1c-0.4,2.4 -2.1,10.4 -5.8,15.6s-8.1,5.4 -9.8,5.4l-2.9,13.8z" class="st1_shopping-cart-77"/>
   <path id="svg_59" fill="#FFFFFF" d="m175.1,136.7c0,0 -4.3,1.8 -5.7,-2.6" class="st3_shopping-cart-77"/>
   <path id="svg_60" fill="#231F20" d="m173.2,137.7c-0.7,0 -1.4,-0.1 -2,-0.4c-1.2,-0.6 -2.1,-1.7 -2.5,-3c-0.1,-0.4 0.1,-0.8 0.5,-0.9c0.3,-0.1 0.7,0.1 0.8,0.4c0.2,0.9 0.9,1.7 1.7,2.2c1,0.4 2.1,0.4 3.1,0c0.4,-0.1 0.8,0 0.9,0.4c0,0 0,0 0,0c0.1,0.4 0,0.8 -0.4,0.9c0,0 0,0 0,0c-0.6,0.3 -1.4,0.4 -2.1,0.4z" class="st1_shopping-cart-77"/>
   <path id="svg_61" fill="#FFFFFF" d="m164.6,124.1c0.1,-1.3 -0.2,-2.6 -0.8,-3.7c-0.3,-0.9 -0.8,-1.8 -1.4,-2.6c-0.6,-0.8 -1.6,-1.3 -2.6,-1.3c-0.9,0.1 -1.7,0.5 -2.2,1.2c-0.5,0.7 -0.9,1.5 -1,2.4c-0.8,3.8 0.5,7.8 3.4,10.4l-0.2,-0.4" class="st3_shopping-cart-77"/>
   <path id="svg_62" fill="#231F20" d="m159.8,131.3c-0.2,0 -0.3,-0.1 -0.5,-0.2c-3.1,-2.8 -4.5,-7 -3.6,-11.1c0.2,-1 0.6,-1.9 1.2,-2.7c0.7,-0.9 1.7,-1.4 2.8,-1.5c1.2,0 2.4,0.6 3.1,1.5c0.7,0.8 1.2,1.8 1.6,2.8c0.7,1.2 1,2.7 0.9,4.1c-0.1,0.4 -0.4,0.7 -0.8,0.6s-0.7,-0.4 -0.6,-0.8l0,0c0,-1.2 -0.2,-2.3 -0.8,-3.3c-0.3,-0.9 -0.8,-1.7 -1.3,-2.4c-0.5,-0.6 -1.2,-1 -2,-1c-0.7,0.1 -1.3,0.4 -1.7,1c-0.5,0.6 -0.8,1.3 -0.9,2.1c-0.7,3.3 0.3,6.8 2.7,9.2c0.2,0 0.3,0.1 0.4,0.3l0.2,0.4c0.2,0.3 0.1,0.7 -0.1,0.9c-0.2,0.1 -0.4,0.1 -0.6,0.1z" class="st1_shopping-cart-77"/>
   <path id="svg_63" fill="#231F20" d="m164.3,141.1c0,0 -4.1,-2 -5.6,-5.3c0,0 -1,7.7 5.2,11l0.4,-5.7z" class="st1_shopping-cart-77"/>
   <path id="svg_64" fill="#231F20" d="m164,147.5c-0.1,0 -0.2,0 -0.3,-0.1c-6.6,-3.5 -5.6,-11.6 -5.6,-11.7c0.1,-0.4 0.4,-0.7 0.8,-0.6c0.2,0 0.4,0.2 0.5,0.4c1.4,3 5.2,5 5.3,5c0.3,0.1 0.4,0.4 0.4,0.7l-0.4,5.7c0,0.2 -0.1,0.5 -0.4,0.6c-0.1,0 -0.2,0 -0.3,0zm-4.6,-9.4c0.1,3 1.6,5.7 3.9,7.5l0.2,-4.1c-1.5,-0.9 -2.9,-2 -4.1,-3.4l0,0z" class="st1_shopping-cart-77"/>
   <ellipse id="svg_65" fill="#231F20" ry="0.7" rx="1.8" cy="119.6" cx="174.4" class="st1_shopping-cart-77" transform="matrix(0.3252 -0.9456 0.9456 0.3252 4.5796 245.5832)"/>
   <path id="svg_66" fill="#b45309" d="m138.6,143.8c0,0 21.9,3.6 26,16.2s-2.8,53.1 0,57s9.8,28.3 9.8,29.1c0,6.8 -58.8,9 -58.8,9s-1.5,-29.6 -2,-47.6s9,-67.9 25,-63.7z" class="st2_shopping-cart-77 targetColor"/>
   <path id="svg_67" fill="#231F20" d="m171.4,233.8c-0.1,0 -0.2,0 -0.2,0c-0.3,-0.1 -0.5,-0.4 -0.5,-0.7c-0.1,-0.6 -1.7,-4.4 -3.1,-7.6c-2,-4.7 -4,-9.5 -4.4,-10.9c-0.4,-1.6 0.3,-12.8 1.2,-27.3c0.4,-6.3 0.7,-11.8 0.8,-13.9c-0.1,-4.4 -0.5,-8.8 -1.3,-13.2c0,-0.4 0.2,-0.7 0.6,-0.8c0.3,0 0.7,0.2 0.8,0.5c0.9,4.4 1.3,9 1.4,13.5c0,2.1 -0.4,7.6 -0.8,14c-0.7,10.7 -1.6,25.3 -1.2,26.9c0.3,1.3 2.4,6.3 4.3,10.7c3.3,7.9 3.3,8 3.1,8.4c-0.2,0.3 -0.5,0.4 -0.7,0.4z" class="st1_shopping-cart-77"/>
   <path id="svg_68" fill="#b45309" d="m136.1,133.7c-1.7,-1.2 -3.7,-1.9 -5.7,-2.3c-5.2,-0.6 -9.2,0.9 -13.4,3.8c-5.5,3.8 -11.3,8.3 -12.7,14.8c-1.2,6.4 2.1,12.8 8.1,15.5c1,0.5 2.2,0.7 3.3,0.6c2.2,-0.3 3.6,-2.3 5,-3.9c3.8,-4.1 7.3,-4.9 12.6,-5.5c3.3,-0.4 6.6,-0.6 9.9,-0.5c6.8,0.2 13.4,2.2 20.1,3.2c4.2,0.6 2.4,-3.8 0.8,-5.3c-2.8,-2.6 -5.7,-5.1 -8.7,-7.5c-6.2,-4.7 -12.6,-9 -19.3,-12.9z" class="st2_shopping-cart-77 targetColor"/>
   <path id="svg_69" fill="#FFFFFF" d="m223.2,243.6c-0.1,0.4 -0.5,0.6 -0.8,0.7c-4.2,1.7 -9,2.5 -13.3,1c-5,-1.8 -7.7,-6.3 -12.8,-7.9c-1.8,-0.6 -3.6,-1.1 -5.5,-1.6c-2.6,-0.7 -5.3,-1.4 -7.9,-2.1c-7.5,-2 -16.7,-3.2 -23.4,-7.1c-5.6,-3.2 -21.5,-30.8 -25.9,-42.4s9.2,-18.4 9.2,-18.4c7.3,-6.1 26.6,44.6 26.6,44.6l27.7,13l5.7,2.7c1.2,0.6 2.4,1.2 3.6,1.6c2.9,0.7 6.5,-0.6 9.3,-1.2c0.7,-0.2 1.4,-0.2 2,0.1c1.2,0.4 2.3,1.1 3.4,1.8c1,0.8 1.7,1.9 1.9,3.2l-3.9,-0.1c-3,-0.1 -4.3,3.6 -2.8,6.1s5.3,2.7 6.7,5.2c0.2,0.2 0.2,0.5 0.2,0.8z" class="st3_shopping-cart-77"/>
   <path id="svg_70" fill="#231F20" d="m214,246.8c-1.7,0 -3.5,-0.3 -5.1,-0.9c-2.4,-0.9 -4.5,-2.3 -6.4,-4c-1.8,-1.7 -4,-3 -6.3,-3.8c-1.8,-0.6 -3.6,-1.1 -5.5,-1.6c-2.4,-0.7 -4.9,-1.3 -7.4,-2l-0.5,-0.1c-2,-0.5 -4,-1 -6.2,-1.5c-6.1,-1.4 -12.3,-2.8 -17.4,-5.7c-5.7,-3.3 -21.7,-31 -26.2,-42.8c-4.4,-11.6 8.4,-18.6 9.5,-19.2c0.7,-0.6 1.7,-0.8 2.6,-0.5c3.7,0.9 9,8.9 15.9,23.7c4.6,9.9 8.5,19.8 9.1,21.5l27.4,12.9l5.7,2.7c0.3,0.1 0.6,0.3 0.9,0.5c0.8,0.5 1.7,0.8 2.6,1.1c2.1,0.5 4.7,-0.2 7,-0.8c0.7,-0.2 1.4,-0.4 2,-0.5c0.5,-0.1 1,-0.2 1.5,-0.1c0.3,0.1 0.7,0.2 1,0.3c1.3,0.5 2.4,1.1 3.5,1.9c1.2,0.9 2,2.2 2.1,3.7c0,0.2 0,0.4 -0.2,0.5c-0.1,0.2 -0.3,0.2 -0.5,0.2l-3.9,-0.1c-0.9,0 -1.8,0.5 -2.3,1.3c-0.7,1.2 -0.7,2.6 0,3.7c0.8,1 1.9,1.8 3.1,2.3c1.5,0.6 2.7,1.6 3.7,2.9c0.2,0.4 0.3,0.8 0.3,1.2l0,0c-0.2,0.6 -0.7,1 -1.2,1.2c-2.9,1.2 -5.8,1.9 -8.8,2zm-69.8,-80.7c-0.3,0 -0.7,0.1 -0.9,0.4c0,0 -0.1,0.1 -0.1,0.1c-0.5,0.3 -13,6.7 -8.9,17.5c4.3,11.3 20.2,39 25.6,42c4.9,2.8 11.1,4.2 17,5.5c2.2,0.5 4.3,0.9 6.3,1.5l0.5,0.1c2.5,0.6 5,1.3 7.4,2c1.8,0.5 3.7,1 5.5,1.6c2.5,0.9 4.8,2.3 6.8,4.1c1.8,1.6 3.8,2.9 6,3.8c4.6,1.6 9.5,0.4 12.8,-1c0.1,-0.1 0.3,-0.1 0.4,-0.2c0,-0.1 -0.1,-0.2 -0.1,-0.2c-0.8,-1 -1.9,-1.8 -3.1,-2.3c-1.4,-0.6 -2.7,-1.6 -3.6,-2.8c-0.9,-1.6 -0.9,-3.6 0,-5.2c0.7,-1.3 2,-2 3.5,-2l3,0.1c-0.3,-0.8 -0.8,-1.4 -1.4,-1.9c-1,-0.7 -2.1,-1.3 -3.2,-1.7c-0.2,-0.1 -0.4,-0.2 -0.6,-0.2c-0.3,0 -0.7,0 -1,0.1c-0.6,0.1 -1.3,0.3 -1.9,0.5c-2.5,0.6 -5.3,1.4 -7.7,0.8c-1,-0.3 -2,-0.7 -2.9,-1.2l-0.9,-0.4l-5.7,-2.7l-27.7,-13c-0.2,-0.1 -0.3,-0.2 -0.4,-0.4c-4.5,-11.8 -17.6,-42.9 -24.2,-44.6c-0.2,-0.3 -0.4,-0.3 -0.5,-0.3l0,0zm79,77.5l0,0zm0,0l0,0z" class="st1_shopping-cart-77"/>
   <path id="svg_71" fill="#231F20" d="m197.1,223.5l-6.3,12.4c-2.6,-0.7 -5.3,-1.4 -7.9,-2.1c-7.5,-2 -16.7,-3.2 -23.4,-7.1c-5.6,-3.2 -19.9,-21 -26.7,-35.3c-8.4,-17.7 11.2,-29.6 11.2,-29.6c7.3,-6.1 25.5,48.7 25.5,48.7l27.6,13z" class="st1_shopping-cart-77"/>
   <path id="svg_72" fill="#231F20" d="m190.9,236.6c-0.1,0 -0.1,0 -0.2,0c-2.4,-0.7 -4.9,-1.3 -7.4,-2l-0.5,-0.1c-2,-0.5 -4,-1 -6.2,-1.5c-6.1,-1.4 -12.3,-2.8 -17.4,-5.7c-5.9,-3.4 -20.3,-21.6 -27,-35.6c-3.6,-7.5 -2.7,-15.1 2.5,-22.1c2.5,-3.3 5.5,-6.1 8.9,-8.4c0.7,-0.6 1.6,-0.7 2.4,-0.5c1.3,0.4 5.4,1.5 15.4,25.8c4.4,10.8 8.1,21.6 8.7,23.4c9.1,4.3 18.3,8.6 27.4,12.9c0.2,0.1 0.3,0.2 0.4,0.4c0.1,0.2 0.1,0.4 0,0.5l-6.3,12.4c-0.2,0.3 -0.5,0.5 -0.7,0.5zm-45.7,-74.6c-0.3,0 -0.6,0.1 -0.8,0.3c-3.3,2.2 -6.3,4.9 -8.7,8.1c-4.9,6.7 -5.7,13.6 -2.3,20.7c7.1,14.8 21.3,32 26.4,35c4.9,2.8 11.1,4.2 17,5.5c2.2,0.5 4.3,0.9 6.3,1.5l0.5,0.1c2.3,0.6 4.6,1.2 6.9,1.8l5.7,-11.2l-27.1,-12.7c-0.2,-0.1 -0.3,-0.2 -0.4,-0.4c-4.3,-12.9 -16.8,-46.8 -23.2,-48.6c-0.1,-0.1 -0.2,-0.1 -0.3,-0.1z" class="st1_shopping-cart-77"/>
   <path id="svg_73" fill="#FFFFFF" d="m146.3,294.8c-0.2,0 -0.4,-0.1 -0.5,-0.2c-6.7,-7.3 -22.2,-32.4 -22.8,-33.5c-0.2,-0.3 0,-0.8 0.3,-0.9c0.3,-0.2 0.7,-0.1 0.9,0.2c0.2,0.3 16,26 22.7,33.3c0.3,0.3 0.3,0.7 0,1c0,0 0,0 0,0c-0.2,0 -0.4,0.1 -0.6,0.1z" class="st3_shopping-cart-77"/>
   <path id="svg_74" fill="#231F20" d="m123.6,160.4c-0.4,0 -0.7,-0.3 -0.7,-0.7c0,-0.2 0.1,-0.5 0.3,-0.6c0.8,-0.5 19.5,-11.2 31.3,-6.6c0.4,0.1 0.5,0.6 0.4,0.9s-0.6,0.5 -0.9,0.4c-11.2,-4.4 -29.9,6.4 -30.1,6.5c-0.1,0 -0.2,0 -0.3,0.1z" class="st1_shopping-cart-77"/>
  </g>
 </g>
</svg>