<svg width="731.07696" height="629.61397" xmlns="http://www.w3.org/2000/svg" source="https://undraw.co/" artist="Katerina Limpitsouni" role="img">

 <g>
  <title>Layer 1</title>
  <path id="svg_1" fill="#f2f2f2" d="m304.10556,546.98051l7.98486,-26.00457a87.77018,87.77018 0 0 0 -35.08394,-23.50552c13.12443,21.74329 0.40684,50.10772 5.70644,74.94591a52.79386,52.79386 0 0 0 28.27717,35.97783l12.11706,15.0135a88.46588,88.46588 0 0 0 6.50218,-73.78667a85.453,85.453 0 0 0 -9.89442,-19.0176c-7.20043,8.46503 -15.60935,16.37712 -15.60935,16.37712z"/>
  <path id="svg_2" fill="#f2f2f2" d="m260.20023,550.30308l-4.45075,-26.83629a87.77019,87.77019 0 0 0 -41.8846,-5.39169c21.444,13.60792 22.71122,44.6671 38.53195,64.53481a52.79389,52.79389 0 0 0 41.35465,19.59061l17.541,8.03374a88.4659,88.4659 0 0 0 -27.08772,-68.942a85.45282,85.45282 0 0 0 -17.33741,-12.60883c-2.66945,10.78779 -6.66712,21.61965 -6.66712,21.61965z"/>
  <polygon id="svg_3" fill="#ffb6b6" points="521.537 616.734 509.237 616.733 503.386 569.293 521.539 569.294 521.537 616.734"/>
  <path id="svg_4" fill="#2f2e41" d="m524.67327,628.65599l-39.658,-0.00147l0,-0.50161a15.43684,15.43684 0 0 1 15.436,-15.43578l0.001,0l7.24407,-5.49573l13.51581,5.49657l3.46191,0.00014l-0.00079,15.93788z"/>
  <polygon id="svg_5" fill="#ffb6b6" points="720.217 571.872 711.831 580.869 673.137 552.804 685.514 539.526 720.217 571.872"/>
  <path id="svg_6" fill="#2f2e41" d="m731.07696,577.70599l-27.04,29.01035l-0.36695,-0.342a15.43684,15.43684 0 0 1 -0.76756,-21.81615l0.00067,-0.00072l0.91868,-9.0463l13.236,-6.13976l2.36044,-2.53242l11.65872,10.867z"/>
  <path id="svg_7" fill="#2f2e41" d="m702.01784,545.21032l-13,27.18935l-79.82916,-52.85512l-11.61334,-15.82321l-38.07879,-51.88248l-15.47871,24.56081l-10.7705,25.675l0,0a28.302,28.302 0 0 0 -12.67456,20.65424l-0.4928,4.54552l6.80579,61.1824l-25.86792,7.94283l-14.85649,-82.19011l4.85649,-17.80989l5,-25l25.17374,-79l67.36433,0l38.6375,82.24219l2.82443,16.75781l10.95506,12.57265l61.04493,41.23801z"/>
  <path id="svg_8" fill="#3f3d56" d="m562.02183,263.14799l11.34,8.635l13.676,4.20263s5.65378,79.52834 10.74814,84.62269s0.49987,5.23128 1.52352,11.84916s3.51167,20.18377 3.51167,20.18377c-34.38706,18.20258 -64.03232,18.69086 -87.845,-2.60925a5.93118,5.93118 0 0 1 3.23609,-6.69462c4.43194,-2.35163 -4.08556,-13.32756 -0.46361,-15.16273s-1.4724,-17.755 -1.4724,-17.755l3.34187,-33.21557l-2.64024,-5.30956l6.44317,-32.48859l11.18013,-4.083l4.466,-10.76026l22.95466,-1.41467z"/>
  <path id="svg_9" fill="#ffb6b6" d="m569.12576,404.4967a9.83035,9.83035 0 0 1 11.20736,-10.08023l15.98166,-31.06366l8.90389,15.81982l-16.54149,27.07326a9.88361,9.88361 0 0 1 -19.55136,-1.74918l-0.00006,-0.00001z"/>
  <path id="svg_10" fill="#3f3d56" d="m596.04016,396.89775l34.27838,-53.12742l-0.11314,-0.24445c-0.12943,-0.28006 -7.89169,-17.04459 -15.413,-32.39983c-1.15826,-2.36467 -2.3108,-4.69592 -3.42888,-6.92839q-0.72381,-1.44525 -1.42606,-2.83006c-3.159,-6.22784 -5.919,-11.37528 -7.56648,-13.82041a29.01529,29.01529 0 0 0 -15.37527,-11.66364l-0.15859,-0.04079l-0.15142,0.06313a14.72433,14.72433 0 0 0 -8.76284,16.19752a104.29613,104.29613 0 0 0 19.35291,43.755l5.55705,7.32474l-19.31154,41.98521l12.51888,11.72939z"/>
  <path id="svg_11" fill="#ffb6b6" d="m478.1668,193.25199a9.83033,9.83033 0 0 1 -2.35881,14.888l7.14559,34.1951l-16.87862,-6.68267l-4.19794,-31.44773a9.88361,9.88361 0 0 1 16.28972,-10.9527l0.00006,0z"/>
  <path id="svg_12" fill="#3f3d56" d="m462.04369,216.10312l6.82551,62.85653l0.24182,0.11864c0.19929,0.09793 8.84664,4.33935 19.46132,9.39061c1.79066,0.85212 1.534,4.54332 3.40548,5.42554c1.28913,0.60768 4.69342,-1.59731 5.996,-0.98817c11.6023,5.42574 23.33421,10.70159 28.0098,12.13115a29.0153,29.0153 0 0 0 19.2887,-0.621l0.14888,-0.06818l0.07788,-0.14439a14.72433,14.72433 0 0 0 -3.39225,-18.10082a104.29612,104.29612 0 0 0 -42.58658,-21.80404l-8.92931,-2.19087l-11.4361,-44.77621l-17.11115,-1.22879z"/>
  <circle id="svg_13" fill="#ffb6b6" r="22.43078" cy="237.15579" cx="549.93117"/>
  <path id="svg_14" fill="#2f2e41" d="m527.66102,222.12522c1.84464,-5.36654 11.02745,-9.08881 25.91417,-9.60638s18.66229,17.02576 18.66229,17.02576c9.938,8.06173 -10.61182,29.645 -11.606,28.86767l0.447,-4.05508c0.74029,-6.71673 3.8855,-11.95752 -0.1145,-18.95752l-3.841,0.0441q-7.441,1.43086 -14.882,2.8617l5.87292,-5.17092l-0.16561,-0.25624a22.72645,22.72645 0 0 1 -8.01666,2.43412c-3.15652,0.18554 -6.60741,-1.0707 -8.11933,-3.84781a6.46564,6.46564 0 0 1 -0.7254,-2.46008c-4.25655,1.70064 -6.203,6.94811 -6.203,6.94811s0.93248,-8.46089 2.77712,-13.82743z"/>
  <path id="svg_15" fill="#2f2e41" d="m90.37348,223.4709a12.01539,12.01539 0 0 0 -0.98135,-1.09867c0.08535,-0.11731 0.1707,-0.2453 0.25605,-0.36261l0.7253,1.46128z"/>
  <path id="svg_16" fill="#2f2e41" d="m94.73594,313.68659c-3.66922,6.51717 -10.997,10.15436 -18.26074,11.93562a45.62848,45.62848 0 0 1 -24.82054,-0.47994c-1.02393,-0.33065 -2.04792,-0.71469 -3.03988,-1.1413a26.19137,26.19137 0 0 0 1.13063,-3.89323a26.70185,26.70185 0 0 0 0.55467,-5.45048a17.20675,17.20675 0 0 1 -3.10394,4.27721a15.69464,15.69464 0 0 1 -3.25321,2.61319a31.94711,31.94711 0 0 1 -9.43967,-8.76768c0.15995,-0.39465 0.32,-0.7893 0.46932,-1.18395a42.55225,42.55225 0 0 0 1.83457,-6.33579a43.3241,43.3241 0 0 0 0.90668,-8.86371a27.85116,27.85116 0 0 1 -5.05589,6.95439a22.66926,22.66926 0 0 1 -1.94121,1.84532a25.52261,25.52261 0 0 1 1.53589,-19.63673c4.22388,-7.80776 12.41561,-12.44758 19.7114,-17.49273c7.3064,-5.04521 14.61287,-11.87162 15.23147,-20.73533c0.416,-5.98379 -2.35721,-11.97832 -1.24794,-17.86609a13.804,13.804 0 0 1 23.44455,-7.09313c-4.13853,5.86648 -8.25572,11.93562 -9.93034,18.91137c-1.70658,7.10381 -0.3093,15.4342 5.29052,20.138c1.91992,1.6213 4.2772,2.77328 5.75984,4.79984c1.97324,2.68794 1.98392,6.2718 2.3039,9.5784c0.63995,6.43176 2.74125,12.61821 3.87187,18.986c1.14131,6.35721 1.2053,13.25829 -1.95195,18.90075z"/>
  <polygon id="svg_17" fill="#a0616a" points="19.519 578.195 29.254 585.716 62.898 551.747 48.53 540.646 19.519 578.195"/>
  <path id="svg_18" fill="#2f2e41" d="m19.93315,570.84567l16.098,10.972l-5.09439,6.593l6.8227,21.40865a5.20442,5.20442 0 0 1 -8.14088,5.699l-18.32032,-14.156l1.88135,-8.9615l-6.27209,5.56879l-6.90749,-5.3374l19.93312,-21.78654z"/>
  <path id="svg_19" fill="#2f2e41" d="m68.90755,242.42105a23.23609,23.23609 0 1 0 39.96608,-16.11663l-0.11153,-0.11142c-0.1859,-0.19526 -0.3718,-0.39041 -0.567,-0.57636a0.0091,0.0091 0 0 1 -0.00925,-0.00931c-0.24166,-0.22305 -0.48333,-0.44611 -0.7343,-0.65987c-4.08951,-3.58763 -9.83738,-7.48171 -15.70217,-7.48171c-12.83561,0 -22.84183,12.11963 -22.84183,24.9553z"/>
  <path id="svg_20" fill="#a0616a" d="m201.34975,230.48842a8.51137,8.51137 0 0 1 -9.217,9.24l-57.53844,51.95118l-9.90168,-15.63847l59.67194,-46.14888a8.55747,8.55747 0 0 1 16.9852,0.59613l-0.00002,0.00004z"/>
  <path id="svg_21" fill="#b45309" d="m110.0033,307.36051s2.14082,3.954 9.45367,-2.15133c5.85449,-4.88778 33.90287,-26.1074 39.94545,-34.80272a6.68639,6.68639 0 0 0 7.8722,-2.28582l-16.55622,-14.49965c-4.95365,0.57025 -4.84748,3.898 -4.3316,5.78732l-12.48864,5.65825l-32.24957,20.60975l6.75648,18.85359l1.59823,2.83061z"/>
  <polygon id="svg_22" fill="#a0616a" points="78.761 343.789 77.555 349.532 76.531 370.716 121.615 373.194 120.215 340.612 115.845 333.432 78.761 343.789"/>
  <circle id="svg_23" fill="#a0616a" r="19.48446" cy="247.79721" cx="97.86833"/>
  <path id="svg_24" fill="#b45309" d="m63.27598,319.66471l-0.11981,-16.19628a25.77616,25.77616 0 0 1 19.96171,-25.124l0.07352,-0.01725l3.85281,-5.19124l15.65329,1.56586l2.86907,5.86367l11.34257,6.7539l4.36706,14.03864a16.6021,16.6021 0 0 1 7.17414,11.11883c1.48266,9.47052 -5.14824,18.94649 -5.937,20.033l-2.03225,11.44559l-44.21015,7.80056l-0.359,0.04538l-12.63596,-32.13666z"/>
  <path id="svg_25" fill="#2f2e41" d="m121.71111,244.32354a66.42811,66.42811 0 0 1 -7.06117,3.89317a40.63183,40.63183 0 0 1 -7.70105,2.784a26.61691,26.61691 0 0 0 -2.77322,-4.72517a17.1841,17.1841 0 0 1 0.02129,5.27977a27.50736,27.50736 0 0 1 -13.13024,-1.07724l-3.66921,-6.15449l-0.27734,6.86911c-3.03987,0.55467 -6.06914,1.07731 -9.109,1.62131c-0.18131,0.02128 -0.36262,0.064 -0.53332,0.096c-1.888,-8.51171 0.7893,-17.88745 6.74112,-23.56187a21.445,21.445 0 0 1 22.52727,-4.37323c0.48,0.192 0.9706,0.40532 1.43992,0.62934a0.01046,0.01046 0 0 0 0.01068,0.01068c0.27734,0.1386 0.512,0.46925 0.82133,0.43729c13.31154,-1.48272 13.73822,8.84227 12.69294,18.27133z"/>
  <polygon id="svg_26" fill="#a0616a" points="89.297 553.071 99.047 560.572 132.623 526.535 118.233 515.464 89.297 553.071"/>
  <path id="svg_27" fill="#2f2e41" d="m90.58038,546.40053l16.1201,10.93946l-5.08106,6.60328l6.86592,21.39482a5.20442,5.20442 0 0 1 -8.12936,5.71539l-18.34887,-14.119l1.86325,-8.96528l-6.26083,5.58145l-6.91826,-5.32344l19.88911,-21.82668z"/>
  <path id="svg_28" fill="#2f2e41" d="m57.65868,511.52932l-0.00046,-0.12707l4.6209,-7.9629l-4.71847,-10.36547l-0.14158,-26.63073l0.76488,-3.99777a33.63171,33.63171 0 0 0 -0.872,-16.15848l0,0l-0.08618,-16.21005c-0.16577,-4.06077 6.125,-7.63227 4.658,-11.01763c-13.86622,-31.999 14.15957,-56.40982 14.34888,-56.60574l0.57273,-0.59543l3.10738,2.35356l2.95761,0.00363l39.9118,7.27258l0.28818,0.53734c1.5698,2.94445 4.59938,13.09349 4.7791,17.68625c1.98913,2.30273 24.647,28.52139 26.66114,30.34306c13.61081,12.31513 21.40353,32.69845 24.8372,43.75283a17.55469,17.55469 0 0 1 -3.00617,16.14273l-51.52664,56.43871l-13.86622,-12.79958l27.88057,-50.80511l-2.01047,-5.1546a15.843,15.843 0 0 1 -9.2368,-5.36609l-5.64564,-6.70125a12.52908,12.52908 0 0 1 -2.85958,-6.517l-3.4237,-0.41208l-12.26384,-12.87604l-8.5084,77.05214l-2.31318,6.08677l-40.28372,47.35855l-17.06612,-10.66633l22.4408,-44.0588z"/>
  <path id="svg_29" fill="#a0616a" d="m51.50668,180.67654a8.51136,8.51136 0 0 0 2.6234,12.78474l-12.80937,37.922l10.45957,40.18733l16.86612,-7.62493l-10.40771,-30.31217l7.78662,-44.12171a8.55747,8.55747 0 0 0 -14.51863,-8.83527l0,0.00001z"/>
  <path id="svg_30" fill="#b45309" d="m66.94513,304.68271s-3.96136,2.12717 -6.71636,-6.99219c-2.20557,-7.30074 -17.21552,-46.94027 -17.486,-57.52555a6.68641,6.68641 0 0 1 -5.32114,-6.23555l21.80019,-3.01683c3.82541,3.19846 1.90812,5.92043 0.43893,7.21547l7.425,12.5769l15.51936,33.95343l-12.76923,18.53754l-2.89075,1.48678z"/>
  <path id="svg_31" fill="#fd6584" d="m78.00679,252.81217a39.63376,39.63376 0 0 1 30.51369,-26.51706c0.02785,-0.00919 0.12083,-0.0464 0.24166,-0.10211c0.07432,-0.04652 0.16729,-0.093 0.26022,-0.13944c-0.27883,-0.158 -0.54834,-0.29737 -0.82722,-0.43692a0.0091,0.0091 0 0 1 -0.00925,-0.00931c-0.24166,-0.22305 -0.48333,-0.44611 -0.7343,-0.65987l-0.70638,0.02792s-24.82544,-3.93153 -28.73842,27.83679z"/>
  <ellipse id="svg_32" transform="rotate(-56.364 -455.076 652.018)" fill="#f2f2f2" ry="10.19466" rx="8.8567" cy="1251.50063" cx="169.24278"/>
  <ellipse id="svg_33" transform="rotate(-56.364 -353.059 538.422)" fill="#f2f2f2" ry="10.19466" rx="8.8567" cy="985.9042" cx="216.25923"/>
  <ellipse id="svg_34" transform="rotate(-56.364 -445.282 834.297)" fill="#f2f2f2" ry="10.19466" rx="8.8567" cy="1515.77987" cx="354.03663"/>
  <ellipse id="svg_35" transform="rotate(-56.364 -245.583 229.015)" fill="#f2f2f2" ry="10.19466" rx="8.8567" cy="421.49786" cx="88.73544"/>
  <ellipse id="svg_36" transform="rotate(-56.364 -108.819 388.271)" fill="#f2f2f2" ry="10.19466" rx="8.8567" cy="532.75417" cx="442.49936"/>
  <ellipse id="svg_37" transform="rotate(-56.364 -489.921 482.411)" fill="#e6e6e6" ry="10.19466" rx="8.8567" cy="1029.60807" cx="-41.30328"/>
  <path id="svg_38" fill="#ccc" d="m670.26721,629.61399l-650.294,0a1.19069,1.19069 0 0 1 0,-2.38137l650.294,0a1.19068,1.19068 0 0 1 0,2.38137z"/>
  <path id="svg_39" fill="#e6e6e6" d="m141.00856,234.16188a22.24025,22.24025 0 0 1 -22.04492,-19.83057l-12.69531,-117.90674a22.23015,22.23015 0 0 1 19.70068,-24.45508l376.9541,-40.58789a22.23025,22.23025 0 0 1 24.45606,19.7002l12.69531,117.90625a22.231,22.231 0 0 1 -19.70117,24.45605l-0.05372,-0.49707l0.05372,0.49707l-376.95411,40.58789a22.49378,22.49378 0 0 1 -2.41064,0.12989z"/>
  <path id="svg_40" fill="#fff" d="m498.77125,36.85524a19.85228,19.85228 0 0 0 -2.12011,0.11425l-363.36328,39.1245a19.4592,19.4592 0 0 0 -17.26416,21.43066l6.41894,59.61475a73.81135,73.81135 0 0 0 81.28955,65.48632l255.50489,-27.51121a73.58749,73.58749 0 0 0 65.2871,-81.04252l-6.44287,-59.83838a19.4634,19.4634 0 0 0 -19.31006,-17.37841l0,0.00004z"/>
  <path id="svg_41" fill="#b45309" d="m422.25231,98.89711l-203.08846,21.8673a4.4443,4.4443 0 1 1 -0.95157,-8.83751l203.08846,-21.8673a4.4443,4.4443 0 1 1 0.95157,8.83751z"/>
  <path id="svg_42" fill="#b45309" d="m425.17273,126.01999l-203.08846,21.8673a4.4443,4.4443 0 0 1 -0.95157,-8.83752l203.08846,-21.8673a4.4443,4.4443 0 0 1 0.95157,8.83752z"/>
  <path id="svg_43" fill="#b45309" d="m248.67161,172.46117l-23.667,2.54832a4.4443,4.4443 0 0 1 -0.95157,-8.83752l23.667,-2.54831a4.4443,4.4443 0 1 1 0.95157,8.83751z"/>
  <circle id="svg_44" fill="#3f3d56" r="8" cy="93.39967" cx="133.01784"/>
  <circle id="svg_45" fill="#3f3d56" r="8" cy="53.39967" cx="491.01784"/>
  <path id="svg_46" fill="#b45309" d="m382.86108,225.63647a6.58718,6.58718 0 0 1 -2.23618,-5.19571a87.65934,87.65934 0 0 0 -5.62982,-34.07665a6.58717,6.58717 0 0 1 0.44621,-5.63887a6.43872,6.43872 0 0 1 4.44875,-3.1298c9.29859,-5.61123 18.83092,-7.18656 28.33811,-4.68125a6.51458,6.51458 0 0 1 7.1633,4.49107a144.983,144.983 0 0 1 6.36475,38.52514a6.51419,6.51419 0 0 1 -5.44589,6.57523l-28.13329,4.64791a6.43755,6.43755 0 0 1 -5.31594,-1.51707z"/>
  <path id="svg_47" fill="#fff" d="m385.35989,191.78077l23.679,-3.912a1.5,1.5 0 1 0 -0.489,-2.95987l-23.679,3.912a1.5,1.5 0 0 0 0.489,2.95987z"/>
  <path id="svg_48" fill="#fff" d="m387.31589,203.62028l23.679,-3.912a1.5,1.5 0 0 0 -0.489,-2.95988l-23.679,3.912a1.5,1.5 0 1 0 0.489,2.95987l0,0.00001z"/>
  <path id="svg_49" fill="#fff" d="m389.2719,215.4598l23.679,-3.912a1.5,1.5 0 0 0 -0.489,-2.95988l-23.679,3.912a1.5,1.5 0 1 0 0.489,2.95988z"/>
 </g>
</svg>